Literata-M0.ufo
<glyph name="dollar" format="2">
	<unicode hex="0024"/>
	<advance width="560"/>
	<outline>
		<contour>
			<point x="271" y="-90" type="line"/>
			<point x="322" y="-90" type="line"/>
			<point x="322" y="-14" type="line"/>
			<point x="445" y="-7"/>
			<point x="532" y="80"/>
			<point x="532" y="200" type="curve" smooth="yes"/>
			<point x="532" y="301"/>
			<point x="480" y="355"/>
			<point x="333" y="406" type="curve" smooth="yes"/>
			<point x="331" y="407"/>
			<point x="322" y="410"/>
			<point x="322" y="410" type="curve"/>
			<point x="322" y="656" type="line"/>
			<point x="389" y="645"/>
			<point x="434" y="595"/>
			<point x="461" y="504" type="curve"/>
			<point x="517" y="512" type="line"/>
			<point x="495" y="714" type="line"/>
			<point x="448" y="714" type="line"/>
			<point x="435" y="662" type="line"/>
			<point x="406" y="687"/>
			<point x="365" y="705"/>
			<point x="322" y="711" type="curve"/>
			<point x="322" y="793" type="line"/>
			<point x="271" y="793" type="line"/>
			<point x="271" y="714" type="line"/>
			<point x="152" y="707"/>
			<point x="73" y="631"/>
			<point x="73" y="521" type="curve" smooth="yes"/>
			<point x="73" y="425"/>
			<point x="118" y="372"/>
			<point x="241" y="327" type="curve" smooth="yes"/>
			<point x="250" y="323"/>
			<point x="260" y="319"/>
			<point x="271" y="316" type="curve"/>
			<point x="271" y="53" type="line"/>
			<point x="196" y="65"/>
			<point x="140" y="120"/>
			<point x="105" y="215" type="curve"/>
			<point x="48" y="210" type="line"/>
			<point x="68" y="-6" type="line"/>
			<point x="112" y="-6" type="line"/>
			<point x="128" y="53" type="line"/>
			<point x="162" y="19"/>
			<point x="216" y="-4"/>
			<point x="271" y="-12" type="curve"/>
		</contour>
		<contour>
			<point x="322" y="51" type="curve"/>
			<point x="322" y="298" type="line"/>
			<point x="405" y="266"/>
			<point x="435" y="228"/>
			<point x="435" y="165" type="curve" smooth="yes"/>
			<point x="435" y="97"/>
			<point x="394" y="56"/>
		</contour>
		<contour>
			<point x="271" y="429" type="line"/>
			<point x="197" y="461"/>
			<point x="170" y="495"/>
			<point x="170" y="549" type="curve" smooth="yes"/>
			<point x="170" y="609"/>
			<point x="210" y="651"/>
			<point x="271" y="658" type="curve"/>
		</contour>
	</outline>
	<anchor name="bottom" x="294" y="-30"/>
	<anchor name="top" x="290" y="730"/>
</glyph>
<glyph name="ampersand" format="2">
	<unicode hex="0026"/>
	<advance width="810"/>
	<outline>
		<contour>
			<point x="289" y="-14" type="curve" smooth="yes"/>
			<point x="396" y="-14"/>
			<point x="464" y="37"/>
			<point x="498" y="95" type="curve"/>
			<point x="563" y="32"/>
			<point x="608" y="7"/>
			<point x="648" y="7" type="curve" smooth="yes"/>
			<point x="700" y="7"/>
			<point x="732" y="35"/>
			<point x="775" y="95" type="curve"/>
			<point x="755" y="129" type="line"/>
			<point x="712" y="97"/>
			<point x="693" y="92"/>
			<point x="678" y="92" type="curve" smooth="yes"/>
			<point x="646" y="92"/>
			<point x="613" y="110"/>
			<point x="534" y="188" type="curve"/>
			<point x="564" y="360"/>
			<point x="620" y="412"/>
			<point x="654" y="419" type="curve"/>
			<point x="673" y="370"/>
			<point x="685" y="357"/>
			<point x="712" y="357" type="curve" smooth="yes"/>
			<point x="743" y="357"/>
			<point x="761" y="386"/>
			<point x="761" y="418" type="curve" smooth="yes"/>
			<point x="761" y="460"/>
			<point x="726" y="487"/>
			<point x="684" y="487" type="curve" smooth="yes"/>
			<point x="615" y="487"/>
			<point x="538" y="443"/>
			<point x="491" y="231" type="curve"/>
			<point x="334" y="394" type="line"/>
			<point x="413" y="433"/>
			<point x="464" y="491"/>
			<point x="464" y="573" type="curve" smooth="yes"/>
			<point x="464" y="656"/>
			<point x="403" y="714"/>
			<point x="314" y="714" type="curve" smooth="yes"/>
			<point x="206" y="714"/>
			<point x="128" y="653"/>
			<point x="128" y="544" type="curve" smooth="yes"/>
			<point x="128" y="474"/>
			<point x="172" y="421"/>
			<point x="210" y="383" type="curve"/>
			<point x="126" y="348"/>
			<point x="54" y="289"/>
			<point x="54" y="181" type="curve" smooth="yes"/>
			<point x="54" y="58"/>
			<point x="154" y="-14"/>
		</contour>
		<contour>
			<point x="310" y="45" type="curve" smooth="yes"/>
			<point x="219" y="45"/>
			<point x="156" y="99"/>
			<point x="156" y="198" type="curve" smooth="yes"/>
			<point x="156" y="281"/>
			<point x="196" y="324"/>
			<point x="242" y="349" type="curve"/>
			<point x="456" y="133" type="line"/>
			<point x="430" y="80"/>
			<point x="380" y="45"/>
		</contour>
		<contour>
			<point x="300" y="426" type="curve"/>
			<point x="251" y="473"/>
			<point x="215" y="515"/>
			<point x="215" y="568" type="curve" smooth="yes"/>
			<point x="215" y="625"/>
			<point x="252" y="659"/>
			<point x="308" y="659" type="curve" smooth="yes"/>
			<point x="358" y="659"/>
			<point x="399" y="634"/>
			<point x="399" y="570" type="curve" smooth="yes"/>
			<point x="399" y="525"/>
			<point x="376" y="467"/>
		</contour>
	</outline>
</glyph>
<glyph name="parenleft" format="2">
	<unicode hex="0028"/>
	<advance width="332"/>
	<outline>
		<contour>
			<point x="265" y="-204" type="curve"/>
			<point x="302" y="-183" type="line"/>
			<point x="223" y="-33"/>
			<point x="168" y="132"/>
			<point x="168" y="317" type="curve" smooth="yes"/>
			<point x="168" y="486"/>
			<point x="226" y="665"/>
			<point x="306" y="797" type="curve"/>
			<point x="270" y="817" type="line"/>
			<point x="177" y="721"/>
			<point x="74" y="529"/>
			<point x="74" y="306" type="curve" smooth="yes"/>
			<point x="74" y="86"/>
			<point x="168" y="-102"/>
		</contour>
	</outline>
</glyph>
<glyph name="asterisk" format="2">
	<unicode hex="002A"/>
	<advance width="449"/>
	<outline>
		<contour>
			<point x="218" y="407" type="curve" smooth="yes"/>
			<point x="252" y="407"/>
			<point x="262" y="438"/>
			<point x="257" y="465" type="curve" smooth="yes"/>
			<point x="238" y="568" type="line"/>
			<point x="325" y="491" type="line" smooth="yes"/>
			<point x="344" y="474"/>
			<point x="369" y="467"/>
			<point x="382" y="493" type="curve" smooth="yes"/>
			<point x="398" y="522"/>
			<point x="379" y="546"/>
			<point x="352" y="556" type="curve" smooth="yes"/>
			<point x="252" y="594" type="line"/>
			<point x="362" y="633" type="line" smooth="yes"/>
			<point x="388" y="642"/>
			<point x="404" y="659"/>
			<point x="389" y="684" type="curve" smooth="yes"/>
			<point x="373" y="713"/>
			<point x="342" y="708"/>
			<point x="320" y="689" type="curve" smooth="yes"/>
			<point x="238" y="619" type="line"/>
			<point x="261" y="734" type="line" smooth="yes"/>
			<point x="267" y="762"/>
			<point x="256" y="782"/>
			<point x="230" y="782" type="curve" smooth="yes"/>
			<point x="196" y="782"/>
			<point x="184" y="755"/>
			<point x="190" y="724" type="curve" smooth="yes"/>
			<point x="209" y="620" type="line"/>
			<point x="122" y="697" type="line" smooth="yes"/>
			<point x="105" y="712"/>
			<point x="77" y="717"/>
			<point x="64" y="692" type="curve" smooth="yes"/>
			<point x="48" y="663"/>
			<point x="63" y="642"/>
			<point x="95" y="631" type="curve" smooth="yes"/>
			<point x="194" y="595" type="line"/>
			<point x="85" y="555" type="line" smooth="yes"/>
			<point x="64" y="548"/>
			<point x="44" y="530"/>
			<point x="61" y="501" type="curve" smooth="yes"/>
			<point x="77" y="472"/>
			<point x="109" y="481"/>
			<point x="127" y="499" type="curve" smooth="yes"/>
			<point x="208" y="569" type="line"/>
			<point x="186" y="456" type="line" smooth="yes"/>
			<point x="181" y="430"/>
			<point x="189" y="407"/>
		</contour>
	</outline>
</glyph>
<glyph name="zero" format="2">
	<unicode hex="0030"/>
	<advance width="578"/>
	<outline>
		<contour>
			<point x="287" y="-13" type="curve" smooth="yes"/>
			<point x="430" y="-13"/>
			<point x="545" y="117"/>
			<point x="545" y="363" type="curve" smooth="yes"/>
			<point x="545" y="602"/>
			<point x="430" y="714"/>
			<point x="296" y="714" type="curve" smooth="yes"/>
			<point x="165" y="714"/>
			<point x="33" y="617"/>
			<point x="33" y="339" type="curve" smooth="yes"/>
			<point x="33" y="138"/>
			<point x="122" y="-13"/>
		</contour>
		<contour>
			<point x="296" y="50" type="curve" smooth="yes"/>
			<point x="192" y="50"/>
			<point x="136" y="169"/>
			<point x="136" y="356" type="curve" smooth="yes"/>
			<point x="136" y="575"/>
			<point x="198" y="654"/>
			<point x="286" y="654" type="curve" smooth="yes"/>
			<point x="386" y="654"/>
			<point x="441" y="554"/>
			<point x="441" y="348" type="curve" smooth="yes"/>
			<point x="441" y="143"/>
			<point x="389" y="50"/>
		</contour>
	</outline>
</glyph>
<glyph name="one" format="2">
	<unicode hex="0031"/>
	<advance width="407"/>
	<outline>
		<contour>
			<point x="39" y="0" type="line"/>
			<point x="382" y="0" type="line"/>
			<point x="382" y="48" type="line"/>
			<point x="295" y="63" type="line" smooth="yes"/>
			<point x="266" y="68"/>
			<point x="261" y="78"/>
			<point x="261" y="109" type="curve"/>
			<point x="261" y="701" type="line"/>
			<point x="250" y="712" type="line"/>
			<point x="41" y="677" type="line"/>
			<point x="35" y="630" type="line"/>
			<point x="119" y="622" type="line" smooth="yes"/>
			<point x="162" y="618"/>
			<point x="162" y="602"/>
			<point x="162" y="563" type="curve" smooth="yes"/>
			<point x="162" y="112" type="line"/>
			<point x="162" y="82"/>
			<point x="157" y="68"/>
			<point x="129" y="63" type="curve" smooth="yes"/>
			<point x="39" y="48" type="line"/>
		</contour>
	</outline>
</glyph>
<glyph name="three" format="2">
	<unicode hex="0033"/>
	<advance width="542"/>
	<outline>
		<contour>
			<point x="251" y="-13" type="curve" smooth="yes"/>
			<point x="380" y="-13"/>
			<point x="487" y="67"/>
			<point x="487" y="194" type="curve" smooth="yes"/>
			<point x="487" y="303"/>
			<point x="413" y="350"/>
			<point x="326" y="368" type="curve"/>
			<point x="326" y="371" type="line"/>
			<point x="402" y="396"/>
			<point x="462" y="460"/>
			<point x="462" y="540" type="curve" smooth="yes"/>
			<point x="462" y="650"/>
			<point x="383" y="714"/>
			<point x="260" y="714" type="curve" smooth="yes"/>
			<point x="131" y="714"/>
			<point x="51" y="639"/>
			<point x="51" y="567" type="curve" smooth="yes"/>
			<point x="51" y="532"/>
			<point x="71" y="497"/>
			<point x="118" y="497" type="curve" smooth="yes"/>
			<point x="151" y="497"/>
			<point x="175" y="525"/>
			<point x="175" y="548" type="curve" smooth="yes"/>
			<point x="175" y="557"/>
			<point x="166" y="577"/>
			<point x="148" y="604" type="curve"/>
			<point x="162" y="628"/>
			<point x="203" y="648"/>
			<point x="249" y="648" type="curve" smooth="yes"/>
			<point x="323" y="648"/>
			<point x="364" y="601"/>
			<point x="364" y="538" type="curve" smooth="yes"/>
			<point x="364" y="466"/>
			<point x="314" y="398"/>
			<point x="209" y="387" type="curve"/>
			<point x="203" y="333" type="line"/>
			<point x="318" y="333"/>
			<point x="380" y="290"/>
			<point x="380" y="197" type="curve" smooth="yes"/>
			<point x="380" y="129"/>
			<point x="336" y="66"/>
			<point x="244" y="66" type="curve" smooth="yes"/>
			<point x="151" y="66"/>
			<point x="102" y="113"/>
			<point x="70" y="155" type="curve"/>
			<point x="25" y="119" type="line"/>
			<point x="48" y="73"/>
			<point x="106" y="-13"/>
		</contour>
	</outline>
</glyph>
<glyph name="four" format="2">
	<unicode hex="0034"/>
	<advance width="551"/>
	<outline>
		<contour>
			<point x="200" y="0" type="line"/>
			<point x="513" y="0" type="line"/>
			<point x="513" y="48" type="line"/>
			<point x="456" y="58" type="line" smooth="yes"/>
			<point x="427" y="63"/>
			<point x="422" y="75"/>
			<point x="422" y="105" type="curve" smooth="yes"/>
			<point x="422" y="171" type="line"/>
			<point x="531" y="171" type="line"/>
			<point x="531" y="239" type="line"/>
			<point x="422" y="239" type="line"/>
			<point x="422" y="701" type="line"/>
			<point x="411" y="710" type="line"/>
			<point x="323" y="695" type="line"/>
			<point x="10" y="221" type="line"/>
			<point x="19" y="171" type="line"/>
			<point x="323" y="171" type="line"/>
			<point x="323" y="108" type="line" smooth="yes"/>
			<point x="323" y="79"/>
			<point x="318" y="64"/>
			<point x="290" y="59" type="curve" smooth="yes"/>
			<point x="200" y="44" type="line"/>
		</contour>
		<contour>
			<point x="94" y="239" type="line"/>
			<point x="323" y="582" type="line"/>
			<point x="323" y="572" type="line"/>
			<point x="323" y="239" type="line"/>
		</contour>
	</outline>
</glyph>
<glyph name="six" format="2">
	<unicode hex="0036"/>
	<advance width="537"/>
	<outline>
		<contour>
			<point x="268" y="-13" type="curve" smooth="yes"/>
			<point x="403" y="-13"/>
			<point x="500" y="69"/>
			<point x="500" y="234" type="curve" smooth="yes"/>
			<point x="500" y="373"/>
			<point x="417" y="453"/>
			<point x="301" y="453" type="curve" smooth="yes"/>
			<point x="221" y="453"/>
			<point x="163" y="412"/>
			<point x="136" y="368" type="curve"/>
			<point x="144" y="487"/>
			<point x="190" y="651"/>
			<point x="328" y="651" type="curve" smooth="yes"/>
			<point x="364" y="651"/>
			<point x="393" y="644"/>
			<point x="406" y="631" type="curve"/>
			<point x="390" y="605"/>
			<point x="382" y="586"/>
			<point x="382" y="575" type="curve" smooth="yes"/>
			<point x="382" y="555"/>
			<point x="405" y="532"/>
			<point x="444" y="532" type="curve" smooth="yes"/>
			<point x="481" y="532"/>
			<point x="507" y="562"/>
			<point x="507" y="598" type="curve" smooth="yes"/>
			<point x="507" y="678"/>
			<point x="410" y="714"/>
			<point x="338" y="714" type="curve" smooth="yes"/>
			<point x="116" y="714"/>
			<point x="33" y="503"/>
			<point x="33" y="291" type="curve" smooth="yes"/>
			<point x="33" y="120"/>
			<point x="95" y="-13"/>
		</contour>
		<contour>
			<point x="271" y="41" type="curve" smooth="yes"/>
			<point x="166" y="41"/>
			<point x="135" y="125"/>
			<point x="135" y="241" type="curve" smooth="yes"/>
			<point x="135" y="340"/>
			<point x="206" y="385"/>
			<point x="275" y="385" type="curve" smooth="yes"/>
			<point x="352" y="385"/>
			<point x="402" y="338"/>
			<point x="402" y="223" type="curve" smooth="yes"/>
			<point x="402" y="91"/>
			<point x="350" y="41"/>
		</contour>
	</outline>
</glyph>
<glyph name="eight" format="2">
	<unicode hex="0038"/>
	<advance width="551"/>
	<outline>
		<contour>
			<point x="267" y="-13" type="curve" smooth="yes"/>
			<point x="394" y="-13"/>
			<point x="517" y="58"/>
			<point x="517" y="194" type="curve" smooth="yes"/>
			<point x="517" y="271"/>
			<point x="480" y="338"/>
			<point x="365" y="389" type="curve"/>
			<point x="432" y="423"/>
			<point x="486" y="478"/>
			<point x="486" y="563" type="curve" smooth="yes"/>
			<point x="486" y="649"/>
			<point x="410" y="714"/>
			<point x="273" y="714" type="curve" smooth="yes"/>
			<point x="125" y="714"/>
			<point x="56" y="621"/>
			<point x="56" y="539" type="curve" smooth="yes"/>
			<point x="56" y="465"/>
			<point x="86" y="417"/>
			<point x="188" y="366" type="curve"/>
			<point x="61" y="325"/>
			<point x="27" y="242"/>
			<point x="27" y="171" type="curve" smooth="yes"/>
			<point x="27" y="45"/>
			<point x="133" y="-13"/>
		</contour>
		<contour>
			<point x="276" y="45" type="curve" smooth="yes"/>
			<point x="184" y="45"/>
			<point x="126" y="96"/>
			<point x="126" y="180" type="curve" smooth="yes"/>
			<point x="126" y="241"/>
			<point x="159" y="300"/>
			<point x="236" y="339" type="curve"/>
			<point x="353" y="301"/>
			<point x="414" y="259"/>
			<point x="414" y="175" type="curve" smooth="yes"/>
			<point x="414" y="91"/>
			<point x="361" y="45"/>
		</contour>
		<contour>
			<point x="312" y="410" type="curve"/>
			<point x="183" y="462"/>
			<point x="148" y="501"/>
			<point x="148" y="558" type="curve" smooth="yes"/>
			<point x="148" y="626"/>
			<point x="203" y="659"/>
			<point x="269" y="659" type="curve" smooth="yes"/>
			<point x="334" y="659"/>
			<point x="394" y="622"/>
			<point x="394" y="549" type="curve" smooth="yes"/>
			<point x="394" y="494"/>
			<point x="360" y="442"/>
		</contour>
	</outline>
</glyph>
<glyph name="nine" format="2">
	<unicode hex="0039"/>
	<advance width="523"/>
	<outline>
		<contour>
			<point x="224" y="-14" type="curve" smooth="yes"/>
			<point x="409" y="-14"/>
			<point x="490" y="126"/>
			<point x="490" y="413" type="curve" smooth="yes"/>
			<point x="490" y="579"/>
			<point x="432" y="714"/>
			<point x="259" y="714" type="curve" smooth="yes"/>
			<point x="124" y="714"/>
			<point x="23" y="630"/>
			<point x="23" y="460" type="curve" smooth="yes"/>
			<point x="23" y="326"/>
			<point x="106" y="246"/>
			<point x="228" y="246" type="curve" smooth="yes"/>
			<point x="302" y="246"/>
			<point x="354" y="281"/>
			<point x="387" y="331" type="curve"/>
			<point x="378" y="182"/>
			<point x="337" y="62"/>
			<point x="220" y="62" type="curve" smooth="yes"/>
			<point x="154" y="62"/>
			<point x="106" y="82"/>
			<point x="63" y="119" type="curve"/>
			<point x="25" y="78" type="line"/>
			<point x="72" y="15"/>
			<point x="150" y="-14"/>
		</contour>
		<contour>
			<point x="249" y="319" type="curve" smooth="yes"/>
			<point x="171" y="319"/>
			<point x="123" y="362"/>
			<point x="123" y="477" type="curve" smooth="yes"/>
			<point x="123" y="606"/>
			<point x="172" y="660"/>
			<point x="255" y="660" type="curve" smooth="yes"/>
			<point x="354" y="660"/>
			<point x="388" y="574"/>
			<point x="388" y="482" type="curve" smooth="yes"/>
			<point x="388" y="356"/>
			<point x="317" y="319"/>
		</contour>
	</outline>
</glyph>
<glyph name="colon" format="2">
	<unicode hex="003A"/>
	<advance width="333"/>
	<outline>
		<contour>
			<point x="166" y="-17" type="curve" smooth="yes"/>
			<point x="211" y="-17"/>
			<point x="243" y="15"/>
			<point x="243" y="59" type="curve" smooth="yes"/>
			<point x="243" y="103"/>
			<point x="211" y="134"/>
			<point x="166" y="134" type="curve" smooth="yes"/>
			<point x="122" y="134"/>
			<point x="90" y="102"/>
			<point x="90" y="58" type="curve" smooth="yes"/>
			<point x="90" y="14"/>
			<point x="122" y="-17"/>
		</contour>
		<contour>
			<point x="166" y="370" type="curve" smooth="yes"/>
			<point x="211" y="370"/>
			<point x="243" y="402"/>
			<point x="243" y="446" type="curve" smooth="yes"/>
			<point x="243" y="490"/>
			<point x="211" y="521"/>
			<point x="166" y="521" type="curve" smooth="yes"/>
			<point x="122" y="521"/>
			<point x="90" y="489"/>
			<point x="90" y="445" type="curve" smooth="yes"/>
			<point x="90" y="401"/>
			<point x="122" y="370"/>
		</contour>
	</outline>
</glyph>
<glyph name="semicolon" format="2">
	<unicode hex="003B"/>
	<advance width="328"/>
	<outline>
		<contour>
			<point x="115" y="-168" type="line"/>
			<point x="203" y="-117"/>
			<point x="245" y="-28"/>
			<point x="245" y="31" type="curve" smooth="yes"/>
			<point x="245" y="83"/>
			<point x="219" y="129"/>
			<point x="160" y="129" type="curve" smooth="yes"/>
			<point x="116" y="129"/>
			<point x="87" y="97"/>
			<point x="87" y="55" type="curve" smooth="yes"/>
			<point x="87" y="21"/>
			<point x="106" y="0"/>
			<point x="149" y="0" type="curve" smooth="yes"/>
			<point x="173" y="0" type="line"/>
			<point x="169" y="-44"/>
			<point x="146" y="-85"/>
			<point x="86" y="-131" type="curve"/>
		</contour>
		<contour>
			<point x="159" y="370" type="curve" smooth="yes"/>
			<point x="204" y="370"/>
			<point x="236" y="402"/>
			<point x="236" y="446" type="curve" smooth="yes"/>
			<point x="236" y="490"/>
			<point x="204" y="521"/>
			<point x="159" y="521" type="curve" smooth="yes"/>
			<point x="115" y="521"/>
			<point x="83" y="489"/>
			<point x="83" y="445" type="curve" smooth="yes"/>
			<point x="83" y="401"/>
			<point x="115" y="370"/>
		</contour>
	</outline>
</glyph>
<glyph name="greater" format="2">
	<unicode hex="003E"/>
	<advance width="582"/>
	<outline>
		<contour>
			<point x="134" y="37" type="line"/>
			<point x="512" y="263" type="line"/>
			<point x="512" y="305" type="line"/>
			<point x="134" y="532" type="line"/>
			<point x="104" y="480" type="line"/>
			<point x="434" y="285" type="line"/>
			<point x="104" y="91" type="line"/>
		</contour>
	</outline>
</glyph>
<glyph name="question" format="2">
	<unicode hex="003F"/>
	<advance width="538"/>
	<outline>
		<contour>
			<point x="215" y="194" type="line"/>
			<point x="271" y="194" type="line"/>
			<point x="271" y="257" type="line" smooth="yes"/>
			<point x="271" y="283"/>
			<point x="284" y="301"/>
			<point x="358" y="377" type="curve" smooth="yes"/>
			<point x="405" y="424"/>
			<point x="453" y="479"/>
			<point x="453" y="551" type="curve" smooth="yes"/>
			<point x="453" y="650"/>
			<point x="378" y="714"/>
			<point x="262" y="714" type="curve" smooth="yes"/>
			<point x="160" y="714"/>
			<point x="65" y="650"/>
			<point x="65" y="572" type="curve" smooth="yes"/>
			<point x="65" y="539"/>
			<point x="81" y="512"/>
			<point x="124" y="512" type="curve" smooth="yes"/>
			<point x="157" y="512"/>
			<point x="184" y="537"/>
			<point x="184" y="560" type="curve" smooth="yes"/>
			<point x="184" y="574"/>
			<point x="165" y="604"/>
			<point x="152" y="622" type="curve"/>
			<point x="173" y="647"/>
			<point x="205" y="660"/>
			<point x="248" y="660" type="curve" smooth="yes"/>
			<point x="314" y="660"/>
			<point x="357" y="621"/>
			<point x="357" y="560" type="curve" smooth="yes"/>
			<point x="357" y="521"/>
			<point x="339" y="491"/>
			<point x="284" y="437" type="curve" smooth="yes"/>
			<point x="232" y="385"/>
			<point x="215" y="355"/>
			<point x="215" y="317" type="curve" smooth="yes"/>
		</contour>
		<contour>
			<point x="244" y="-14" type="curve" smooth="yes"/>
			<point x="285" y="-14"/>
			<point x="314" y="16"/>
			<point x="314" y="56" type="curve" smooth="yes"/>
			<point x="314" y="97"/>
			<point x="285" y="126"/>
			<point x="244" y="126" type="curve" smooth="yes"/>
			<point x="203" y="126"/>
			<point x="173" y="97"/>
			<point x="173" y="55" type="curve" smooth="yes"/>
			<point x="173" y="15"/>
			<point x="203" y="-14"/>
		</contour>
	</outline>
</glyph>
<glyph name="at" format="2">
	<unicode hex="0040"/>
	<advance width="849"/>
	<outline>
		<contour>
			<point x="410" y="-183" type="curve" smooth="yes"/>
			<point x="511" y="-183"/>
			<point x="593" y="-153"/>
			<point x="653" y="-95" type="curve"/>
			<point x="621" y="-56" type="line"/>
			<point x="568" y="-99"/>
			<point x="510" y="-128"/>
			<point x="414" y="-128" type="curve" smooth="yes"/>
			<point x="283" y="-128"/>
			<point x="119" y="-55"/>
			<point x="119" y="186" type="curve" smooth="yes"/>
			<point x="119" y="398"/>
			<point x="260" y="514"/>
			<point x="440" y="514" type="curve" smooth="yes"/>
			<point x="641" y="514"/>
			<point x="734" y="409"/>
			<point x="734" y="237" type="curve" smooth="yes"/>
			<point x="734" y="112"/>
			<point x="679" y="44"/>
			<point x="619" y="44" type="curve" smooth="yes"/>
			<point x="583" y="44"/>
			<point x="584" y="58"/>
			<point x="585" y="101" type="curve" smooth="yes"/>
			<point x="595" y="388" type="line"/>
			<point x="581" y="394" type="line"/>
			<point x="529" y="372" type="line"/>
			<point x="502" y="387"/>
			<point x="465" y="395"/>
			<point x="425" y="395" type="curve" smooth="yes"/>
			<point x="324" y="395"/>
			<point x="231" y="323"/>
			<point x="231" y="147" type="curve" smooth="yes"/>
			<point x="231" y="56"/>
			<point x="266" y="-11"/>
			<point x="364" y="-11" type="curve" smooth="yes"/>
			<point x="424" y="-11"/>
			<point x="473" y="39"/>
			<point x="501" y="137" type="curve" smooth="yes"/>
			<point x="522" y="210" type="line"/>
			<point x="526" y="210" type="line"/>
			<point x="520" y="83" type="line" smooth="yes"/>
			<point x="517" y="24"/>
			<point x="524" y="-11"/>
			<point x="594" y="-11" type="curve" smooth="yes"/>
			<point x="700" y="-11"/>
			<point x="795" y="67"/>
			<point x="795" y="244" type="curve" smooth="yes"/>
			<point x="795" y="461"/>
			<point x="655" y="568"/>
			<point x="440" y="568" type="curve" smooth="yes"/>
			<point x="196" y="568"/>
			<point x="54" y="401"/>
			<point x="54" y="184" type="curve" smooth="yes"/>
			<point x="54" y="-75"/>
			<point x="225" y="-183"/>
		</contour>
		<contour>
			<point x="373" y="52" type="curve" smooth="yes"/>
			<point x="326" y="52"/>
			<point x="311" y="92"/>
			<point x="311" y="153" type="curve" smooth="yes"/>
			<point x="311" y="249"/>
			<point x="346" y="347"/>
			<point x="435" y="347" type="curve" smooth="yes"/>
			<point x="463" y="347"/>
			<point x="495" y="340"/>
			<point x="517" y="330" type="curve"/>
			<point x="485" y="223" type="line" smooth="yes"/>
			<point x="448" y="101"/>
			<point x="416" y="52"/>
		</contour>
	</outline>
</glyph>
<glyph name="A" format="2">
	<unicode hex="0041"/>
	<advance width="735"/>
	<outline>
		<contour>
			<point x="15" y="0" type="line"/>
			<point x="257" y="0" type="line"/>
			<point x="257" y="47" type="line"/>
			<point x="200" y="56" type="line" smooth="yes"/>
			<point x="165" y="61"/>
			<point x="168" y="82"/>
			<point x="177" y="109" type="curve" smooth="yes"/>
			<point x="219" y="231" type="line"/>
			<point x="487" y="231" type="line"/>
			<point x="531" y="105" type="line" smooth="yes"/>
			<point x="543" y="71"/>
			<point x="537" y="59"/>
			<point x="511" y="55" type="curve" smooth="yes"/>
			<point x="453" y="48" type="line"/>
			<point x="453" y="0" type="line"/>
			<point x="720" y="0" type="line"/>
			<point x="720" y="50" type="line"/>
			<point x="679" y="59" type="line" smooth="yes"/>
			<point x="651" y="65"/>
			<point x="648" y="75"/>
			<point x="635" y="109" type="curve" smooth="yes"/>
			<point x="426" y="700" type="line"/>
			<point x="320" y="700" type="line"/>
			<point x="109" y="110" type="line" smooth="yes"/>
			<point x="94" y="68"/>
			<point x="87" y="61"/>
			<point x="63" y="56" type="curve" smooth="yes"/>
			<point x="15" y="48" type="line"/>
		</contour>
		<contour>
			<point x="239" y="288" type="line"/>
			<point x="353" y="617" type="line"/>
			<point x="357" y="617" type="line"/>
			<point x="468" y="288" type="line"/>
		</contour>
	</outline>
	<anchor name="bottom" x="357" y="-30"/>
	<anchor name="top" x="373" y="730"/>
</glyph>
<glyph name="B" format="2">
	<unicode hex="0042"/>
	<advance width="660"/>
	<outline>
		<contour>
			<point x="62" y="0" type="line"/>
			<point x="323" y="0" type="line" smooth="yes"/>
			<point x="510" y="0"/>
			<point x="616" y="72"/>
			<point x="616" y="199" type="curve" smooth="yes"/>
			<point x="616" y="300"/>
			<point x="552" y="359"/>
			<point x="431" y="370" type="curve"/>
			<point x="431" y="375" type="line"/>
			<point x="516" y="395"/>
			<point x="576" y="460"/>
			<point x="576" y="534" type="curve" smooth="yes"/>
			<point x="576" y="647"/>
			<point x="494" y="700"/>
			<point x="317" y="700" type="curve" smooth="yes"/>
			<point x="62" y="700" type="line"/>
			<point x="62" y="652" type="line"/>
			<point x="118" y="643" type="line" smooth="yes"/>
			<point x="145" y="639"/>
			<point x="151" y="629"/>
			<point x="151" y="596" type="curve" smooth="yes"/>
			<point x="151" y="108" type="line" smooth="yes"/>
			<point x="151" y="71"/>
			<point x="145" y="61"/>
			<point x="120" y="57" type="curve" smooth="yes"/>
			<point x="62" y="48" type="line"/>
		</contour>
		<contour>
			<point x="321" y="55" type="curve" smooth="yes"/>
			<point x="292" y="55"/>
			<point x="264" y="57"/>
			<point x="250" y="60" type="curve"/>
			<point x="250" y="333" type="line"/>
			<point x="269" y="336"/>
			<point x="290" y="337"/>
			<point x="325" y="337" type="curve" smooth="yes"/>
			<point x="446" y="337"/>
			<point x="509" y="291"/>
			<point x="509" y="202" type="curve" smooth="yes"/>
			<point x="509" y="106"/>
			<point x="444" y="55"/>
		</contour>
		<contour>
			<point x="305" y="389" type="curve" smooth="yes"/>
			<point x="279" y="389"/>
			<point x="263" y="389"/>
			<point x="250" y="391" type="curve"/>
			<point x="250" y="646" type="line"/>
			<point x="308" y="646" type="line" smooth="yes"/>
			<point x="423" y="646"/>
			<point x="469" y="613"/>
			<point x="469" y="530" type="curve" smooth="yes"/>
			<point x="469" y="441"/>
			<point x="409" y="389"/>
		</contour>
	</outline>
</glyph>
<glyph name="E" format="2">
	<unicode hex="0045"/>
	<advance width="637"/>
	<outline>
		<contour>
			<point x="62" y="0" type="line"/>
			<point x="560" y="0" type="line"/>
			<point x="584" y="184" type="line"/>
			<point x="529" y="184" type="line"/>
			<point x="501" y="76"/>
			<point x="475" y="54"/>
			<point x="379" y="54" type="curve" smooth="yes"/>
			<point x="250" y="54" type="line"/>
			<point x="250" y="325" type="line"/>
			<point x="337" y="325" type="line" smooth="yes"/>
			<point x="409" y="325"/>
			<point x="418" y="317"/>
			<point x="430" y="240" type="curve"/>
			<point x="476" y="248" type="line"/>
			<point x="476" y="475" type="line"/>
			<point x="430" y="469" type="line"/>
			<point x="412" y="391"/>
			<point x="408" y="387"/>
			<point x="337" y="387" type="curve" smooth="yes"/>
			<point x="250" y="387" type="line"/>
			<point x="250" y="646" type="line"/>
			<point x="347" y="646" type="line" smooth="yes"/>
			<point x="444" y="646"/>
			<point x="470" y="626"/>
			<point x="510" y="520" type="curve"/>
			<point x="562" y="537" type="line"/>
			<point x="525" y="700" type="line"/>
			<point x="62" y="700" type="line"/>
			<point x="62" y="652" type="line"/>
			<point x="118" y="643" type="line" smooth="yes"/>
			<point x="145" y="639"/>
			<point x="151" y="630"/>
			<point x="151" y="596" type="curve" smooth="yes"/>
			<point x="151" y="108" type="line" smooth="yes"/>
			<point x="151" y="71"/>
			<point x="145" y="61"/>
			<point x="120" y="57" type="curve" smooth="yes"/>
			<point x="62" y="48" type="line"/>
		</contour>
	</outline>
	<anchor name="bottom" x="328" y="-30"/>
	<anchor name="top" x="321" y="730"/>
</glyph>
<glyph name="F" format="2">
	<unicode hex="0046"/>
	<advance width="615"/>
	<outline>
		<contour>
			<point x="62" y="0" type="line"/>
			<point x="357" y="0" type="line"/>
			<point x="357" y="48" type="line"/>
			<point x="287" y="56" type="line" smooth="yes"/>
			<point x="258" y="59"/>
			<point x="250" y="71"/>
			<point x="250" y="106" type="curve" smooth="yes"/>
			<point x="250" y="305" type="line"/>
			<point x="337" y="305" type="line" smooth="yes"/>
			<point x="409" y="305"/>
			<point x="416" y="297"/>
			<point x="430" y="200" type="curve"/>
			<point x="476" y="208" type="line"/>
			<point x="476" y="455" type="line"/>
			<point x="430" y="449" type="line"/>
			<point x="414" y="370"/>
			<point x="411" y="367"/>
			<point x="337" y="367" type="curve" smooth="yes"/>
			<point x="250" y="367" type="line"/>
			<point x="250" y="646" type="line"/>
			<point x="354" y="646" type="line" smooth="yes"/>
			<point x="449" y="646"/>
			<point x="475" y="624"/>
			<point x="520" y="503" type="curve"/>
			<point x="572" y="521" type="line"/>
			<point x="536" y="700" type="line"/>
			<point x="62" y="700" type="line"/>
			<point x="62" y="652" type="line"/>
			<point x="118" y="643" type="line" smooth="yes"/>
			<point x="145" y="639"/>
			<point x="151" y="630"/>
			<point x="151" y="596" type="curve" smooth="yes"/>
			<point x="151" y="108" type="line" smooth="yes"/>
			<point x="151" y="71"/>
			<point x="145" y="61"/>
			<point x="120" y="57" type="curve" smooth="yes"/>
			<point x="62" y="48" type="line"/>
		</contour>
	</outline>
</glyph>
<glyph name="K" format="2">
	<unicode hex="004B"/>
	<advance width="754"/>
	<outline>
		<contour>
			<point x="632" y="-14" type="curve" smooth="yes"/>
			<point x="672" y="-14"/>
			<point x="711" y="1"/>
			<point x="735" y="26" type="curve"/>
			<point x="725" y="62" type="line"/>
			<point x="704" y="55"/>
			<point x="692" y="53"/>
			<point x="680" y="53" type="curve" smooth="yes"/>
			<point x="625" y="53"/>
			<point x="601" y="70"/>
			<point x="558" y="136" type="curve" smooth="yes"/>
			<point x="383" y="401" type="line"/>
			<point x="577" y="596" type="line" smooth="yes"/>
			<point x="611" y="630"/>
			<point x="622" y="637"/>
			<point x="645" y="642" type="curve" smooth="yes"/>
			<point x="683" y="650" type="line"/>
			<point x="683" y="700" type="line"/>
			<point x="446" y="700" type="line"/>
			<point x="436" y="651" type="line"/>
			<point x="484" y="643" type="line" smooth="yes"/>
			<point x="513" y="638"/>
			<point x="519" y="615"/>
			<point x="497" y="593" type="curve" smooth="yes"/>
			<point x="254" y="350" type="line"/>
			<point x="254" y="592" type="line" smooth="yes"/>
			<point x="254" y="633"/>
			<point x="263" y="640"/>
			<point x="284" y="643" type="curve" smooth="yes"/>
			<point x="347" y="652" type="line"/>
			<point x="347" y="700" type="line"/>
			<point x="62" y="700" type="line"/>
			<point x="62" y="652" type="line"/>
			<point x="122" y="643" type="line" smooth="yes"/>
			<point x="149" y="639"/>
			<point x="155" y="630"/>
			<point x="155" y="596" type="curve" smooth="yes"/>
			<point x="155" y="108" type="line" smooth="yes"/>
			<point x="155" y="71"/>
			<point x="149" y="61"/>
			<point x="124" y="57" type="curve" smooth="yes"/>
			<point x="62" y="48" type="line"/>
			<point x="62" y="0" type="line"/>
			<point x="347" y="0" type="line"/>
			<point x="347" y="48" type="line"/>
			<point x="286" y="57" type="line" smooth="yes"/>
			<point x="260" y="61"/>
			<point x="254" y="70"/>
			<point x="254" y="104" type="curve" smooth="yes"/>
			<point x="254" y="275" type="line"/>
			<point x="314" y="336" type="line"/>
			<point x="471" y="85" type="line" smooth="yes"/>
			<point x="513" y="17"/>
			<point x="556" y="-14"/>
		</contour>
	</outline>
	<anchor name="bottom" x="393" y="-30"/>
	<anchor name="top" x="392" y="730"/>
</glyph>
<glyph name="M" format="2">
	<unicode hex="004D"/>
	<advance width="1003"/>
	<outline>
		<contour>
			<point x="66" y="0" type="line"/>
			<point x="312" y="0" type="line"/>
			<point x="312" y="48" type="line"/>
			<point x="256" y="57" type="line" smooth="yes"/>
			<point x="222" y="62"/>
			<point x="223" y="78"/>
			<point x="224" y="104" type="curve" smooth="yes"/>
			<point x="254" y="615" type="line"/>
			<point x="254" y="623" type="line"/>
			<point x="434" y="113" type="line"/>
			<point x="534" y="113" type="line"/>
			<point x="721" y="622" type="line"/>
			<point x="721" y="614" type="line"/>
			<point x="750" y="108" type="line" smooth="yes"/>
			<point x="752" y="71"/>
			<point x="745" y="61"/>
			<point x="720" y="57" type="curve" smooth="yes"/>
			<point x="658" y="48" type="line"/>
			<point x="658" y="0" type="line"/>
			<point x="943" y="0" type="line"/>
			<point x="943" y="48" type="line"/>
			<point x="882" y="57" type="line" smooth="yes"/>
			<point x="858" y="60"/>
			<point x="850" y="69"/>
			<point x="849" y="104" type="curve" smooth="yes"/>
			<point x="821" y="592" type="line" smooth="yes"/>
			<point x="819" y="630"/>
			<point x="826" y="640"/>
			<point x="850" y="643" type="curve" smooth="yes"/>
			<point x="913" y="652" type="line"/>
			<point x="913" y="700" type="line"/>
			<point x="682" y="700" type="line"/>
			<point x="503" y="203" type="line"/>
			<point x="499" y="193" type="line"/>
			<point x="328" y="700" type="line"/>
			<point x="96" y="700" type="line"/>
			<point x="96" y="652" type="line"/>
			<point x="152" y="643" type="line" smooth="yes"/>
			<point x="178" y="639"/>
			<point x="185" y="629"/>
			<point x="183" y="596" type="curve" smooth="yes"/>
			<point x="154" y="108" type="line" smooth="yes"/>
			<point x="152" y="77"/>
			<point x="151" y="61"/>
			<point x="123" y="57" type="curve" smooth="yes"/>
			<point x="66" y="48" type="line"/>
		</contour>
	</outline>
	<anchor name="bottom" x="490" y="-30"/>
</glyph>
<glyph name="N" format="2">
	<unicode hex="004E"/>
	<advance width="835"/>
	<outline>
		<contour>
			<point x="62" y="0" type="line"/>
			<point x="308" y="0" type="line"/>
			<point x="308" y="48" type="line"/>
			<point x="252" y="57" type="line" smooth="yes"/>
			<point x="226" y="61"/>
			<point x="220" y="71"/>
			<point x="220" y="104" type="curve" smooth="yes"/>
			<point x="220" y="601" type="line"/>
			<point x="220" y="609" type="line"/>
			<point x="582" y="0" type="line"/>
			<point x="685" y="0" type="line"/>
			<point x="685" y="592" type="line" smooth="yes"/>
			<point x="685" y="629"/>
			<point x="691" y="639"/>
			<point x="716" y="643" type="curve" smooth="yes"/>
			<point x="773" y="652" type="line"/>
			<point x="773" y="700" type="line"/>
			<point x="528" y="700" type="line"/>
			<point x="528" y="652" type="line"/>
			<point x="583" y="643" type="line" smooth="yes"/>
			<point x="610" y="639"/>
			<point x="616" y="629"/>
			<point x="616" y="596" type="curve" smooth="yes"/>
			<point x="616" y="137" type="line"/>
			<point x="616" y="129" type="line"/>
			<point x="284" y="700" type="line"/>
			<point x="62" y="700" type="line"/>
			<point x="62" y="652" type="line"/>
			<point x="118" y="643" type="line" smooth="yes"/>
			<point x="144" y="639"/>
			<point x="150" y="629"/>
			<point x="150" y="596" type="curve" smooth="yes"/>
			<point x="150" y="108" type="line" smooth="yes"/>
			<point x="150" y="72"/>
			<point x="144" y="61"/>
			<point x="120" y="57" type="curve" smooth="yes"/>
			<point x="62" y="48" type="line"/>
		</contour>
	</outline>
	<anchor name="bottom" x="410" y="-30"/>
	<anchor name="top" x="412" y="730"/>
</glyph>
<glyph name="O" format="2">
	<unicode hex="004F"/>
	<advance width="760"/>
	<outline>
		<contour>
			<point x="378" y="-14" type="curve" smooth="yes"/>
			<point x="576" y="-14"/>
			<point x="710" y="140"/>
			<point x="710" y="368" type="curve" smooth="yes"/>
			<point x="710" y="576"/>
			<point x="581" y="714"/>
			<point x="387" y="714" type="curve" smooth="yes"/>
			<point x="181" y="714"/>
			<point x="50" y="567"/>
			<point x="50" y="336" type="curve" smooth="yes"/>
			<point x="50" y="126"/>
			<point x="181" y="-14"/>
		</contour>
		<contour>
			<point x="390" y="53" type="curve" smooth="yes"/>
			<point x="246" y="53"/>
			<point x="156" y="170"/>
			<point x="156" y="357" type="curve" smooth="yes"/>
			<point x="156" y="544"/>
			<point x="235" y="650"/>
			<point x="374" y="650" type="curve" smooth="yes"/>
			<point x="517" y="650"/>
			<point x="601" y="538"/>
			<point x="601" y="349" type="curve" smooth="yes"/>
			<point x="601" y="156"/>
			<point x="528" y="53"/>
		</contour>
	</outline>
	<anchor name="bottom" x="376" y="-30"/>
	<anchor name="top" x="382" y="730"/>
</glyph>
<glyph name="R" format="2">
	<unicode hex="0052"/>
	<advance width="725"/>
	<outline>
		<contour>
			<point x="597" y="-14" type="curve" smooth="yes"/>
			<point x="637" y="-14"/>
			<point x="670" y="-1"/>
			<point x="698" y="26" type="curve"/>
			<point x="688" y="62" type="line"/>
			<point x="667" y="55"/>
			<point x="655" y="53"/>
			<point x="643" y="53" type="curve" smooth="yes"/>
			<point x="588" y="53"/>
			<point x="573" y="94"/>
			<point x="544" y="162" type="curve" smooth="yes"/>
			<point x="509" y="244" type="line" smooth="yes"/>
			<point x="486" y="298"/>
			<point x="459" y="320"/>
			<point x="408" y="335" type="curve"/>
			<point x="408" y="338" type="line"/>
			<point x="507" y="356"/>
			<point x="582" y="435"/>
			<point x="582" y="521" type="curve" smooth="yes"/>
			<point x="582" y="638"/>
			<point x="489" y="700"/>
			<point x="313" y="700" type="curve" smooth="yes"/>
			<point x="62" y="700" type="line"/>
			<point x="62" y="652" type="line"/>
			<point x="118" y="643" type="line" smooth="yes"/>
			<point x="145" y="639"/>
			<point x="151" y="629"/>
			<point x="151" y="596" type="curve" smooth="yes"/>
			<point x="151" y="108" type="line" smooth="yes"/>
			<point x="151" y="71"/>
			<point x="145" y="61"/>
			<point x="120" y="57" type="curve" smooth="yes"/>
			<point x="62" y="48" type="line"/>
			<point x="62" y="0" type="line"/>
			<point x="357" y="0" type="line"/>
			<point x="357" y="48" type="line"/>
			<point x="287" y="56" type="line" smooth="yes"/>
			<point x="258" y="59"/>
			<point x="250" y="71"/>
			<point x="250" y="106" type="curve" smooth="yes"/>
			<point x="250" y="318" type="line"/>
			<point x="263" y="320"/>
			<point x="277" y="321"/>
			<point x="295" y="321" type="curve" smooth="yes"/>
			<point x="361" y="321"/>
			<point x="374" y="295"/>
			<point x="402" y="229" type="curve" smooth="yes"/>
			<point x="450" y="114" type="line" smooth="yes"/>
			<point x="491" y="16"/>
			<point x="525" y="-14"/>
		</contour>
		<contour>
			<point x="306" y="369" type="curve" smooth="yes"/>
			<point x="292" y="369"/>
			<point x="275" y="370"/>
			<point x="250" y="371" type="curve"/>
			<point x="250" y="646" type="line"/>
			<point x="306" y="646" type="line" smooth="yes"/>
			<point x="423" y="646"/>
			<point x="475" y="606"/>
			<point x="475" y="515" type="curve" smooth="yes"/>
			<point x="475" y="422"/>
			<point x="413" y="369"/>
		</contour>
	</outline>
	<anchor name="bottom" x="368" y="-30"/>
	<anchor name="top" x="320" y="730"/>
</glyph>
<glyph name="T" format="2">
	<unicode hex="0054"/>
	<advance width="738"/>
	<outline>
		<contour>
			<point x="207" y="0" type="line"/>
			<point x="532" y="0" type="line"/>
			<point x="532" y="48" type="line"/>
			<point x="453" y="60" type="line" smooth="yes"/>
			<point x="425" y="64"/>
			<point x="419" y="74"/>
			<point x="419" y="106" type="curve" smooth="yes"/>
			<point x="419" y="645" type="line"/>
			<point x="475" y="645" type="line" smooth="yes"/>
			<point x="572" y="645"/>
			<point x="598" y="620"/>
			<point x="641" y="487" type="curve"/>
			<point x="696" y="500" type="line"/>
			<point x="659" y="700" type="line"/>
			<point x="81" y="700" type="line"/>
			<point x="42" y="500" type="line"/>
			<point x="96" y="487" type="line"/>
			<point x="140" y="620"/>
			<point x="167" y="645"/>
			<point x="265" y="645" type="curve" smooth="yes"/>
			<point x="320" y="645" type="line"/>
			<point x="320" y="110" type="line" smooth="yes"/>
			<point x="320" y="76"/>
			<point x="312" y="64"/>
			<point x="287" y="60" type="curve" smooth="yes"/>
			<point x="207" y="48" type="line"/>
		</contour>
	</outline>
	<anchor name="bottom" x="369" y="-30"/>
	<anchor name="top" x="369" y="730"/>
</glyph>
<glyph name="U" format="2">
	<unicode hex="0055"/>
	<advance width="810"/>
	<outline>
		<contour>
			<point x="404" y="-14" type="curve" smooth="yes"/>
			<point x="586" y="-14"/>
			<point x="677" y="88"/>
			<point x="677" y="291" type="curve" smooth="yes"/>
			<point x="677" y="592" type="line" smooth="yes"/>
			<point x="677" y="629"/>
			<point x="683" y="639"/>
			<point x="708" y="643" type="curve" smooth="yes"/>
			<point x="765" y="652" type="line"/>
			<point x="765" y="700" type="line"/>
			<point x="519" y="700" type="line"/>
			<point x="519" y="652" type="line"/>
			<point x="574" y="643" type="line" smooth="yes"/>
			<point x="601" y="639"/>
			<point x="607" y="629"/>
			<point x="607" y="596" type="curve" smooth="yes"/>
			<point x="607" y="279" type="line" smooth="yes"/>
			<point x="607" y="127"/>
			<point x="547" y="56"/>
			<point x="418" y="56" type="curve" smooth="yes"/>
			<point x="289" y="56"/>
			<point x="237" y="119"/>
			<point x="237" y="272" type="curve" smooth="yes"/>
			<point x="237" y="592" type="line" smooth="yes"/>
			<point x="237" y="628"/>
			<point x="243" y="639"/>
			<point x="267" y="643" type="curve" smooth="yes"/>
			<point x="325" y="652" type="line"/>
			<point x="325" y="700" type="line"/>
			<point x="49" y="700" type="line"/>
			<point x="49" y="652" type="line"/>
			<point x="105" y="643" type="line" smooth="yes"/>
			<point x="132" y="639"/>
			<point x="138" y="629"/>
			<point x="138" y="596" type="curve" smooth="yes"/>
			<point x="138" y="265" type="line" smooth="yes"/>
			<point x="138" y="76"/>
			<point x="224" y="-14"/>
		</contour>
	</outline>
	<anchor name="bottom" x="399" y="-30"/>
	<anchor name="top" x="416" y="730"/>
</glyph>
<glyph name="W" format="2">
	<unicode hex="0057"/>
	<advance width="1092"/>
	<outline>
		<contour>
			<point x="259" y="0" type="line"/>
			<point x="379" y="0" type="line"/>
			<point x="535" y="601" type="line"/>
			<point x="538" y="601" type="line"/>
			<point x="712" y="0" type="line"/>
			<point x="825" y="0" type="line"/>
			<point x="976" y="590" type="line" smooth="yes"/>
			<point x="986" y="628"/>
			<point x="996" y="639"/>
			<point x="1023" y="644" type="curve" smooth="yes"/>
			<point x="1070" y="652" type="line"/>
			<point x="1070" y="700" type="line"/>
			<point x="833" y="700" type="line"/>
			<point x="833" y="653" type="line"/>
			<point x="882" y="642" type="line" smooth="yes"/>
			<point x="909" y="636"/>
			<point x="914" y="624"/>
			<point x="906" y="589" type="curve" smooth="yes"/>
			<point x="788" y="91" type="line"/>
			<point x="783" y="91" type="line"/>
			<point x="604" y="700" type="line"/>
			<point x="495" y="700" type="line"/>
			<point x="334" y="86" type="line"/>
			<point x="329" y="86" type="line"/>
			<point x="212" y="595" type="line" smooth="yes"/>
			<point x="204" y="631"/>
			<point x="208" y="641"/>
			<point x="235" y="645" type="curve" smooth="yes"/>
			<point x="286" y="652" type="line"/>
			<point x="286" y="700" type="line"/>
			<point x="22" y="700" type="line"/>
			<point x="22" y="649" type="line"/>
			<point x="62" y="641" type="line" smooth="yes"/>
			<point x="94" y="635"/>
			<point x="99" y="621"/>
			<point x="107" y="591" type="curve" smooth="yes"/>
		</contour>
	</outline>
	<anchor name="top" x="548" y="730"/>
</glyph>
<glyph name="X" format="2">
	<unicode hex="0058"/>
	<advance width="707"/>
	<outline>
		<contour>
			<point x="15" y="0" type="line"/>
			<point x="248" y="0" type="line"/>
			<point x="248" y="49" type="line"/>
			<point x="204" y="59" type="line" smooth="yes"/>
			<point x="178" y="65"/>
			<point x="177" y="73"/>
			<point x="196" y="99" type="curve" smooth="yes"/>
			<point x="336" y="289" type="line"/>
			<point x="477" y="100" type="line" smooth="yes"/>
			<point x="499" y="70"/>
			<point x="491" y="59"/>
			<point x="468" y="56" type="curve" smooth="yes"/>
			<point x="423" y="50" type="line"/>
			<point x="423" y="0" type="line"/>
			<point x="692" y="0" type="line"/>
			<point x="692" y="52" type="line"/>
			<point x="654" y="58" type="line" smooth="yes"/>
			<point x="628" y="62"/>
			<point x="611" y="75"/>
			<point x="586" y="108" type="curve" smooth="yes"/>
			<point x="396" y="364" type="line"/>
			<point x="566" y="596" type="line" smooth="yes"/>
			<point x="595" y="636"/>
			<point x="608" y="637"/>
			<point x="628" y="642" type="curve" smooth="yes"/>
			<point x="666" y="650" type="line"/>
			<point x="666" y="700" type="line"/>
			<point x="451" y="700" type="line"/>
			<point x="441" y="651" type="line"/>
			<point x="479" y="641" type="line" smooth="yes"/>
			<point x="509" y="633"/>
			<point x="509" y="625"/>
			<point x="488" y="596" type="curve" smooth="yes"/>
			<point x="359" y="415" type="line"/>
			<point x="222" y="600" type="line" smooth="yes"/>
			<point x="200" y="630"/>
			<point x="207" y="640"/>
			<point x="229" y="644" type="curve" smooth="yes"/>
			<point x="269" y="651" type="line"/>
			<point x="269" y="700" type="line"/>
			<point x="25" y="700" type="line"/>
			<point x="15" y="648" type="line"/>
			<point x="50" y="640" type="line" smooth="yes"/>
			<point x="77" y="634"/>
			<point x="87" y="624"/>
			<point x="111" y="592" type="curve" smooth="yes"/>
			<point x="298" y="340" type="line"/>
			<point x="113" y="102" type="line" smooth="yes"/>
			<point x="85" y="66"/>
			<point x="75" y="63"/>
			<point x="53" y="58" type="curve" smooth="yes"/>
			<point x="15" y="50" type="line"/>
		</contour>
	</outline>
</glyph>
<glyph name="Z" format="2">
	<unicode hex="005A"/>
	<advance width="657"/>
	<outline>
		<contour>
			<point x="58" y="0" type="line"/>
			<point x="578" y="0" type="line"/>
			<point x="597" y="199" type="line"/>
			<point x="542" y="199" type="line"/>
			<point x="502" y="84"/>
			<point x="471" y="55"/>
			<point x="389" y="55" type="curve" smooth="yes"/>
			<point x="178" y="55" type="line"/>
			<point x="588" y="650" type="line"/>
			<point x="588" y="700" type="line"/>
			<point x="79" y="700" type="line"/>
			<point x="67" y="509" type="line"/>
			<point x="126" y="514" type="line"/>
			<point x="161" y="624"/>
			<point x="183" y="647"/>
			<point x="256" y="647" type="curve" smooth="yes"/>
			<point x="470" y="647" type="line"/>
			<point x="58" y="48" type="line"/>
		</contour>
	</outline>
	<anchor name="bottom" x="321" y="-30"/>
	<anchor name="top" x="325" y="730"/>
</glyph>
<glyph name="bracketright" format="2">
	<unicode hex="005D"/>
	<advance width="333"/>
	<outline>
		<contour>
			<point x="44" y="-212" type="line"/>
			<point x="228" y="-212" type="line"/>
			<point x="228" y="812" type="line"/>
			<point x="44" y="812" type="line"/>
			<point x="40" y="763" type="line"/>
			<point x="117" y="757" type="line" smooth="yes"/>
			<point x="141" y="755"/>
			<point x="145" y="748"/>
			<point x="145" y="711" type="curve" smooth="yes"/>
			<point x="145" y="-111" type="line" smooth="yes"/>
			<point x="145" y="-148"/>
			<point x="141" y="-155"/>
			<point x="117" y="-157" type="curve" smooth="yes"/>
			<point x="40" y="-163" type="line"/>
		</contour>
	</outline>
</glyph>
<glyph name="asciicircum" format="2">
	<unicode hex="005E"/>
	<advance width="582"/>
	<outline>
		<contour>
			<point x="97" y="344" type="line"/>
			<point x="291" y="635" type="line"/>
			<point x="485" y="344" type="line"/>
			<point x="534" y="374" type="line"/>
			<point x="312" y="712" type="line"/>
			<point x="270" y="712" type="line"/>
			<point x="48" y="374" type="line"/>
		</contour>
	</outline>
</glyph>
<glyph name="grave" format="2">
	<unicode hex="0060"/>
	<advance width="500"/>
	<outline>
		<contour>
			<point x="305" y="580" type="line"/>
			<point x="329" y="605" type="line"/>
			<point x="225" y="743" type="line"/>
			<point x="209" y="763"/>
			<point x="200" y="772"/>
			<point x="186" y="772" type="curve" smooth="yes"/>
			<point x="157" y="772"/>
			<point x="138" y="746"/>
			<point x="138" y="721" type="curve" smooth="yes"/>
			<point x="138" y="699"/>
			<point x="151" y="683"/>
			<point x="173" y="668" type="curve" smooth="yes"/>
		</contour>
	</outline>
	<anchor name="_top" x="250" y="550"/>
</glyph>
<glyph name="b" format="2">
	<unicode hex="0062"/>
	<advance width="607"/>
	<outline>
		<contour>
			<point x="130" y="-14" type="line"/>
			<point x="177" y="31" type="line"/>
			<point x="219" y="1"/>
			<point x="269" y="-14"/>
			<point x="328" y="-14" type="curve" smooth="yes"/>
			<point x="476" y="-14"/>
			<point x="561" y="90"/>
			<point x="561" y="271" type="curve" smooth="yes"/>
			<point x="561" y="428"/>
			<point x="489" y="521"/>
			<point x="368" y="521" type="curve" smooth="yes"/>
			<point x="293" y="521"/>
			<point x="243" y="493"/>
			<point x="197" y="427" type="curve"/>
			<point x="197" y="434" type="line"/>
			<point x="197" y="755" type="line"/>
			<point x="186" y="766" type="line"/>
			<point x="23" y="761" type="line"/>
			<point x="17" y="711" type="line"/>
			<point x="61" y="704" type="line" smooth="yes"/>
			<point x="98" y="698"/>
			<point x="104" y="690"/>
			<point x="104" y="644" type="curve" smooth="yes"/>
			<point x="104" y="-6" type="line"/>
		</contour>
		<contour>
			<point x="321" y="49" type="curve" smooth="yes"/>
			<point x="274" y="49"/>
			<point x="227" y="67"/>
			<point x="197" y="96" type="curve"/>
			<point x="197" y="303" type="line" smooth="yes"/>
			<point x="197" y="395"/>
			<point x="249" y="449"/>
			<point x="336" y="449" type="curve" smooth="yes"/>
			<point x="418" y="449"/>
			<point x="460" y="384"/>
			<point x="460" y="257" type="curve" smooth="yes"/>
			<point x="460" y="126"/>
			<point x="409" y="49"/>
		</contour>
	</outline>
</glyph>
<glyph name="c" format="2">
	<unicode hex="0063"/>
	<advance width="499"/>
	<outline>
		<contour>
			<point x="282" y="-14" type="curve" smooth="yes"/>
			<point x="356" y="-14"/>
			<point x="427" y="22"/>
			<point x="470" y="80" type="curve"/>
			<point x="436" y="115" type="line"/>
			<point x="402" y="81"/>
			<point x="357" y="63"/>
			<point x="307" y="63" type="curve" smooth="yes"/>
			<point x="208" y="63"/>
			<point x="147" y="141"/>
			<point x="147" y="268" type="curve" smooth="yes"/>
			<point x="147" y="384"/>
			<point x="203" y="465"/>
			<point x="282" y="465" type="curve" smooth="yes"/>
			<point x="323" y="465"/>
			<point x="346" y="459"/>
			<point x="372" y="441" type="curve"/>
			<point x="351" y="406"/>
			<point x="344" y="389"/>
			<point x="344" y="373" type="curve" smooth="yes"/>
			<point x="344" y="343"/>
			<point x="366" y="325"/>
			<point x="403" y="325" type="curve" smooth="yes"/>
			<point x="443" y="325"/>
			<point x="469" y="350"/>
			<point x="469" y="390" type="curve" smooth="yes"/>
			<point x="469" y="465"/>
			<point x="392" y="521"/>
			<point x="290" y="521" type="curve" smooth="yes"/>
			<point x="143" y="521"/>
			<point x="46" y="412"/>
			<point x="46" y="247" type="curve" smooth="yes"/>
			<point x="46" y="87"/>
			<point x="137" y="-14"/>
		</contour>
	</outline>
	<anchor name="bottom" x="274" y="-30"/>
	<anchor name="top" x="283" y="550"/>
</glyph>
<glyph name="i" format="2">
	<unicode hex="0069"/>
	<advance width="333"/>
	<outline>
		<contour>
			<point x="40" y="0" type="line"/>
			<point x="309" y="0" type="line"/>
			<point x="309" y="48" type="line"/>
			<point x="253" y="58" type="line" smooth="yes"/>
			<point x="223" y="63"/>
			<point x="221" y="79"/>
			<point x="221" y="105" type="curve" smooth="yes"/>
			<point x="221" y="505" type="line"/>
			<point x="209" y="510" type="line"/>
			<point x="51" y="502" type="line"/>
			<point x="44" y="452" type="line"/>
			<point x="92" y="445" type="line" smooth="yes"/>
			<point x="122" y="441"/>
			<point x="128" y="430"/>
			<point x="128" y="382" type="curve" smooth="yes"/>
			<point x="128" y="109" type="line" smooth="yes"/>
			<point x="128" y="72"/>
			<point x="124" y="62"/>
			<point x="97" y="58" type="curve" smooth="yes"/>
			<point x="40" y="49" type="line"/>
		</contour>
		<contour>
			<point x="160" y="620" type="curve" smooth="yes"/>
			<point x="200" y="620"/>
			<point x="228" y="648"/>
			<point x="228" y="687" type="curve" smooth="yes"/>
			<point x="228" y="726"/>
			<point x="200" y="753"/>
			<point x="160" y="753" type="curve" smooth="yes"/>
			<point x="121" y="753"/>
			<point x="93" y="725"/>
			<point x="93" y="686" type="curve" smooth="yes"/>
			<point x="93" y="647"/>
			<point x="121" y="620"/>
		</contour>
	</outline>
	<anchor name="bottom" x="174" y="-30"/>
</glyph>
<glyph name="k" format="2">
	<unicode hex="006B"/>
	<advance width="609"/>
	<outline>
		<contour>
			<point x="527" y="-9" type="curve" smooth="yes"/>
			<point x="558" y="-9"/>
			<point x="591" y="6"/>
			<point x="617" y="31" type="curve"/>
			<point x="607" y="67" type="line"/>
			<point x="584" y="61"/>
			<point x="576" y="59"/>
			<point x="568" y="59" type="curve" smooth="yes"/>
			<point x="537" y="59"/>
			<point x="518" y="75"/>
			<point x="495" y="101" type="curve" smooth="yes"/>
			<point x="329" y="290" type="line"/>
			<point x="478" y="416" type="line" smooth="yes"/>
			<point x="504" y="438"/>
			<point x="528" y="448"/>
			<point x="548" y="454" type="curve" smooth="yes"/>
			<point x="577" y="462" type="line"/>
			<point x="577" y="507" type="line"/>
			<point x="353" y="507" type="line"/>
			<point x="344" y="461" type="line"/>
			<point x="389" y="454" type="line" smooth="yes"/>
			<point x="406" y="451"/>
			<point x="406" y="432"/>
			<point x="389" y="417" type="curve" smooth="yes"/>
			<point x="230" y="274" type="line"/>
			<point x="230" y="266" type="line"/>
			<point x="399" y="65" type="line" smooth="yes"/>
			<point x="449" y="5"/>
			<point x="474" y="-9"/>
		</contour>
		<contour>
			<point x="42" y="0" type="line"/>
			<point x="286" y="0" type="line"/>
			<point x="286" y="49" type="line"/>
			<point x="250" y="57" type="line" smooth="yes"/>
			<point x="229" y="62"/>
			<point x="223" y="72"/>
			<point x="223" y="104" type="curve" smooth="yes"/>
			<point x="223" y="755" type="line"/>
			<point x="212" y="766" type="line"/>
			<point x="48" y="761" type="line"/>
			<point x="43" y="711" type="line"/>
			<point x="87" y="704" type="line" smooth="yes"/>
			<point x="124" y="698"/>
			<point x="130" y="690"/>
			<point x="130" y="644" type="curve" smooth="yes"/>
			<point x="130" y="108" type="line" smooth="yes"/>
			<point x="130" y="71"/>
			<point x="126" y="61"/>
			<point x="99" y="57" type="curve" smooth="yes"/>
			<point x="42" y="48" type="line"/>
		</contour>
	</outline>
	<anchor name="bottom" x="318" y="-30"/>
	<anchor name="top" x="138" y="780"/>
</glyph>
<glyph name="n" format="2">
	<unicode hex="006E"/>
	<advance width="662"/>
	<outline>
		<contour>
			<point x="55" y="0" type="line"/>
			<point x="300" y="0" type="line"/>
			<point x="300" y="46" type="line"/>
			<point x="247" y="57" type="line" smooth="yes"/>
			<point x="227" y="61"/>
			<point x="222" y="70"/>
			<point x="222" y="100" type="curve" smooth="yes"/>
			<point x="222" y="310" type="line" smooth="yes"/>
			<point x="222" y="394"/>
			<point x="276" y="449"/>
			<point x="360" y="449" type="curve" smooth="yes"/>
			<point x="434" y="449"/>
			<point x="460" y="415"/>
			<point x="460" y="321" type="curve" smooth="yes"/>
			<point x="460" y="96" type="line" smooth="yes"/>
			<point x="460" y="66"/>
			<point x="455" y="59"/>
			<point x="430" y="54" type="curve" smooth="yes"/>
			<point x="386" y="46" type="line"/>
			<point x="386" y="0" type="line"/>
			<point x="631" y="0" type="line"/>
			<point x="631" y="47" type="line"/>
			<point x="584" y="55" type="line" smooth="yes"/>
			<point x="558" y="59"/>
			<point x="553" y="67"/>
			<point x="553" y="96" type="curve" smooth="yes"/>
			<point x="553" y="350" type="line" smooth="yes"/>
			<point x="553" y="461"/>
			<point x="495" y="521"/>
			<point x="389" y="521" type="curve" smooth="yes"/>
			<point x="318" y="521"/>
			<point x="250" y="481"/>
			<point x="214" y="418" type="curve"/>
			<point x="211" y="418" type="line"/>
			<point x="204" y="507" type="line"/>
			<point x="192" y="514" type="line"/>
			<point x="53" y="503" type="line"/>
			<point x="46" y="455" type="line"/>
			<point x="95" y="448" type="line" smooth="yes"/>
			<point x="124" y="444"/>
			<point x="129" y="434"/>
			<point x="129" y="386" type="curve" smooth="yes"/>
			<point x="129" y="104" type="line" smooth="yes"/>
			<point x="129" y="69"/>
			<point x="124" y="60"/>
			<point x="103" y="56" type="curve" smooth="yes"/>
			<point x="55" y="47" type="line"/>
		</contour>
	</outline>
	<anchor name="bottom" x="340" y="-30"/>
	<anchor name="top" x="337" y="550"/>
</glyph>
<glyph name="o" format="2">
	<unicode hex="006F"/>
	<advance width="586"/>
	<outline>
		<contour>
			<point x="289" y="-14" type="curve" smooth="yes"/>
			<point x="442" y="-14"/>
			<point x="540" y="96"/>
			<point x="540" y="267" type="curve" smooth="yes"/>
			<point x="540" y="422"/>
			<point x="448" y="521"/>
			<point x="303" y="521" type="curve" smooth="yes"/>
			<point x="144" y="521"/>
			<point x="46" y="414"/>
			<point x="46" y="242" type="curve" smooth="yes"/>
			<point x="46" y="85"/>
			<point x="140" y="-14"/>
		</contour>
		<contour>
			<point x="303" y="48" type="curve" smooth="yes"/>
			<point x="206" y="48"/>
			<point x="147" y="132"/>
			<point x="147" y="272" type="curve" smooth="yes"/>
			<point x="147" y="395"/>
			<point x="197" y="462"/>
			<point x="287" y="462" type="curve" smooth="yes"/>
			<point x="380" y="462"/>
			<point x="438" y="378"/>
			<point x="438" y="243" type="curve" smooth="yes"/>
			<point x="438" y="118"/>
			<point x="390" y="48"/>
		</contour>
	</outline>
	<anchor name="bottom" x="294" y="-30"/>
	<anchor name="top" x="294" y="550"/>
</glyph>
<glyph name="q" format="2">
	<unicode hex="0071"/>
	<advance width="600"/>
	<outline>
		<contour>
			<point x="320" y="-216" type="line"/>
			<point x="583" y="-216" type="line"/>
			<point x="583" y="-167" type="line"/>
			<point x="535" y="-159" type="line" smooth="yes"/>
			<point x="515" y="-156"/>
			<point x="506" y="-145"/>
			<point x="506" y="-112" type="curve"/>
			<point x="506" y="513" type="line"/>
			<point x="478" y="521" type="line"/>
			<point x="433" y="478" type="line"/>
			<point x="394" y="507"/>
			<point x="346" y="521"/>
			<point x="290" y="521" type="curve" smooth="yes"/>
			<point x="142" y="521"/>
			<point x="46" y="409"/>
			<point x="46" y="237" type="curve" smooth="yes"/>
			<point x="46" y="84"/>
			<point x="124" y="-14"/>
			<point x="247" y="-14" type="curve" smooth="yes"/>
			<point x="315" y="-14"/>
			<point x="370" y="14"/>
			<point x="413" y="71" type="curve"/>
			<point x="413" y="68" type="line"/>
			<point x="413" y="-109" type="line" smooth="yes"/>
			<point x="413" y="-141"/>
			<point x="405" y="-154"/>
			<point x="381" y="-158" type="curve" smooth="yes"/>
			<point x="320" y="-168" type="line"/>
		</contour>
		<contour>
			<point x="280" y="58" type="curve" smooth="yes"/>
			<point x="192" y="58"/>
			<point x="145" y="125"/>
			<point x="145" y="249" type="curve" smooth="yes"/>
			<point x="145" y="385"/>
			<point x="194" y="455"/>
			<point x="289" y="455" type="curve" smooth="yes"/>
			<point x="335" y="455"/>
			<point x="381" y="440"/>
			<point x="413" y="414" type="curve"/>
			<point x="413" y="207" type="line" smooth="yes"/>
			<point x="413" y="121"/>
			<point x="357" y="58"/>
		</contour>
	</outline>
</glyph>
<glyph name="r" format="2">
	<unicode hex="0072"/>
	<advance width="473"/>
	<outline>
		<contour>
			<point x="55" y="0" type="line"/>
			<point x="333" y="0" type="line"/>
			<point x="333" y="47" type="line"/>
			<point x="247" y="60" type="line" smooth="yes"/>
			<point x="226" y="63"/>
			<point x="222" y="71"/>
			<point x="222" y="103" type="curve" smooth="yes"/>
			<point x="222" y="306" type="line" smooth="yes"/>
			<point x="222" y="397"/>
			<point x="300" y="478"/>
			<point x="359" y="448" type="curve"/>
			<point x="346" y="422"/>
			<point x="340" y="405"/>
			<point x="340" y="390" type="curve" smooth="yes"/>
			<point x="340" y="362"/>
			<point x="362" y="346"/>
			<point x="399" y="346" type="curve" smooth="yes"/>
			<point x="443" y="346"/>
			<point x="466" y="373"/>
			<point x="466" y="425" type="curve" smooth="yes"/>
			<point x="466" y="484"/>
			<point x="426" y="521"/>
			<point x="363" y="521" type="curve" smooth="yes"/>
			<point x="304" y="521"/>
			<point x="253" y="485"/>
			<point x="214" y="417" type="curve"/>
			<point x="211" y="417" type="line"/>
			<point x="200" y="507" type="line"/>
			<point x="188" y="514" type="line"/>
			<point x="53" y="503" type="line"/>
			<point x="46" y="454" type="line"/>
			<point x="95" y="447" type="line" smooth="yes"/>
			<point x="124" y="443"/>
			<point x="129" y="432"/>
			<point x="129" y="385" type="curve" smooth="yes"/>
			<point x="129" y="105" type="line" smooth="yes"/>
			<point x="129" y="70"/>
			<point x="124" y="61"/>
			<point x="103" y="57" type="curve" smooth="yes"/>
			<point x="55" y="48" type="line"/>
		</contour>
	</outline>
	<anchor name="bottom" x="183" y="-30"/>
	<anchor name="top" x="274" y="550"/>
</glyph>
<glyph name="s" format="2">
	<unicode hex="0073"/>
	<advance width="452"/>
	<outline>
		<contour>
			<point x="65" y="-14" type="line"/>
			<point x="107" y="-14" type="line"/>
			<point x="118" y="20" type="line"/>
			<point x="146" y="-2"/>
			<point x="191" y="-14"/>
			<point x="243" y="-14" type="curve" smooth="yes"/>
			<point x="348" y="-14"/>
			<point x="422" y="54"/>
			<point x="422" y="152" type="curve" smooth="yes"/>
			<point x="422" y="232"/>
			<point x="380" y="272"/>
			<point x="260" y="306" type="curve" smooth="yes"/>
			<point x="171" y="332"/>
			<point x="145" y="352"/>
			<point x="145" y="394" type="curve" smooth="yes"/>
			<point x="145" y="441"/>
			<point x="177" y="467"/>
			<point x="235" y="467" type="curve" smooth="yes"/>
			<point x="291" y="467"/>
			<point x="338" y="425"/>
			<point x="351" y="363" type="curve"/>
			<point x="408" y="358" type="line"/>
			<point x="395" y="521" type="line"/>
			<point x="351" y="521" type="line"/>
			<point x="343" y="487" type="line"/>
			<point x="319" y="507"/>
			<point x="274" y="521"/>
			<point x="233" y="521" type="curve" smooth="yes"/>
			<point x="128" y="521"/>
			<point x="61" y="462"/>
			<point x="61" y="371" type="curve" smooth="yes"/>
			<point x="61" y="292"/>
			<point x="104" y="252"/>
			<point x="222" y="219" type="curve" smooth="yes"/>
			<point x="312" y="194"/>
			<point x="339" y="173"/>
			<point x="339" y="130" type="curve" smooth="yes"/>
			<point x="339" y="78"/>
			<point x="303" y="46"/>
			<point x="245" y="46" type="curve" smooth="yes"/>
			<point x="180" y="46"/>
			<point x="132" y="86"/>
			<point x="105" y="162" type="curve"/>
			<point x="49" y="158" type="line"/>
		</contour>
	</outline>
	<anchor name="bottom" x="234" y="-30"/>
	<anchor name="top" x="235" y="550"/>
</glyph>
<glyph name="y" format="2">
	<unicode hex="0079"/>
	<advance width="576"/>
	<outline>
		<contour>
			<point x="113" y="-230" type="curve" smooth="yes"/>
			<point x="195" y="-230"/>
			<point x="240" y="-188"/>
			<point x="297" y="-55" type="curve" smooth="yes"/>
			<point x="490" y="398" type="line" smooth="yes"/>
			<point x="508" y="441"/>
			<point x="515" y="447"/>
			<point x="537" y="452" type="curve" smooth="yes"/>
			<point x="574" y="460" type="line"/>
			<point x="574" y="507" type="line"/>
			<point x="365" y="507" type="line"/>
			<point x="355" y="461" type="line"/>
			<point x="399" y="451" type="line" smooth="yes"/>
			<point x="430" y="444"/>
			<point x="435" y="428"/>
			<point x="422" y="397" type="curve" smooth="yes"/>
			<point x="311" y="124" type="line"/>
			<point x="306" y="124" type="line"/>
			<point x="195" y="404" type="line" smooth="yes"/>
			<point x="180" y="441"/>
			<point x="190" y="451"/>
			<point x="214" y="454" type="curve" smooth="yes"/>
			<point x="262" y="461" type="line"/>
			<point x="262" y="507" type="line"/>
			<point x="24" y="507" type="line"/>
			<point x="14" y="458" type="line"/>
			<point x="49" y="450" type="line" smooth="yes"/>
			<point x="71" y="445"/>
			<point x="77" y="439"/>
			<point x="93" y="399" type="curve" smooth="yes"/>
			<point x="258" y="7" type="line"/>
			<point x="233" y="-51" type="line" smooth="yes"/>
			<point x="189" y="-153"/>
			<point x="166" y="-179"/>
			<point x="124" y="-176" type="curve"/>
			<point x="128" y="-146"/>
			<point x="129" y="-127"/>
			<point x="128" y="-119" type="curve" smooth="yes"/>
			<point x="125" y="-96"/>
			<point x="106" y="-83"/>
			<point x="75" y="-83" type="curve" smooth="yes"/>
			<point x="38" y="-83"/>
			<point x="10" y="-112"/>
			<point x="10" y="-150" type="curve" smooth="yes"/>
			<point x="10" y="-199"/>
			<point x="50" y="-230"/>
		</contour>
	</outline>
	<anchor name="bottom" x="408" y="-30"/>
	<anchor name="top" x="309" y="550"/>
</glyph>
<glyph name="z" format="2">
	<unicode hex="007A"/>
	<advance width="486"/>
	<outline>
		<contour>
			<point x="37" y="0" type="line"/>
			<point x="445" y="0" type="line"/>
			<point x="459" y="181" type="line"/>
			<point x="405" y="181" type="line"/>
			<point x="364" y="67"/>
			<point x="351" y="55"/>
			<point x="265" y="55" type="curve" smooth="yes"/>
			<point x="147" y="55" type="line"/>
			<point x="445" y="461" type="line"/>
			<point x="445" y="507" type="line"/>
			<point x="52" y="507" type="line"/>
			<point x="40" y="340" type="line"/>
			<point x="97" y="345" type="line"/>
			<point x="125" y="439"/>
			<point x="142" y="454"/>
			<point x="219" y="454" type="curve" smooth="yes"/>
			<point x="336" y="454" type="line"/>
			<point x="37" y="44" type="line"/>
		</contour>
	</outline>
	<anchor name="bottom" x="243" y="-30"/>
	<anchor name="top" x="245" y="550"/>
</glyph>
<glyph name="braceleft" format="2">
	<unicode hex="007B"/>
	<advance width="372"/>
	<outline>
		<contour>
			<point x="263" y="-227" type="curve" smooth="yes"/>
			<point x="288" y="-227"/>
			<point x="313" y="-224"/>
			<point x="335" y="-218" type="curve"/>
			<point x="325" y="-169" type="line"/>
			<point x="311" y="-171"/>
			<point x="292" y="-173"/>
			<point x="277" y="-173" type="curve" smooth="yes"/>
			<point x="246" y="-173"/>
			<point x="222" y="-160"/>
			<point x="222" y="-103" type="curve" smooth="yes"/>
			<point x="222" y="-63"/>
			<point x="239" y="109"/>
			<point x="239" y="174" type="curve" smooth="yes"/>
			<point x="239" y="268"/>
			<point x="182" y="291"/>
			<point x="129" y="308" type="curve"/>
			<point x="181" y="323"/>
			<point x="239" y="343"/>
			<point x="239" y="440" type="curve" smooth="yes"/>
			<point x="239" y="507"/>
			<point x="222" y="657"/>
			<point x="222" y="702" type="curve" smooth="yes"/>
			<point x="222" y="759"/>
			<point x="243" y="768"/>
			<point x="268" y="768" type="curve" smooth="yes"/>
			<point x="285" y="768"/>
			<point x="302" y="766"/>
			<point x="317" y="764" type="curve"/>
			<point x="327" y="813" type="line"/>
			<point x="308" y="818"/>
			<point x="279" y="822"/>
			<point x="255" y="822" type="curve" smooth="yes"/>
			<point x="176" y="822"/>
			<point x="130" y="776"/>
			<point x="130" y="703" type="curve" smooth="yes"/>
			<point x="130" y="638"/>
			<point x="149" y="506"/>
			<point x="149" y="431" type="curve" smooth="yes"/>
			<point x="149" y="343"/>
			<point x="108" y="336"/>
			<point x="55" y="335" type="curve"/>
			<point x="55" y="278" type="line"/>
			<point x="108" y="277"/>
			<point x="149" y="268"/>
			<point x="149" y="182" type="curve" smooth="yes"/>
			<point x="149" y="110"/>
			<point x="130" y="-45"/>
			<point x="130" y="-106" type="curve" smooth="yes"/>
			<point x="130" y="-180"/>
			<point x="180" y="-227"/>
		</contour>
	</outline>
</glyph>
<glyph name="currency" format="2">
	<unicode hex="00A4"/>
	<advance width="539"/>
	<outline>
		<contour>
			<point x="453" y="95" type="line"/>
			<point x="483" y="125" type="line"/>
			<point x="417" y="209" type="line"/>
			<point x="435" y="237"/>
			<point x="446" y="274"/>
			<point x="446" y="321" type="curve" smooth="yes"/>
			<point x="446" y="364"/>
			<point x="437" y="397"/>
			<point x="421" y="423" type="curve"/>
			<point x="484" y="503" type="line"/>
			<point x="454" y="533" type="line"/>
			<point x="373" y="470" type="line"/>
			<point x="344" y="487"/>
			<point x="309" y="495"/>
			<point x="274" y="495" type="curve" smooth="yes"/>
			<point x="236" y="495"/>
			<point x="198" y="485"/>
			<point x="167" y="465" type="curve"/>
			<point x="85" y="530" type="line"/>
			<point x="55" y="500" type="line"/>
			<point x="120" y="416" type="line"/>
			<point x="103" y="389"/>
			<point x="94" y="355"/>
			<point x="94" y="312" type="curve" smooth="yes"/>
			<point x="94" y="270"/>
			<point x="103" y="235"/>
			<point x="120" y="208" type="curve"/>
			<point x="56" y="126" type="line"/>
			<point x="86" y="96" type="line"/>
			<point x="168" y="160" type="line"/>
			<point x="195" y="144"/>
			<point x="228" y="136"/>
			<point x="268" y="136" type="curve" smooth="yes"/>
			<point x="303" y="136"/>
			<point x="338" y="144"/>
			<point x="367" y="162" type="curve"/>
		</contour>
		<contour>
			<point x="268" y="189" type="curve" smooth="yes"/>
			<point x="205" y="189"/>
			<point x="168" y="235"/>
			<point x="168" y="315" type="curve" smooth="yes"/>
			<point x="168" y="400"/>
			<point x="208" y="440"/>
			<point x="272" y="440" type="curve" smooth="yes"/>
			<point x="334" y="440"/>
			<point x="372" y="403"/>
			<point x="372" y="317" type="curve" smooth="yes"/>
			<point x="372" y="236"/>
			<point x="339" y="189"/>
		</contour>
	</outline>
</glyph>
<glyph name="yen" format="2">
	<unicode hex="00A5"/>
	<advance width="700"/>
	<outline>
		<contour>
			<point x="227" y="0" type="line"/>
			<point x="512" y="0" type="line"/>
			<point x="512" y="48" type="line"/>
			<point x="451" y="57" type="line" smooth="yes"/>
			<point x="425" y="61"/>
			<point x="419" y="70"/>
			<point x="419" y="104" type="curve" smooth="yes"/>
			<point x="419" y="216" type="line"/>
			<point x="602" y="216" type="line"/>
			<point x="602" y="267" type="line"/>
			<point x="419" y="267" type="line"/>
			<point x="419" y="292" type="line"/>
			<point x="444" y="333" type="line"/>
			<point x="602" y="333" type="line"/>
			<point x="602" y="386" type="line"/>
			<point x="477" y="386" type="line"/>
			<point x="602" y="589" type="line" smooth="yes"/>
			<point x="628" y="631"/>
			<point x="638" y="640"/>
			<point x="659" y="644" type="curve" smooth="yes"/>
			<point x="708" y="652" type="line"/>
			<point x="708" y="700" type="line"/>
			<point x="467" y="700" type="line"/>
			<point x="467" y="653" type="line"/>
			<point x="513" y="642" type="line" smooth="yes"/>
			<point x="544" y="635"/>
			<point x="548" y="618"/>
			<point x="531" y="590" type="curve" smooth="yes"/>
			<point x="392" y="358" type="line"/>
			<point x="387" y="358" type="line"/>
			<point x="240" y="595" type="line" smooth="yes"/>
			<point x="222" y="624"/>
			<point x="230" y="641"/>
			<point x="260" y="645" type="curve" smooth="yes"/>
			<point x="315" y="652" type="line"/>
			<point x="315" y="700" type="line"/>
			<point x="36" y="700" type="line"/>
			<point x="36" y="649" type="line"/>
			<point x="73" y="642" type="line" smooth="yes"/>
			<point x="104" y="636"/>
			<point x="115" y="619"/>
			<point x="133" y="591" type="curve" smooth="yes"/>
			<point x="262" y="386" type="line"/>
			<point x="86" y="386" type="line"/>
			<point x="81" y="335" type="line"/>
			<point x="294" y="335" type="line"/>
			<point x="320" y="293" type="line"/>
			<point x="320" y="267" type="line"/>
			<point x="83" y="267" type="line"/>
			<point x="78" y="216" type="line"/>
			<point x="320" y="216" type="line"/>
			<point x="320" y="108" type="line" smooth="yes"/>
			<point x="320" y="71"/>
			<point x="314" y="61"/>
			<point x="289" y="57" type="curve" smooth="yes"/>
			<point x="227" y="48" type="line"/>
		</contour>
	</outline>
	<anchor name="bottom" x="369" y="-30"/>
	<anchor name="top" x="389" y="730"/>
</glyph>
<glyph name="section" format="2">
	<unicode hex="00A7"/>
	<advance width="618"/>
	<outline>
		<contour>
			<point x="278" y="-156" type="curve" smooth="yes"/>
			<point x="389" y="-156"/>
			<point x="465" y="-92"/>
			<point x="465" y="1" type="curve" smooth="yes"/>
			<point x="465" y="20"/>
			<point x="461" y="40"/>
			<point x="454" y="60" type="curve"/>
			<point x="515" y="89"/>
			<point x="553" y="146"/>
			<point x="553" y="206" type="curve" smooth="yes"/>
			<point x="553" y="285"/>
			<point x="503" y="349"/>
			<point x="388" y="416" type="curve" smooth="yes"/>
			<point x="273" y="483"/>
			<point x="233" y="526"/>
			<point x="233" y="581" type="curve" smooth="yes"/>
			<point x="233" y="632"/>
			<point x="265" y="660"/>
			<point x="322" y="660" type="curve" smooth="yes"/>
			<point x="340" y="660"/>
			<point x="363" y="655"/>
			<point x="376" y="648" type="curve"/>
			<point x="355" y="614"/>
			<point x="351" y="603"/>
			<point x="351" y="589" type="curve" smooth="yes"/>
			<point x="351" y="565"/>
			<point x="372" y="550"/>
			<point x="406" y="550" type="curve" smooth="yes"/>
			<point x="441" y="550"/>
			<point x="468" y="580"/>
			<point x="468" y="618" type="curve" smooth="yes"/>
			<point x="468" y="675"/>
			<point x="410" y="714"/>
			<point x="326" y="714" type="curve" smooth="yes"/>
			<point x="225" y="714"/>
			<point x="153" y="649"/>
			<point x="153" y="558" type="curve" smooth="yes"/>
			<point x="153" y="539"/>
			<point x="157" y="516"/>
			<point x="163" y="497" type="curve"/>
			<point x="101" y="469"/>
			<point x="65" y="417"/>
			<point x="65" y="356" type="curve" smooth="yes"/>
			<point x="65" y="277"/>
			<point x="113" y="217"/>
			<point x="236" y="141" type="curve" smooth="yes"/>
			<point x="347" y="73"/>
			<point x="385" y="32"/>
			<point x="385" y="-17" type="curve" smooth="yes"/>
			<point x="385" y="-69"/>
			<point x="347" y="-101"/>
			<point x="286" y="-101" type="curve" smooth="yes"/>
			<point x="259" y="-101"/>
			<point x="235" y="-97"/>
			<point x="222" y="-89" type="curve"/>
			<point x="243" y="-55"/>
			<point x="247" y="-44"/>
			<point x="247" y="-30" type="curve" smooth="yes"/>
			<point x="247" y="-6"/>
			<point x="226" y="9"/>
			<point x="192" y="9" type="curve" smooth="yes"/>
			<point x="156" y="9"/>
			<point x="130" y="-20"/>
			<point x="130" y="-60" type="curve" smooth="yes"/>
			<point x="130" y="-119"/>
			<point x="188" y="-156"/>
		</contour>
		<contour>
			<point x="429" y="104" type="curve"/>
			<point x="396" y="145"/>
			<point x="349" y="183"/>
			<point x="277" y="225" type="curve" smooth="yes"/>
			<point x="186" y="280"/>
			<point x="147" y="325"/>
			<point x="147" y="376" type="curve" smooth="yes"/>
			<point x="147" y="407"/>
			<point x="161" y="433"/>
			<point x="187" y="453" type="curve"/>
			<point x="226" y="408"/>
			<point x="273" y="371"/>
			<point x="354" y="323" type="curve" smooth="yes"/>
			<point x="437" y="273"/>
			<point x="471" y="233"/>
			<point x="471" y="185" type="curve" smooth="yes"/>
			<point x="471" y="154"/>
			<point x="455" y="123"/>
		</contour>
	</outline>
</glyph>
<glyph name="dieresis" format="2">
	<unicode hex="00A8"/>
	<advance width="500"/>
	<outline>
		<contour>
			<point x="348" y="620" type="curve" smooth="yes"/>
			<point x="385" y="620"/>
			<point x="412" y="647"/>
			<point x="412" y="683" type="curve" smooth="yes"/>
			<point x="412" y="719"/>
			<point x="385" y="745"/>
			<point x="348" y="745" type="curve" smooth="yes"/>
			<point x="311" y="745"/>
			<point x="284" y="718"/>
			<point x="284" y="682" type="curve" smooth="yes"/>
			<point x="284" y="646"/>
			<point x="311" y="620"/>
		</contour>
		<contour>
			<point x="149" y="620" type="curve" smooth="yes"/>
			<point x="187" y="620"/>
			<point x="214" y="647"/>
			<point x="214" y="683" type="curve" smooth="yes"/>
			<point x="214" y="719"/>
			<point x="187" y="745"/>
			<point x="149" y="745" type="curve" smooth="yes"/>
			<point x="113" y="745"/>
			<point x="86" y="718"/>
			<point x="86" y="682" type="curve" smooth="yes"/>
			<point x="86" y="646"/>
			<point x="113" y="620"/>
		</contour>
	</outline>
	<anchor name="_top" x="240" y="550"/>
</glyph>
<glyph name="logicalnot" format="2">
	<unicode hex="00AC"/>
	<advance width="582"/>
	<outline>
		<contour>
			<point x="438" y="154" type="line"/>
			<point x="505" y="154" type="line"/>
			<point x="505" y="367" type="line"/>
			<point x="77" y="367" type="line"/>
			<point x="77" y="304" type="line"/>
			<point x="438" y="304" type="line"/>
		</contour>
	</outline>
</glyph>
<glyph name="degree" format="2">
	<unicode hex="00B0"/>
	<advance width="329"/>
	<outline>
		<contour>
			<point x="164" y="547" type="curve" smooth="yes"/>
			<point x="243" y="547"/>
			<point x="286" y="601"/>
			<point x="286" y="667" type="curve" smooth="yes"/>
			<point x="286" y="735"/>
			<point x="245" y="782"/>
			<point x="167" y="782" type="curve" smooth="yes"/>
			<point x="85" y="782"/>
			<point x="43" y="727"/>
			<point x="43" y="665" type="curve" smooth="yes"/>
			<point x="43" y="598"/>
			<point x="81" y="547"/>
		</contour>
		<contour>
			<point x="166" y="598" type="curve" smooth="yes"/>
			<point x="121" y="598"/>
			<point x="101" y="627"/>
			<point x="101" y="665" type="curve" smooth="yes"/>
			<point x="101" y="704"/>
			<point x="124" y="732"/>
			<point x="163" y="732" type="curve" smooth="yes"/>
			<point x="204" y="732"/>
			<point x="229" y="706"/>
			<point x="229" y="665" type="curve" smooth="yes"/>
			<point x="229" y="627"/>
			<point x="205" y="598"/>
		</contour>
	</outline>
</glyph>
<glyph name="plusminus" format="2">
	<unicode hex="00B1"/>
	<advance width="582"/>
	<outline>
		<contour>
			<point x="254" y="141" type="line"/>
			<point x="321" y="141" type="line"/>
			<point x="321" y="306" type="line"/>
			<point x="505" y="306" type="line"/>
			<point x="505" y="369" type="line"/>
			<point x="321" y="369" type="line"/>
			<point x="321" y="521" type="line"/>
			<point x="254" y="521" type="line"/>
			<point x="254" y="369" type="line"/>
			<point x="77" y="369" type="line"/>
			<point x="77" y="306" type="line"/>
			<point x="254" y="306" type="line"/>
		</contour>
		<contour>
			<point x="77" y="1" type="line"/>
			<point x="505" y="1" type="line"/>
			<point x="505" y="64" type="line"/>
			<point x="77" y="64" type="line"/>
		</contour>
	</outline>
</glyph>
<glyph name="paragraph" format="2">
	<unicode hex="00B6"/>
	<advance width="578"/>
	<outline>
		<contour>
			<point x="252" y="-144" type="line"/>
			<point x="451" y="-144" type="line"/>
			<point x="451" y="597" type="line" smooth="yes"/>
			<point x="451" y="629"/>
			<point x="458" y="644"/>
			<point x="483" y="647" type="curve" smooth="yes"/>
			<point x="533" y="653" type="line"/>
			<point x="533" y="700" type="line"/>
			<point x="364" y="700" type="line"/>
			<point x="364" y="-41" type="line" smooth="yes"/>
			<point x="364" y="-73"/>
			<point x="357" y="-88"/>
			<point x="332" y="-90" type="curve" smooth="yes"/>
			<point x="252" y="-97" type="line"/>
		</contour>
		<contour>
			<point x="285" y="238" type="curve" smooth="yes"/>
			<point x="301" y="238" type="line"/>
			<point x="301" y="700" type="line"/>
			<point x="289" y="700" type="line" smooth="yes"/>
			<point x="143" y="700"/>
			<point x="70" y="615"/>
			<point x="70" y="468" type="curve" smooth="yes"/>
			<point x="70" y="322"/>
			<point x="151" y="238"/>
		</contour>
	</outline>
</glyph>
<glyph name="cedilla" format="2">
	<unicode hex="00B8"/>
	<advance width="500"/>
	<outline>
		<contour>
			<point x="234" y="-229" type="curve" smooth="yes"/>
			<point x="312" y="-229"/>
			<point x="349" y="-189"/>
			<point x="349" y="-133" type="curve" smooth="yes"/>
			<point x="349" y="-76"/>
			<point x="307" y="-49"/>
			<point x="243" y="-57" type="curve"/>
			<point x="270" y="13" type="line"/>
			<point x="224" y="13" type="line"/>
			<point x="189" y="-75" type="line"/>
			<point x="197" y="-96" type="line"/>
			<point x="206" y="-94"/>
			<point x="214" y="-93"/>
			<point x="227" y="-93" type="curve" smooth="yes"/>
			<point x="259" y="-93"/>
			<point x="277" y="-103"/>
			<point x="277" y="-131" type="curve" smooth="yes"/>
			<point x="277" y="-161"/>
			<point x="253" y="-174"/>
			<point x="227" y="-174" type="curve" smooth="yes"/>
			<point x="205" y="-174"/>
			<point x="180" y="-165"/>
			<point x="163" y="-152" type="curve"/>
			<point x="139" y="-189" type="line"/>
			<point x="150" y="-201"/>
			<point x="187" y="-229"/>
		</contour>
	</outline>
	<anchor name="_bottom" x="245" y="-30"/>
</glyph>
<glyph name="onesuperior" format="2">
	<unicode hex="00B9"/>
	<advance width="323"/>
	<outline>
		<contour>
			<point x="38" y="374" type="line"/>
			<point x="298" y="374" type="line"/>
			<point x="298" y="415" type="line"/>
			<point x="236" y="425" type="line" smooth="yes"/>
			<point x="215" y="428"/>
			<point x="211" y="435"/>
			<point x="211" y="455" type="curve" smooth="yes"/>
			<point x="211" y="829" type="line"/>
			<point x="203" y="836" type="line"/>
			<point x="40" y="813" type="line"/>
			<point x="35" y="773" type="line"/>
			<point x="96" y="768" type="line" smooth="yes"/>
			<point x="125" y="764"/>
			<point x="127" y="757"/>
			<point x="127" y="729" type="curve" smooth="yes"/>
			<point x="127" y="457" type="line" smooth="yes"/>
			<point x="127" y="438"/>
			<point x="123" y="428"/>
			<point x="103" y="425" type="curve" smooth="yes"/>
			<point x="38" y="415" type="line"/>
		</contour>
	</outline>
</glyph>
<glyph name="ordmasculine" format="2">
	<unicode hex="00BA"/>
	<advance width="427"/>
	<outline>
		<contour>
			<point x="210" y="362" type="curve" smooth="yes"/>
			<point x="317" y="362"/>
			<point x="392" y="432"/>
			<point x="392" y="562" type="curve" smooth="yes"/>
			<point x="392" y="683"/>
			<point x="319" y="742"/>
			<point x="221" y="742" type="curve" smooth="yes"/>
			<point x="123" y="742"/>
			<point x="35" y="688"/>
			<point x="35" y="544" type="curve" smooth="yes"/>
			<point x="35" y="439"/>
			<point x="93" y="362"/>
		</contour>
		<contour>
			<point x="221" y="410" type="curve" smooth="yes"/>
			<point x="150" y="410"/>
			<point x="114" y="469"/>
			<point x="114" y="566" type="curve" smooth="yes"/>
			<point x="114" y="657"/>
			<point x="152" y="696"/>
			<point x="209" y="696" type="curve" smooth="yes"/>
			<point x="273" y="696"/>
			<point x="312" y="639"/>
			<point x="312" y="545" type="curve" smooth="yes"/>
			<point x="312" y="458"/>
			<point x="280" y="410"/>
		</contour>
	</outline>
</glyph>
<glyph name="AE" format="2">
	<unicode hex="00C6"/>
	<advance width="997"/>
	<outline>
		<contour>
			<point x="15" y="0" type="line"/>
			<point x="260" y="0" type="line"/>
			<point x="260" y="47" type="line"/>
			<point x="203" y="55" type="line" smooth="yes"/>
			<point x="175" y="59"/>
			<point x="170" y="76"/>
			<point x="186" y="109" type="curve" smooth="yes"/>
			<point x="285" y="315" type="line"/>
			<point x="512" y="315" type="line"/>
			<point x="512" y="108" type="line" smooth="yes"/>
			<point x="512" y="71"/>
			<point x="505" y="61"/>
			<point x="480" y="57" type="curve" smooth="yes"/>
			<point x="422" y="48" type="line"/>
			<point x="422" y="0" type="line"/>
			<point x="920" y="0" type="line"/>
			<point x="944" y="184" type="line"/>
			<point x="889" y="184" type="line"/>
			<point x="861" y="76"/>
			<point x="835" y="54"/>
			<point x="739" y="54" type="curve" smooth="yes"/>
			<point x="610" y="54" type="line"/>
			<point x="610" y="315" type="line"/>
			<point x="697" y="315" type="line" smooth="yes"/>
			<point x="779" y="315"/>
			<point x="778" y="307"/>
			<point x="790" y="230" type="curve"/>
			<point x="836" y="238" type="line"/>
			<point x="836" y="460" type="line"/>
			<point x="790" y="454" type="line"/>
			<point x="773" y="379"/>
			<point x="780" y="372"/>
			<point x="697" y="372" type="curve" smooth="yes"/>
			<point x="610" y="372" type="line"/>
			<point x="610" y="646" type="line"/>
			<point x="707" y="646" type="line" smooth="yes"/>
			<point x="804" y="646"/>
			<point x="830" y="626"/>
			<point x="870" y="520" type="curve"/>
			<point x="922" y="537" type="line"/>
			<point x="885" y="700" type="line"/>
			<point x="312" y="700" type="line"/>
			<point x="312" y="652" type="line"/>
			<point x="376" y="643" type="line"/>
			<point x="113" y="110" type="line" smooth="yes"/>
			<point x="92" y="68"/>
			<point x="84" y="60"/>
			<point x="63" y="56" type="curve" smooth="yes"/>
			<point x="15" y="48" type="line"/>
		</contour>
		<contour>
			<point x="313" y="372" type="line"/>
			<point x="445" y="646" type="line"/>
			<point x="512" y="646" type="line"/>
			<point x="512" y="372" type="line"/>
		</contour>
	</outline>
	<anchor name="bottom" x="556" y="-30"/>
	<anchor name="top" x="652" y="730"/>
</glyph>
<glyph name="Eth" format="2">
	<unicode hex="00D0"/>
	<advance width="765"/>
	<outline>
		<contour>
			<point x="349" y="700" type="curve" smooth="yes"/>
			<point x="62" y="700" type="line"/>
			<point x="62" y="652" type="line"/>
			<point x="118" y="643" type="line" smooth="yes"/>
			<point x="145" y="639"/>
			<point x="151" y="629"/>
			<point x="151" y="596" type="curve" smooth="yes"/>
			<point x="151" y="393" type="line"/>
			<point x="34" y="393" type="line"/>
			<point x="26" y="330" type="line"/>
			<point x="151" y="330" type="line"/>
			<point x="151" y="108" type="line" smooth="yes"/>
			<point x="151" y="71"/>
			<point x="145" y="61"/>
			<point x="120" y="57" type="curve" smooth="yes"/>
			<point x="62" y="48" type="line"/>
			<point x="62" y="0" type="line"/>
			<point x="321" y="0" type="line" smooth="yes"/>
			<point x="568" y="0"/>
			<point x="715" y="139"/>
			<point x="715" y="372" type="curve" smooth="yes"/>
			<point x="715" y="584"/>
			<point x="586" y="700"/>
		</contour>
		<contour>
			<point x="322" y="55" type="curve" smooth="yes"/>
			<point x="296" y="55"/>
			<point x="264" y="57"/>
			<point x="250" y="60" type="curve"/>
			<point x="250" y="330" type="line"/>
			<point x="431" y="330" type="line"/>
			<point x="431" y="393" type="line"/>
			<point x="250" y="393" type="line"/>
			<point x="250" y="646" type="line"/>
			<point x="341" y="646" type="line" smooth="yes"/>
			<point x="515" y="646"/>
			<point x="608" y="548"/>
			<point x="608" y="364" type="curve" smooth="yes"/>
			<point x="608" y="153"/>
			<point x="518" y="55"/>
		</contour>
	</outline>
	<anchor name="bottom" x="360" y="-30"/>
	<anchor name="top" x="357" y="730"/>
</glyph>
<glyph name="multiply" format="2">
	<unicode hex="00D7"/>
	<advance width="582"/>
	<outline>
		<contour>
			<point x="429" y="123" type="line"/>
			<point x="473" y="167" type="line"/>
			<point x="333" y="306" type="line"/>
			<point x="473" y="447" type="line"/>
			<point x="431" y="491" type="line"/>
			<point x="290" y="350" type="line"/>
			<point x="154" y="485" type="line"/>
			<point x="109" y="443" type="line"/>
			<point x="247" y="307" type="line"/>
			<point x="110" y="168" type="line"/>
			<point x="152" y="126" type="line"/>
			<point x="290" y="263" type="line"/>
		</contour>
	</outline>
</glyph>
<glyph name="oslash" format="2">
	<unicode hex="00F8"/>
	<advance width="586"/>
	<outline>
		<contour>
			<point x="-8" y="-14" type="line"/>
			<point x="71" y="-14" type="line"/>
			<point x="124" y="44" type="line"/>
			<point x="165" y="6"/>
			<point x="221" y="-14"/>
			<point x="289" y="-14" type="curve" smooth="yes"/>
			<point x="442" y="-14"/>
			<point x="540" y="96"/>
			<point x="540" y="267" type="curve" smooth="yes"/>
			<point x="540" y="338"/>
			<point x="521" y="397"/>
			<point x="486" y="440" type="curve"/>
			<point x="560" y="521" type="line"/>
			<point x="481" y="521" type="line"/>
			<point x="444" y="480" type="line"/>
			<point x="406" y="507"/>
			<point x="358" y="521"/>
			<point x="303" y="521" type="curve" smooth="yes"/>
			<point x="144" y="521"/>
			<point x="46" y="414"/>
			<point x="46" y="242" type="curve" smooth="yes"/>
			<point x="46" y="181"/>
			<point x="60" y="129"/>
			<point x="86" y="89" type="curve"/>
		</contour>
		<contour>
			<point x="303" y="48" type="curve" smooth="yes"/>
			<point x="253" y="48"/>
			<point x="213" y="71"/>
			<point x="186" y="112" type="curve"/>
			<point x="417" y="365" type="line"/>
			<point x="431" y="332"/>
			<point x="438" y="290"/>
			<point x="438" y="243" type="curve" smooth="yes"/>
			<point x="438" y="118"/>
			<point x="390" y="48"/>
		</contour>
		<contour>
			<point x="160" y="170" type="line"/>
			<point x="151" y="199"/>
			<point x="147" y="233"/>
			<point x="147" y="272" type="curve" smooth="yes"/>
			<point x="147" y="395"/>
			<point x="197" y="462"/>
			<point x="287" y="462" type="curve" smooth="yes"/>
			<point x="327" y="462"/>
			<point x="361" y="446"/>
			<point x="386" y="417" type="curve"/>
		</contour>
	</outline>
	<anchor name="bottom" x="294" y="-30"/>
	<anchor name="top" x="294" y="550"/>
</glyph>
<glyph name="thorn" format="2">
	<unicode hex="00FE"/>
	<advance width="600"/>
	<outline>
		<contour>
			<point x="20" y="-219" type="line"/>
			<point x="283" y="-219" type="line"/>
			<point x="283" y="-172" type="line"/>
			<point x="222" y="-162" type="line" smooth="yes"/>
			<point x="198" y="-158"/>
			<point x="190" y="-145"/>
			<point x="190" y="-113" type="curve" smooth="yes"/>
			<point x="190" y="22" type="line"/>
			<point x="213" y="7"/>
			<point x="260" y="-11"/>
			<point x="322" y="-11" type="curve"/>
			<point x="465" y="-11"/>
			<point x="554" y="86"/>
			<point x="554" y="273" type="curve" smooth="yes"/>
			<point x="554" y="432"/>
			<point x="480" y="521"/>
			<point x="361" y="521" type="curve" smooth="yes"/>
			<point x="265" y="521"/>
			<point x="223" y="475"/>
			<point x="190" y="427" type="curve"/>
			<point x="190" y="438" type="line"/>
			<point x="190" y="755" type="line"/>
			<point x="179" y="766" type="line"/>
			<point x="16" y="761" type="line"/>
			<point x="10" y="711" type="line"/>
			<point x="54" y="704" type="line" smooth="yes"/>
			<point x="94" y="698"/>
			<point x="97" y="687"/>
			<point x="97" y="644" type="curve" smooth="yes"/>
			<point x="97" y="-116" type="line" smooth="yes"/>
			<point x="97" y="-144"/>
			<point x="91" y="-159"/>
			<point x="68" y="-163" type="curve" smooth="yes"/>
			<point x="20" y="-171" type="line"/>
		</contour>
		<contour>
			<point x="316" y="55" type="curve" smooth="yes"/>
			<point x="274" y="55"/>
			<point x="220" y="70"/>
			<point x="190" y="98" type="curve"/>
			<point x="190" y="303" type="line" smooth="yes"/>
			<point x="190" y="414"/>
			<point x="262" y="450"/>
			<point x="331" y="450" type="curve" smooth="yes"/>
			<point x="420" y="450"/>
			<point x="454" y="374"/>
			<point x="454" y="259" type="curve" smooth="yes"/>
			<point x="454" y="139"/>
			<point x="411" y="55"/>
		</contour>
	</outline>
</glyph>
<glyph name="Aogonek" format="2">
	<unicode hex="0104"/>
	<advance width="735"/>
	<outline>
		<contour>
			<point x="556" y="-229" type="curve" smooth="yes"/>
			<point x="593" y="-229"/>
			<point x="628" y="-209"/>
			<point x="651" y="-190" type="curve"/>
			<point x="640" y="-155" type="line"/>
			<point x="627" y="-159"/>
			<point x="610" y="-164"/>
			<point x="591" y="-164" type="curve" smooth="yes"/>
			<point x="563" y="-164"/>
			<point x="550" y="-150"/>
			<point x="550" y="-123" type="curve" smooth="yes"/>
			<point x="550" y="-75"/>
			<point x="592" y="-32"/>
			<point x="631" y="0" type="curve"/>
			<point x="720" y="0" type="line"/>
			<point x="720" y="50" type="line"/>
			<point x="679" y="59" type="line" smooth="yes"/>
			<point x="651" y="65"/>
			<point x="648" y="75"/>
			<point x="635" y="109" type="curve" smooth="yes"/>
			<point x="426" y="700" type="line"/>
			<point x="320" y="700" type="line"/>
			<point x="109" y="110" type="line" smooth="yes"/>
			<point x="94" y="68"/>
			<point x="87" y="61"/>
			<point x="63" y="56" type="curve" smooth="yes"/>
			<point x="15" y="48" type="line"/>
			<point x="15" y="0" type="line"/>
			<point x="257" y="0" type="line"/>
			<point x="257" y="47" type="line"/>
			<point x="200" y="56" type="line" smooth="yes"/>
			<point x="165" y="61"/>
			<point x="168" y="82"/>
			<point x="177" y="109" type="curve" smooth="yes"/>
			<point x="219" y="231" type="line"/>
			<point x="487" y="231" type="line"/>
			<point x="531" y="105" type="line" smooth="yes"/>
			<point x="543" y="71"/>
			<point x="537" y="59"/>
			<point x="511" y="55" type="curve" smooth="yes"/>
			<point x="453" y="48" type="line"/>
			<point x="453" y="0" type="line"/>
			<point x="574" y="0" type="line"/>
			<point x="524" y="-32"/>
			<point x="464" y="-77"/>
			<point x="464" y="-148" type="curve" smooth="yes"/>
			<point x="464" y="-193"/>
			<point x="498" y="-229"/>
		</contour>
		<contour>
			<point x="239" y="288" type="line"/>
			<point x="353" y="617" type="line"/>
			<point x="357" y="617" type="line"/>
			<point x="468" y="288" type="line"/>
		</contour>
	</outline>
	<anchor name="bottom" x="357" y="-30"/>
	<anchor name="top" x="373" y="730"/>
</glyph>
<glyph name="aogonek" format="2">
	<unicode hex="0105"/>
	<advance width="539"/>
	<outline>
		<contour>
			<point x="402" y="-229" type="curve" smooth="yes"/>
			<point x="439" y="-229"/>
			<point x="474" y="-209"/>
			<point x="497" y="-190" type="curve"/>
			<point x="486" y="-155" type="line"/>
			<point x="473" y="-159"/>
			<point x="456" y="-164"/>
			<point x="437" y="-164" type="curve" smooth="yes"/>
			<point x="409" y="-164"/>
			<point x="396" y="-150"/>
			<point x="396" y="-118" type="curve" smooth="yes"/>
			<point x="396" y="-44"/>
			<point x="495" y="8"/>
			<point x="534" y="26" type="curve"/>
			<point x="524" y="64" type="line"/>
			<point x="505" y="58"/>
			<point x="491" y="56"/>
			<point x="477" y="56" type="curve" smooth="yes"/>
			<point x="447" y="56"/>
			<point x="432" y="70"/>
			<point x="432" y="100" type="curve" smooth="yes"/>
			<point x="432" y="341" type="line" smooth="yes"/>
			<point x="432" y="463"/>
			<point x="371" y="521"/>
			<point x="245" y="521" type="curve" smooth="yes"/>
			<point x="143" y="521"/>
			<point x="54" y="461"/>
			<point x="54" y="391" type="curve" smooth="yes"/>
			<point x="54" y="358"/>
			<point x="75" y="339"/>
			<point x="111" y="339" type="curve" smooth="yes"/>
			<point x="141" y="339"/>
			<point x="165" y="359"/>
			<point x="165" y="384" type="curve" smooth="yes"/>
			<point x="165" y="393"/>
			<point x="157" y="410"/>
			<point x="139" y="440" type="curve"/>
			<point x="155" y="457"/>
			<point x="195" y="470"/>
			<point x="231" y="470" type="curve" smooth="yes"/>
			<point x="306" y="470"/>
			<point x="339" y="434"/>
			<point x="339" y="352" type="curve" smooth="yes"/>
			<point x="339" y="284" type="line"/>
			<point x="126" y="273"/>
			<point x="52" y="231"/>
			<point x="52" y="121" type="curve" smooth="yes"/>
			<point x="52" y="40"/>
			<point x="108" y="-14"/>
			<point x="192" y="-14" type="curve" smooth="yes"/>
			<point x="259" y="-14"/>
			<point x="309" y="15"/>
			<point x="347" y="75" type="curve"/>
			<point x="352" y="26"/>
			<point x="375" y="-3"/>
			<point x="415" y="-11" type="curve"/>
			<point x="349" y="-57"/>
			<point x="310" y="-102"/>
			<point x="310" y="-148" type="curve" smooth="yes"/>
			<point x="310" y="-193"/>
			<point x="344" y="-229"/>
		</contour>
		<contour>
			<point x="230" y="55" type="curve" smooth="yes"/>
			<point x="180" y="55"/>
			<point x="149" y="84"/>
			<point x="149" y="132" type="curve" smooth="yes"/>
			<point x="149" y="200"/>
			<point x="210" y="232"/>
			<point x="339" y="232" type="curve"/>
			<point x="339" y="161" type="line" smooth="yes"/>
			<point x="339" y="101"/>
			<point x="292" y="55"/>
		</contour>
	</outline>
	<anchor name="bottom" x="253" y="-30"/>
	<anchor name="top" x="248" y="550"/>
</glyph>
<glyph name="Eogonek" format="2">
	<unicode hex="0118"/>
	<advance width="637"/>
	<outline>
		<contour>
			<point x="458" y="-229" type="curve" smooth="yes"/>
			<point x="495" y="-229"/>
			<point x="530" y="-209"/>
			<point x="553" y="-190" type="curve"/>
			<point x="542" y="-155" type="line"/>
			<point x="529" y="-159"/>
			<point x="512" y="-164"/>
			<point x="493" y="-164" type="curve" smooth="yes"/>
			<point x="465" y="-164"/>
			<point x="452" y="-150"/>
			<point x="452" y="-123" type="curve" smooth="yes"/>
			<point x="452" y="-72"/>
			<point x="509" y="-16"/>
			<point x="560" y="0" type="curve"/>
			<point x="584" y="184" type="line"/>
			<point x="529" y="184" type="line"/>
			<point x="501" y="76"/>
			<point x="475" y="54"/>
			<point x="379" y="54" type="curve" smooth="yes"/>
			<point x="250" y="54" type="line"/>
			<point x="250" y="325" type="line"/>
			<point x="337" y="325" type="line" smooth="yes"/>
			<point x="409" y="325"/>
			<point x="418" y="317"/>
			<point x="430" y="240" type="curve"/>
			<point x="476" y="248" type="line"/>
			<point x="476" y="475" type="line"/>
			<point x="430" y="469" type="line"/>
			<point x="412" y="391"/>
			<point x="408" y="387"/>
			<point x="337" y="387" type="curve" smooth="yes"/>
			<point x="250" y="387" type="line"/>
			<point x="250" y="646" type="line"/>
			<point x="347" y="646" type="line" smooth="yes"/>
			<point x="444" y="646"/>
			<point x="470" y="626"/>
			<point x="510" y="520" type="curve"/>
			<point x="562" y="537" type="line"/>
			<point x="525" y="700" type="line"/>
			<point x="62" y="700" type="line"/>
			<point x="62" y="652" type="line"/>
			<point x="118" y="643" type="line" smooth="yes"/>
			<point x="145" y="639"/>
			<point x="151" y="630"/>
			<point x="151" y="596" type="curve" smooth="yes"/>
			<point x="151" y="108" type="line" smooth="yes"/>
			<point x="151" y="71"/>
			<point x="145" y="61"/>
			<point x="120" y="57" type="curve" smooth="yes"/>
			<point x="62" y="48" type="line"/>
			<point x="62" y="0" type="line"/>
			<point x="486" y="0" type="line"/>
			<point x="432" y="-25"/>
			<point x="366" y="-74"/>
			<point x="366" y="-148" type="curve" smooth="yes"/>
			<point x="366" y="-193"/>
			<point x="400" y="-229"/>
		</contour>
	</outline>
	<anchor name="bottom" x="328" y="-30"/>
	<anchor name="top" x="321" y="730"/>
</glyph>
<glyph name="eogonek" format="2">
	<unicode hex="0119"/>
	<advance width="519"/>
	<outline>
		<contour>
			<point x="311" y="-229" type="curve" smooth="yes"/>
			<point x="348" y="-229"/>
			<point x="383" y="-209"/>
			<point x="406" y="-190" type="curve"/>
			<point x="395" y="-155" type="line"/>
			<point x="382" y="-159"/>
			<point x="365" y="-164"/>
			<point x="346" y="-164" type="curve" smooth="yes"/>
			<point x="318" y="-164"/>
			<point x="305" y="-150"/>
			<point x="305" y="-123" type="curve" smooth="yes"/>
			<point x="305" y="-75"/>
			<point x="339" y="-30"/>
			<point x="407" y="20" type="curve"/>
			<point x="436" y="36"/>
			<point x="461" y="58"/>
			<point x="481" y="85" type="curve"/>
			<point x="446" y="120" type="line"/>
			<point x="409" y="82"/>
			<point x="359" y="60"/>
			<point x="308" y="60" type="curve" smooth="yes"/>
			<point x="211" y="60"/>
			<point x="151" y="129"/>
			<point x="147" y="246" type="curve"/>
			<point x="460" y="246" type="line"/>
			<point x="469" y="282"/>
			<point x="474" y="316"/>
			<point x="474" y="344" type="curve" smooth="yes"/>
			<point x="474" y="450"/>
			<point x="400" y="521"/>
			<point x="290" y="521" type="curve" smooth="yes"/>
			<point x="143" y="521"/>
			<point x="46" y="412"/>
			<point x="46" y="247" type="curve" smooth="yes"/>
			<point x="46" y="88"/>
			<point x="139" y="-14"/>
			<point x="285" y="-14" type="curve" smooth="yes"/>
			<point x="292" y="-14"/>
			<point x="299" y="-14"/>
			<point x="306" y="-13" type="curve"/>
			<point x="248" y="-60"/>
			<point x="219" y="-104"/>
			<point x="219" y="-148" type="curve" smooth="yes"/>
			<point x="219" y="-193"/>
			<point x="253" y="-229"/>
		</contour>
		<contour>
			<point x="147" y="302" type="line"/>
			<point x="157" y="410"/>
			<point x="203" y="468"/>
			<point x="279" y="468" type="curve" smooth="yes"/>
			<point x="345" y="468"/>
			<point x="380" y="426"/>
			<point x="380" y="348" type="curve" smooth="yes"/>
			<point x="380" y="330"/>
			<point x="379" y="315"/>
			<point x="377" y="302" type="curve"/>
		</contour>
	</outline>
	<anchor name="bottom" x="279" y="-30"/>
	<anchor name="top" x="278" y="550"/>
</glyph>
<glyph name="gcircumflex" format="2">
	<unicode hex="011D"/>
	<advance width="522"/>
	<outline>
		<contour>
			<point x="114" y="580" type="line"/>
			<point x="241" y="680" type="line"/>
			<point x="364" y="580" type="line"/>
			<point x="391" y="606" type="line"/>
			<point x="282" y="751" type="line" smooth="yes"/>
			<point x="265" y="774"/>
			<point x="255" y="779"/>
			<point x="241" y="779" type="curve" smooth="yes"/>
			<point x="227" y="779"/>
			<point x="214" y="772"/>
			<point x="202" y="757" type="curve" smooth="yes"/>
			<point x="88" y="605" type="line"/>
		</contour>
		<component base="g"/>
	</outline>
</glyph>
<glyph name="Iogonek" format="2">
	<unicode hex="012E"/>
	<advance width="357"/>
	<outline>
		<contour>
			<point x="189" y="-229" type="curve" smooth="yes"/>
			<point x="226" y="-229"/>
			<point x="261" y="-209"/>
			<point x="284" y="-190" type="curve"/>
			<point x="273" y="-155" type="line"/>
			<point x="260" y="-159"/>
			<point x="243" y="-164"/>
			<point x="224" y="-164" type="curve" smooth="yes"/>
			<point x="196" y="-164"/>
			<point x="183" y="-150"/>
			<point x="183" y="-123" type="curve" smooth="yes"/>
			<point x="183" y="-75"/>
			<point x="225" y="-32"/>
			<point x="264" y="0" type="curve"/>
			<point x="347" y="0" type="line"/>
			<point x="347" y="48" type="line"/>
			<point x="286" y="57" type="line" smooth="yes"/>
			<point x="260" y="61"/>
			<point x="254" y="70"/>
			<point x="254" y="104" type="curve" smooth="yes"/>
			<point x="254" y="592" type="line" smooth="yes"/>
			<point x="254" y="628"/>
			<point x="260" y="640"/>
			<point x="284" y="643" type="curve" smooth="yes"/>
			<point x="347" y="652" type="line"/>
			<point x="347" y="700" type="line"/>
			<point x="62" y="700" type="line"/>
			<point x="62" y="652" type="line"/>
			<point x="122" y="643" type="line" smooth="yes"/>
			<point x="149" y="639"/>
			<point x="155" y="630"/>
			<point x="155" y="596" type="curve" smooth="yes"/>
			<point x="155" y="108" type="line" smooth="yes"/>
			<point x="155" y="71"/>
			<point x="149" y="61"/>
			<point x="124" y="57" type="curve" smooth="yes"/>
			<point x="62" y="48" type="line"/>
			<point x="62" y="0" type="line"/>
			<point x="207" y="0" type="line"/>
			<point x="157" y="-32"/>
			<point x="97" y="-77"/>
			<point x="97" y="-148" type="curve" smooth="yes"/>
			<point x="97" y="-193"/>
			<point x="131" y="-229"/>
		</contour>
	</outline>
	<anchor name="bottom" x="204" y="-30"/>
	<anchor name="top" x="204" y="730"/>
</glyph>
<glyph name="iogonek" format="2">
	<unicode hex="012F"/>
	<advance width="333"/>
	<outline>
		<contour>
			<point x="154" y="-229" type="curve" smooth="yes"/>
			<point x="191" y="-229"/>
			<point x="226" y="-209"/>
			<point x="249" y="-190" type="curve"/>
			<point x="238" y="-155" type="line"/>
			<point x="225" y="-159"/>
			<point x="208" y="-164"/>
			<point x="189" y="-164" type="curve" smooth="yes"/>
			<point x="161" y="-164"/>
			<point x="148" y="-150"/>
			<point x="148" y="-123" type="curve" smooth="yes"/>
			<point x="148" y="-75"/>
			<point x="190" y="-32"/>
			<point x="229" y="0" type="curve"/>
			<point x="309" y="0" type="line"/>
			<point x="309" y="48" type="line"/>
			<point x="253" y="58" type="line" smooth="yes"/>
			<point x="223" y="63"/>
			<point x="221" y="79"/>
			<point x="221" y="105" type="curve" smooth="yes"/>
			<point x="221" y="505" type="line"/>
			<point x="209" y="510" type="line"/>
			<point x="51" y="502" type="line"/>
			<point x="44" y="452" type="line"/>
			<point x="92" y="445" type="line" smooth="yes"/>
			<point x="122" y="441"/>
			<point x="128" y="430"/>
			<point x="128" y="382" type="curve" smooth="yes"/>
			<point x="128" y="109" type="line" smooth="yes"/>
			<point x="128" y="72"/>
			<point x="124" y="62"/>
			<point x="97" y="58" type="curve" smooth="yes"/>
			<point x="40" y="49" type="line"/>
			<point x="40" y="0" type="line"/>
			<point x="172" y="0" type="line"/>
			<point x="122" y="-32"/>
			<point x="62" y="-77"/>
			<point x="62" y="-148" type="curve" smooth="yes"/>
			<point x="62" y="-193"/>
			<point x="96" y="-229"/>
		</contour>
		<contour>
			<point x="160" y="620" type="curve" smooth="yes"/>
			<point x="200" y="620"/>
			<point x="228" y="648"/>
			<point x="228" y="687" type="curve" smooth="yes"/>
			<point x="228" y="726"/>
			<point x="200" y="753"/>
			<point x="160" y="753" type="curve" smooth="yes"/>
			<point x="121" y="753"/>
			<point x="93" y="725"/>
			<point x="93" y="686" type="curve" smooth="yes"/>
			<point x="93" y="647"/>
			<point x="121" y="620"/>
		</contour>
	</outline>
	<anchor name="bottom" x="174" y="-30"/>
</glyph>
<glyph name="kgreenlandic" format="2">
	<unicode hex="0138"/>
	<advance width="607"/>
	<outline>
		<contour>
			<point x="525" y="-9" type="curve" smooth="yes"/>
			<point x="555" y="-9"/>
			<point x="588" y="5"/>
			<point x="615" y="31" type="curve"/>
			<point x="605" y="67" type="line"/>
			<point x="588" y="61"/>
			<point x="574" y="59"/>
			<point x="562" y="59" type="curve" smooth="yes"/>
			<point x="537" y="59"/>
			<point x="520" y="71"/>
			<point x="493" y="101" type="curve" smooth="yes"/>
			<point x="327" y="290" type="line"/>
			<point x="476" y="416" type="line" smooth="yes"/>
			<point x="498" y="434"/>
			<point x="524" y="448"/>
			<point x="546" y="454" type="curve" smooth="yes"/>
			<point x="575" y="462" type="line"/>
			<point x="575" y="507" type="line"/>
			<point x="351" y="507" type="line"/>
			<point x="342" y="461" type="line"/>
			<point x="387" y="454" type="line" smooth="yes"/>
			<point x="402" y="452"/>
			<point x="406" y="434"/>
			<point x="387" y="417" type="curve" smooth="yes"/>
			<point x="228" y="274" type="line"/>
			<point x="228" y="266" type="line"/>
			<point x="397" y="65" type="line" smooth="yes"/>
			<point x="438" y="16"/>
			<point x="462" y="-9"/>
		</contour>
		<contour>
			<point x="40" y="0" type="line"/>
			<point x="284" y="0" type="line"/>
			<point x="284" y="49" type="line"/>
			<point x="248" y="57" type="line" smooth="yes"/>
			<point x="224" y="62"/>
			<point x="221" y="76"/>
			<point x="221" y="104" type="curve" smooth="yes"/>
			<point x="221" y="502" type="line"/>
			<point x="210" y="513" type="line"/>
			<point x="46" y="508" type="line"/>
			<point x="41" y="458" type="line"/>
			<point x="85" y="451" type="line" smooth="yes"/>
			<point x="125" y="445"/>
			<point x="128" y="434"/>
			<point x="128" y="391" type="curve" smooth="yes"/>
			<point x="128" y="108" type="line" smooth="yes"/>
			<point x="128" y="71"/>
			<point x="122" y="61"/>
			<point x="97" y="57" type="curve" smooth="yes"/>
			<point x="40" y="48" type="line"/>
		</contour>
	</outline>
</glyph>
<glyph name="lslash" format="2">
	<unicode hex="0142"/>
	<advance width="335"/>
	<outline>
		<contour>
			<point x="42" y="0" type="line"/>
			<point x="311" y="0" type="line"/>
			<point x="311" y="48" type="line"/>
			<point x="255" y="58" type="line" smooth="yes"/>
			<point x="225" y="63"/>
			<point x="223" y="79"/>
			<point x="223" y="105" type="curve" smooth="yes"/>
			<point x="223" y="384" type="line"/>
			<point x="330" y="442" type="line"/>
			<point x="330" y="513" type="line"/>
			<point x="223" y="455" type="line"/>
			<point x="223" y="755" type="line"/>
			<point x="212" y="766" type="line"/>
			<point x="49" y="761" type="line"/>
			<point x="43" y="710" type="line"/>
			<point x="87" y="703" type="line" smooth="yes"/>
			<point x="124" y="697"/>
			<point x="130" y="689"/>
			<point x="130" y="643" type="curve" smooth="yes"/>
			<point x="130" y="415" type="line"/>
			<point x="26" y="359" type="line"/>
			<point x="26" y="287" type="line"/>
			<point x="130" y="344" type="line"/>
			<point x="130" y="109" type="line" smooth="yes"/>
			<point x="130" y="72"/>
			<point x="126" y="62"/>
			<point x="99" y="58" type="curve" smooth="yes"/>
			<point x="42" y="49" type="line"/>
		</contour>
	</outline>
	<anchor name="bottom" x="176" y="-30"/>
	<anchor name="top" x="146" y="780"/>
</glyph>
<glyph name="Eng" format="2">
	<unicode hex="014A"/>
	<advance width="835"/>
	<outline>
		<contour>
			<point x="62" y="0" type="line"/>
			<point x="308" y="0" type="line"/>
			<point x="308" y="48" type="line"/>
			<point x="252" y="57" type="line" smooth="yes"/>
			<point x="226" y="61"/>
			<point x="220" y="71"/>
			<point x="220" y="104" type="curve" smooth="yes"/>
			<point x="220" y="609" type="line"/>
			<point x="221" y="609" type="line"/>
			<point x="587" y="8" type="line"/>
			<point x="587" y="6" type="line"/>
			<point x="584" y="-85"/>
			<point x="558" y="-142"/>
			<point x="500" y="-188" type="curve"/>
			<point x="528" y="-229" type="line"/>
			<point x="645" y="-165"/>
			<point x="685" y="-83"/>
			<point x="685" y="95" type="curve" smooth="yes"/>
			<point x="685" y="592" type="line" smooth="yes"/>
			<point x="685" y="629"/>
			<point x="691" y="639"/>
			<point x="716" y="643" type="curve" smooth="yes"/>
			<point x="773" y="652" type="line"/>
			<point x="773" y="700" type="line"/>
			<point x="528" y="700" type="line"/>
			<point x="528" y="652" type="line"/>
			<point x="583" y="643" type="line" smooth="yes"/>
			<point x="610" y="639"/>
			<point x="616" y="629"/>
			<point x="616" y="596" type="curve" smooth="yes"/>
			<point x="616" y="145" type="line"/>
			<point x="614" y="145" type="line"/>
			<point x="284" y="700" type="line"/>
			<point x="62" y="700" type="line"/>
			<point x="62" y="652" type="line"/>
			<point x="118" y="643" type="line" smooth="yes"/>
			<point x="144" y="639"/>
			<point x="150" y="629"/>
			<point x="150" y="596" type="curve" smooth="yes"/>
			<point x="150" y="108" type="line" smooth="yes"/>
			<point x="150" y="72"/>
			<point x="144" y="61"/>
			<point x="120" y="57" type="curve" smooth="yes"/>
			<point x="62" y="48" type="line"/>
		</contour>
	</outline>
	<anchor name="bottom" x="184" y="-30"/>
	<anchor name="top" x="412" y="730"/>
</glyph>
<glyph name="Tcedilla" format="2">
	<unicode hex="0162"/>
	<advance width="738"/>
	<outline>
		<contour>
			<point x="358" y="-229" type="curve" smooth="yes"/>
			<point x="436" y="-229"/>
			<point x="473" y="-189"/>
			<point x="473" y="-133" type="curve" smooth="yes"/>
			<point x="473" y="-76"/>
			<point x="431" y="-49"/>
			<point x="367" y="-57" type="curve"/>
			<point x="389" y="0" type="line"/>
			<point x="532" y="0" type="line"/>
			<point x="532" y="48" type="line"/>
			<point x="453" y="60" type="line" smooth="yes"/>
			<point x="425" y="64"/>
			<point x="419" y="74"/>
			<point x="419" y="106" type="curve" smooth="yes"/>
			<point x="419" y="645" type="line"/>
			<point x="475" y="645" type="line" smooth="yes"/>
			<point x="572" y="645"/>
			<point x="598" y="620"/>
			<point x="641" y="487" type="curve"/>
			<point x="696" y="500" type="line"/>
			<point x="659" y="700" type="line"/>
			<point x="81" y="700" type="line"/>
			<point x="42" y="500" type="line"/>
			<point x="96" y="487" type="line"/>
			<point x="140" y="620"/>
			<point x="167" y="645"/>
			<point x="265" y="645" type="curve" smooth="yes"/>
			<point x="320" y="645" type="line"/>
			<point x="320" y="110" type="line" smooth="yes"/>
			<point x="320" y="76"/>
			<point x="312" y="64"/>
			<point x="287" y="60" type="curve" smooth="yes"/>
			<point x="207" y="48" type="line"/>
			<point x="207" y="0" type="line"/>
			<point x="343" y="0" type="line"/>
			<point x="313" y="-75" type="line"/>
			<point x="321" y="-96" type="line"/>
			<point x="330" y="-94"/>
			<point x="338" y="-93"/>
			<point x="351" y="-93" type="curve" smooth="yes"/>
			<point x="383" y="-93"/>
			<point x="401" y="-103"/>
			<point x="401" y="-131" type="curve" smooth="yes"/>
			<point x="401" y="-161"/>
			<point x="377" y="-174"/>
			<point x="351" y="-174" type="curve" smooth="yes"/>
			<point x="329" y="-174"/>
			<point x="304" y="-165"/>
			<point x="287" y="-152" type="curve"/>
			<point x="263" y="-189" type="line"/>
			<point x="274" y="-201"/>
			<point x="311" y="-229"/>
		</contour>
	</outline>
	<anchor name="bottom" x="369" y="-30"/>
	<anchor name="top" x="369" y="730"/>
</glyph>
<glyph name="Tbar" format="2">
	<unicode hex="0166"/>
	<advance width="738"/>
	<outline>
		<contour>
			<point x="207" y="0" type="line"/>
			<point x="532" y="0" type="line"/>
			<point x="532" y="48" type="line"/>
			<point x="453" y="60" type="line" smooth="yes"/>
			<point x="425" y="64"/>
			<point x="419" y="74"/>
			<point x="419" y="106" type="curve" smooth="yes"/>
			<point x="419" y="315" type="line"/>
			<point x="573" y="315" type="line"/>
			<point x="573" y="378" type="line"/>
			<point x="419" y="378" type="line"/>
			<point x="419" y="645" type="line"/>
			<point x="475" y="645" type="line" smooth="yes"/>
			<point x="572" y="645"/>
			<point x="598" y="620"/>
			<point x="641" y="487" type="curve"/>
			<point x="696" y="500" type="line"/>
			<point x="659" y="700" type="line"/>
			<point x="81" y="700" type="line"/>
			<point x="42" y="500" type="line"/>
			<point x="96" y="487" type="line"/>
			<point x="140" y="620"/>
			<point x="167" y="645"/>
			<point x="265" y="645" type="curve" smooth="yes"/>
			<point x="320" y="645" type="line"/>
			<point x="320" y="378" type="line"/>
			<point x="171" y="378" type="line"/>
			<point x="163" y="315" type="line"/>
			<point x="320" y="315" type="line"/>
			<point x="320" y="110" type="line" smooth="yes"/>
			<point x="320" y="76"/>
			<point x="312" y="64"/>
			<point x="287" y="60" type="curve" smooth="yes"/>
			<point x="207" y="48" type="line"/>
		</contour>
	</outline>
	<anchor name="bottom" x="369" y="-30"/>
	<anchor name="top" x="369" y="730"/>
</glyph>
<glyph name="uogonek" format="2">
	<unicode hex="0173"/>
	<advance width="615"/>
	<outline>
		<contour>
			<point x="488" y="-229" type="curve" smooth="yes"/>
			<point x="525" y="-229"/>
			<point x="560" y="-209"/>
			<point x="583" y="-190" type="curve"/>
			<point x="572" y="-155" type="line"/>
			<point x="559" y="-159"/>
			<point x="542" y="-164"/>
			<point x="523" y="-164" type="curve" smooth="yes"/>
			<point x="495" y="-164"/>
			<point x="482" y="-150"/>
			<point x="482" y="-123" type="curve" smooth="yes"/>
			<point x="482" y="-75"/>
			<point x="523" y="-34"/>
			<point x="561" y="-2" type="curve"/>
			<point x="604" y="0" type="line"/>
			<point x="604" y="47" type="line"/>
			<point x="554" y="56" type="line" smooth="yes"/>
			<point x="528" y="61"/>
			<point x="522" y="69"/>
			<point x="522" y="101" type="curve" smooth="yes"/>
			<point x="522" y="507" type="line"/>
			<point x="510" y="514" type="line"/>
			<point x="358" y="503" type="line"/>
			<point x="350" y="455" type="line"/>
			<point x="395" y="448" type="line" smooth="yes"/>
			<point x="425" y="443"/>
			<point x="429" y="433"/>
			<point x="429" y="386" type="curve" smooth="yes"/>
			<point x="429" y="197" type="line" smooth="yes"/>
			<point x="429" y="112"/>
			<point x="377" y="58"/>
			<point x="294" y="58" type="curve" smooth="yes"/>
			<point x="221" y="58"/>
			<point x="198" y="89"/>
			<point x="198" y="186" type="curve" smooth="yes"/>
			<point x="198" y="507" type="line"/>
			<point x="186" y="514" type="line"/>
			<point x="35" y="503" type="line"/>
			<point x="27" y="455" type="line"/>
			<point x="71" y="448" type="line" smooth="yes"/>
			<point x="100" y="443"/>
			<point x="105" y="434"/>
			<point x="105" y="386" type="curve" smooth="yes"/>
			<point x="105" y="157" type="line" smooth="yes"/>
			<point x="105" y="45"/>
			<point x="160" y="-14"/>
			<point x="265" y="-14" type="curve" smooth="yes"/>
			<point x="330" y="-14"/>
			<point x="380" y="13"/>
			<point x="432" y="75" type="curve"/>
			<point x="435" y="75" type="line"/>
			<point x="449" y="-6" type="line"/>
			<point x="500" y="-4" type="line"/>
			<point x="452" y="-36"/>
			<point x="396" y="-80"/>
			<point x="396" y="-148" type="curve" smooth="yes"/>
			<point x="396" y="-193"/>
			<point x="430" y="-229"/>
		</contour>
	</outline>
	<anchor name="bottom" x="315" y="-30"/>
	<anchor name="top" x="298" y="550"/>
</glyph>
<glyph name="Schwa" format="2">
	<unicode hex="018F"/>
	<advance width="691"/>
	<outline>
		<contour>
			<point x="314" y="-14" type="curve" smooth="yes"/>
			<point x="507" y="-14"/>
			<point x="641" y="120"/>
			<point x="641" y="352" type="curve" smooth="yes"/>
			<point x="641" y="556"/>
			<point x="531" y="714"/>
			<point x="321" y="714" type="curve" smooth="yes"/>
			<point x="195" y="714"/>
			<point x="100" y="647"/>
			<point x="50" y="579" type="curve"/>
			<point x="90" y="542" type="line"/>
			<point x="151" y="597"/>
			<point x="210" y="628"/>
			<point x="291" y="628" type="curve" smooth="yes"/>
			<point x="443" y="628"/>
			<point x="527" y="514"/>
			<point x="534" y="360" type="curve"/>
			<point x="79" y="360" type="line"/>
			<point x="66" y="316"/>
			<point x="60" y="270"/>
			<point x="60" y="226" type="curve" smooth="yes"/>
			<point x="60" y="74"/>
			<point x="175" y="-14"/>
		</contour>
		<contour>
			<point x="329" y="48" type="curve" smooth="yes"/>
			<point x="232" y="48"/>
			<point x="163" y="102"/>
			<point x="163" y="221" type="curve" smooth="yes"/>
			<point x="163" y="245"/>
			<point x="165" y="266"/>
			<point x="167" y="283" type="curve"/>
			<point x="534" y="283" type="line"/>
			<point x="524" y="166"/>
			<point x="460" y="48"/>
		</contour>
	</outline>
</glyph>
<glyph name="Ohorn" format="2">
	<unicode hex="01A0"/>
	<advance width="825"/>
	<outline>
		<contour>
			<point x="378" y="-14" type="curve" smooth="yes"/>
			<point x="561" y="-14"/>
			<point x="710" y="120"/>
			<point x="710" y="366" type="curve" smooth="yes"/>
			<point x="710" y="407"/>
			<point x="705" y="444"/>
			<point x="696" y="478" type="curve"/>
			<point x="782" y="520"/>
			<point x="825" y="614"/>
			<point x="825" y="674" type="curve" smooth="yes"/>
			<point x="825" y="720"/>
			<point x="808" y="762"/>
			<point x="754" y="762" type="curve" smooth="yes"/>
			<point x="718" y="762"/>
			<point x="690" y="735"/>
			<point x="690" y="695" type="curve" smooth="yes"/>
			<point x="690" y="661"/>
			<point x="709" y="645"/>
			<point x="752" y="645" type="curve" smooth="yes"/>
			<point x="761" y="645" type="line"/>
			<point x="757" y="602"/>
			<point x="734" y="558"/>
			<point x="679" y="528" type="curve"/>
			<point x="627" y="650"/>
			<point x="513" y="711"/>
			<point x="387" y="711" type="curve" smooth="yes"/>
			<point x="216" y="711"/>
			<point x="50" y="605"/>
			<point x="50" y="334" type="curve" smooth="yes"/>
			<point x="50" y="133"/>
			<point x="173" y="-14"/>
		</contour>
		<contour>
			<point x="390" y="53" type="curve" smooth="yes"/>
			<point x="246" y="53"/>
			<point x="156" y="168"/>
			<point x="156" y="355" type="curve" smooth="yes"/>
			<point x="156" y="563"/>
			<point x="250" y="647"/>
			<point x="374" y="647" type="curve" smooth="yes"/>
			<point x="510" y="647"/>
			<point x="601" y="545"/>
			<point x="601" y="347" type="curve" smooth="yes"/>
			<point x="601" y="142"/>
			<point x="519" y="53"/>
		</contour>
	</outline>
	<anchor name="bottom" x="378" y="-30"/>
	<anchor name="top" x="377" y="730"/>
</glyph>
<glyph name="Uhorn" format="2">
	<unicode hex="01AF"/>
	<advance width="866"/>
	<outline>
		<contour>
			<point x="404" y="-14" type="curve" smooth="yes"/>
			<point x="578" y="-14"/>
			<point x="677" y="79"/>
			<point x="677" y="291" type="curve" smooth="yes"/>
			<point x="677" y="463" type="line"/>
			<point x="810" y="491"/>
			<point x="866" y="605"/>
			<point x="866" y="674" type="curve" smooth="yes"/>
			<point x="866" y="720"/>
			<point x="849" y="762"/>
			<point x="795" y="762" type="curve" smooth="yes"/>
			<point x="759" y="762"/>
			<point x="731" y="735"/>
			<point x="731" y="695" type="curve" smooth="yes"/>
			<point x="731" y="661"/>
			<point x="750" y="645"/>
			<point x="793" y="645" type="curve" smooth="yes"/>
			<point x="802" y="645" type="line"/>
			<point x="798" y="597"/>
			<point x="769" y="546"/>
			<point x="677" y="517" type="curve"/>
			<point x="677" y="700" type="line"/>
			<point x="519" y="700" type="line"/>
			<point x="519" y="652" type="line"/>
			<point x="574" y="643" type="line" smooth="yes"/>
			<point x="604" y="638"/>
			<point x="607" y="627"/>
			<point x="607" y="596" type="curve" smooth="yes"/>
			<point x="607" y="279" type="line" smooth="yes"/>
			<point x="607" y="114"/>
			<point x="536" y="56"/>
			<point x="418" y="56" type="curve" smooth="yes"/>
			<point x="285" y="56"/>
			<point x="237" y="124"/>
			<point x="237" y="272" type="curve" smooth="yes"/>
			<point x="237" y="592" type="line" smooth="yes"/>
			<point x="237" y="622"/>
			<point x="239" y="638"/>
			<point x="267" y="643" type="curve" smooth="yes"/>
			<point x="325" y="652" type="line"/>
			<point x="325" y="700" type="line"/>
			<point x="49" y="700" type="line"/>
			<point x="49" y="652" type="line"/>
			<point x="105" y="643" type="line" smooth="yes"/>
			<point x="135" y="638"/>
			<point x="138" y="627"/>
			<point x="138" y="596" type="curve" smooth="yes"/>
			<point x="138" y="265" type="line" smooth="yes"/>
			<point x="138" y="103"/>
			<point x="199" y="-14"/>
		</contour>
	</outline>
	<anchor name="bottom" x="407" y="-30"/>
	<anchor name="top" x="419" y="730"/>
</glyph>
<glyph name="alpha-latin" format="2">
	<unicode hex="0251"/>
	<advance width="625"/>
	<outline>
		<contour>
			<point x="246" y="-14" type="curve" smooth="yes"/>
			<point x="334" y="-14"/>
			<point x="383" y="29"/>
			<point x="413" y="70" type="curve"/>
			<point x="416" y="70" type="line"/>
			<point x="426" y="1"/>
			<point x="469" y="-14"/>
			<point x="505" y="-14" type="curve" smooth="yes"/>
			<point x="542" y="-14"/>
			<point x="573" y="-2"/>
			<point x="604" y="26" type="curve"/>
			<point x="594" y="64" type="line"/>
			<point x="577" y="59"/>
			<point x="565" y="56"/>
			<point x="551" y="56" type="curve" smooth="yes"/>
			<point x="527" y="56"/>
			<point x="506" y="67"/>
			<point x="506" y="118" type="curve" smooth="yes"/>
			<point x="506" y="513" type="line"/>
			<point x="478" y="521" type="line"/>
			<point x="433" y="478" type="line"/>
			<point x="402" y="501"/>
			<point x="348" y="521"/>
			<point x="291" y="521" type="curve" smooth="yes"/>
			<point x="143" y="521"/>
			<point x="46" y="411"/>
			<point x="46" y="238" type="curve" smooth="yes"/>
			<point x="46" y="87"/>
			<point x="120" y="-14"/>
		</contour>
		<contour>
			<point x="280" y="58" type="curve" smooth="yes"/>
			<point x="182" y="58"/>
			<point x="145" y="142"/>
			<point x="145" y="248" type="curve" smooth="yes"/>
			<point x="145" y="372"/>
			<point x="185" y="455"/>
			<point x="288" y="455" type="curve" smooth="yes"/>
			<point x="328" y="455"/>
			<point x="375" y="444"/>
			<point x="413" y="414" type="curve"/>
			<point x="413" y="212" type="line" smooth="yes"/>
			<point x="413" y="100"/>
			<point x="341" y="58"/>
		</contour>
	</outline>
</glyph>
<glyph name="schwa" format="2">
	<unicode hex="0259"/>
	<advance width="527"/>
	<outline>
		<contour>
			<point x="237" y="-14" type="curve" smooth="yes"/>
			<point x="379" y="-14"/>
			<point x="481" y="88"/>
			<point x="481" y="259" type="curve" smooth="yes"/>
			<point x="481" y="405"/>
			<point x="400" y="521"/>
			<point x="242" y="521" type="curve" smooth="yes"/>
			<point x="153" y="521"/>
			<point x="83" y="472"/>
			<point x="46" y="422" type="curve"/>
			<point x="81" y="387" type="line"/>
			<point x="106" y="413"/>
			<point x="152" y="447"/>
			<point x="219" y="447" type="curve" smooth="yes"/>
			<point x="320" y="447"/>
			<point x="376" y="374"/>
			<point x="380" y="261" type="curve"/>
			<point x="67" y="261" type="line"/>
			<point x="58" y="229"/>
			<point x="53" y="195"/>
			<point x="53" y="163" type="curve" smooth="yes"/>
			<point x="53" y="51"/>
			<point x="134" y="-14"/>
		</contour>
		<contour>
			<point x="248" y="39" type="curve" smooth="yes"/>
			<point x="184" y="39"/>
			<point x="147" y="79"/>
			<point x="147" y="159" type="curve" smooth="yes"/>
			<point x="147" y="177"/>
			<point x="148" y="192"/>
			<point x="150" y="205" type="curve"/>
			<point x="380" y="205" type="line"/>
			<point x="373" y="126"/>
			<point x="344" y="39"/>
		</contour>
	</outline>
	<anchor name="bottom" x="244" y="-30"/>
	<anchor name="top" x="244" y="550"/>
</glyph>
<glyph name="gsingle" format="2">
	<unicode hex="0261"/>
	<advance width="594"/>
	<outline>
		<contour>
			<point x="269" y="-229" type="curve" smooth="yes"/>
			<point x="363" y="-229"/>
			<point x="506" y="-185"/>
			<point x="506" y="16" type="curve" smooth="yes"/>
			<point x="506" y="513" type="line"/>
			<point x="478" y="521" type="line"/>
			<point x="433" y="478" type="line"/>
			<point x="402" y="501"/>
			<point x="348" y="521"/>
			<point x="291" y="521" type="curve" smooth="yes"/>
			<point x="143" y="521"/>
			<point x="46" y="411"/>
			<point x="46" y="238" type="curve" smooth="yes"/>
			<point x="46" y="87"/>
			<point x="120" y="-14"/>
			<point x="246" y="-14" type="curve" smooth="yes"/>
			<point x="334" y="-14"/>
			<point x="383" y="29"/>
			<point x="412" y="69" type="curve"/>
			<point x="413" y="69" type="line"/>
			<point x="413" y="-11" type="line" smooth="yes"/>
			<point x="413" y="-138"/>
			<point x="345" y="-175"/>
			<point x="262" y="-175" type="curve" smooth="yes"/>
			<point x="233" y="-175"/>
			<point x="202" y="-170"/>
			<point x="180" y="-158" type="curve"/>
			<point x="186" y="-134"/>
			<point x="188" y="-113"/>
			<point x="187" y="-101" type="curve" smooth="yes"/>
			<point x="185" y="-81"/>
			<point x="167" y="-68"/>
			<point x="140" y="-68" type="curve" smooth="yes"/>
			<point x="106" y="-68"/>
			<point x="77" y="-88"/>
			<point x="77" y="-133" type="curve" smooth="yes"/>
			<point x="77" y="-185"/>
			<point x="126" y="-229"/>
		</contour>
		<contour>
			<point x="280" y="58" type="curve" smooth="yes"/>
			<point x="182" y="58"/>
			<point x="145" y="142"/>
			<point x="145" y="248" type="curve" smooth="yes"/>
			<point x="145" y="372"/>
			<point x="185" y="455"/>
			<point x="288" y="455" type="curve" smooth="yes"/>
			<point x="328" y="455"/>
			<point x="375" y="444"/>
			<point x="413" y="414" type="curve"/>
			<point x="413" y="212" type="line" smooth="yes"/>
			<point x="413" y="100"/>
			<point x="341" y="58"/>
		</contour>
	</outline>
</glyph>
<glyph name="ringhalfright" format="2">
	<unicode hex="02BE"/>
	<advance width="500"/>
	<outline>
		<contour>
			<point x="215" y="582" type="line"/>
			<point x="216" y="582" type="line"/>
			<point x="288" y="582"/>
			<point x="323" y="627"/>
			<point x="323" y="681" type="curve" smooth="yes"/>
			<point x="323" y="741"/>
			<point x="291" y="781"/>
			<point x="218" y="781" type="curve" smooth="yes"/>
			<point x="215" y="781" type="line"/>
			<point x="215" y="735" type="line"/>
			<point x="217" y="735" type="line" smooth="yes"/>
			<point x="254" y="735"/>
			<point x="267" y="708"/>
			<point x="267" y="681" type="curve" smooth="yes"/>
			<point x="267" y="654"/>
			<point x="254" y="627"/>
			<point x="219" y="627" type="curve" smooth="yes"/>
			<point x="215" y="627" type="line"/>
		</contour>
	</outline>
	<anchor name="_top" x="250" y="550"/>
</glyph>
<glyph name="caron" format="2">
	<unicode hex="02C7"/>
	<advance width="500"/>
	<outline>
		<contour>
			<point x="248" y="580" type="curve" smooth="yes"/>
			<point x="262" y="580"/>
			<point x="275" y="587"/>
			<point x="287" y="602" type="curve" smooth="yes"/>
			<point x="401" y="754" type="line"/>
			<point x="375" y="779" type="line"/>
			<point x="248" y="679" type="line"/>
			<point x="125" y="779" type="line"/>
			<point x="98" y="753" type="line"/>
			<point x="207" y="608" type="line" smooth="yes"/>
			<point x="224" y="585"/>
			<point x="234" y="580"/>
		</contour>
	</outline>
	<anchor name="_top" x="249" y="550"/>
</glyph>
<glyph name="ogonek" format="2">
	<unicode hex="02DB"/>
	<advance width="500"/>
	<outline>
		<contour>
			<point x="235" y="-229" type="curve" smooth="yes"/>
			<point x="272" y="-229"/>
			<point x="307" y="-209"/>
			<point x="330" y="-190" type="curve"/>
			<point x="319" y="-155" type="line"/>
			<point x="306" y="-159"/>
			<point x="289" y="-164"/>
			<point x="270" y="-164" type="curve" smooth="yes"/>
			<point x="242" y="-164"/>
			<point x="229" y="-150"/>
			<point x="229" y="-123" type="curve" smooth="yes"/>
			<point x="229" y="-72"/>
			<point x="276" y="-28"/>
			<point x="316" y="5" type="curve"/>
			<point x="267" y="9" type="line"/>
			<point x="216" y="-23"/>
			<point x="143" y="-70"/>
			<point x="143" y="-148" type="curve" smooth="yes"/>
			<point x="143" y="-193"/>
			<point x="177" y="-229"/>
		</contour>
	</outline>
	<anchor name="_bottom" x="236" y="-30"/>
</glyph>
<glyph name="hungarumlaut" format="2">
	<unicode hex="02DD"/>
	<advance width="500"/>
	<outline>
		<contour>
			<point x="304" y="580" type="line"/>
			<point x="422" y="668" type="line" smooth="yes"/>
			<point x="443" y="683"/>
			<point x="456" y="705"/>
			<point x="456" y="725" type="curve" smooth="yes"/>
			<point x="456" y="748"/>
			<point x="442" y="767"/>
			<point x="413" y="767" type="curve" smooth="yes"/>
			<point x="399" y="767"/>
			<point x="388" y="759"/>
			<point x="373" y="738" type="curve" smooth="yes"/>
			<point x="280" y="605" type="line"/>
		</contour>
		<contour>
			<point x="163" y="580" type="line"/>
			<point x="273" y="672" type="line" smooth="yes"/>
			<point x="294" y="689"/>
			<point x="304" y="707"/>
			<point x="304" y="726" type="curve" smooth="yes"/>
			<point x="304" y="751"/>
			<point x="290" y="770"/>
			<point x="261" y="770" type="curve" smooth="yes"/>
			<point x="247" y="770"/>
			<point x="237" y="763"/>
			<point x="223" y="741" type="curve" smooth="yes"/>
			<point x="139" y="605" type="line"/>
		</contour>
	</outline>
	<anchor name="_top" x="250" y="550"/>
</glyph>
<glyph name="gravecomb" format="2">
	<unicode hex="0300"/>
	<outline>
		<contour>
			<point x="55" y="580" type="line"/>
			<point x="79" y="605" type="line"/>
			<point x="-25" y="743" type="line"/>
			<point x="-41" y="763"/>
			<point x="-50" y="772"/>
			<point x="-64" y="772" type="curve" smooth="yes"/>
			<point x="-93" y="772"/>
			<point x="-112" y="746"/>
			<point x="-112" y="721" type="curve" smooth="yes"/>
			<point x="-112" y="699"/>
			<point x="-99" y="683"/>
			<point x="-77" y="668" type="curve" smooth="yes"/>
		</contour>
	</outline>
	<anchor name="_top" x="1" y="550"/>
</glyph>
<glyph name="acutecomb" format="2">
	<unicode hex="0301"/>
	<outline>
		<contour>
			<point x="-37" y="580" type="line"/>
			<point x="95" y="668" type="line" smooth="yes"/>
			<point x="117" y="683"/>
			<point x="130" y="699"/>
			<point x="130" y="721" type="curve" smooth="yes"/>
			<point x="130" y="746"/>
			<point x="111" y="772"/>
			<point x="82" y="772" type="curve" smooth="yes"/>
			<point x="68" y="772"/>
			<point x="58" y="763"/>
			<point x="43" y="743" type="curve" smooth="yes"/>
			<point x="-61" y="605" type="line"/>
		</contour>
	</outline>
	<anchor name="_top" x="2" y="550"/>
</glyph>
<glyph name="tildecomb" format="2">
	<unicode hex="0303"/>
	<outline>
		<contour>
			<point x="74" y="620" type="curve" smooth="yes"/>
			<point x="110" y="620"/>
			<point x="130" y="640"/>
			<point x="164" y="712" type="curve"/>
			<point x="133" y="731" type="line"/>
			<point x="114" y="702"/>
			<point x="105" y="694"/>
			<point x="89" y="694" type="curve" smooth="yes"/>
			<point x="76" y="694"/>
			<point x="53" y="702"/>
			<point x="15" y="718" type="curve" smooth="yes"/>
			<point x="-26" y="736"/>
			<point x="-48" y="742"/>
			<point x="-71" y="742" type="curve" smooth="yes"/>
			<point x="-111" y="742"/>
			<point x="-131" y="722"/>
			<point x="-164" y="651" type="curve"/>
			<point x="-133" y="632" type="line"/>
			<point x="-113" y="662"/>
			<point x="-104" y="669"/>
			<point x="-86" y="669" type="curve" smooth="yes"/>
			<point x="-77" y="669"/>
			<point x="-63" y="664"/>
			<point x="-16" y="644" type="curve" smooth="yes"/>
			<point x="26" y="626"/>
			<point x="49" y="620"/>
		</contour>
	</outline>
	<anchor name="_top" x="0" y="550"/>
</glyph>
<glyph name="macroncomb" format="2">
	<unicode hex="0304"/>
	<outline>
		<contour>
			<point x="-140" y="635" type="line"/>
			<point x="140" y="635" type="line"/>
			<point x="140" y="708" type="line"/>
			<point x="-140" y="708" type="line"/>
		</contour>
	</outline>
	<anchor name="_top" x="0" y="550"/>
</glyph>
<glyph name="brevecomb" format="2">
	<unicode hex="0306"/>
	<outline>
		<contour>
			<point x="-3" y="587" type="curve" smooth="yes"/>
			<point x="94" y="587"/>
			<point x="143" y="678"/>
			<point x="150" y="757" type="curve"/>
			<point x="112" y="767" type="line"/>
			<point x="97" y="710"/>
			<point x="62" y="667"/>
			<point x="2" y="667" type="curve" smooth="yes"/>
			<point x="-57" y="667"/>
			<point x="-90" y="702"/>
			<point x="-109" y="768" type="curve"/>
			<point x="-149" y="756" type="line"/>
			<point x="-140" y="670"/>
			<point x="-98" y="587"/>
		</contour>
	</outline>
	<anchor name="_top" x="0" y="550"/>
</glyph>
<glyph name="caroncomb" format="2">
	<unicode hex="030C"/>
	<outline>
		<contour>
			<point x="-2" y="580" type="curve" smooth="yes"/>
			<point x="12" y="580"/>
			<point x="25" y="587"/>
			<point x="37" y="602" type="curve" smooth="yes"/>
			<point x="151" y="754" type="line"/>
			<point x="125" y="779" type="line"/>
			<point x="-2" y="679" type="line"/>
			<point x="-125" y="779" type="line"/>
			<point x="-152" y="753" type="line"/>
			<point x="-43" y="608" type="line" smooth="yes"/>
			<point x="-26" y="585"/>
			<point x="-16" y="580"/>
		</contour>
	</outline>
	<anchor name="_top" x="0" y="550"/>
</glyph>
<glyph name="dblgravecomb" format="2">
	<unicode hex="030F"/>
	<outline>
		<contour>
			<point x="-57" y="580" type="line"/>
			<point x="-33" y="605" type="line"/>
			<point x="-126" y="738" type="line" smooth="yes"/>
			<point x="-141" y="759"/>
			<point x="-152" y="767"/>
			<point x="-166" y="767" type="curve" smooth="yes"/>
			<point x="-195" y="767"/>
			<point x="-209" y="748"/>
			<point x="-209" y="725" type="curve" smooth="yes"/>
			<point x="-209" y="705"/>
			<point x="-196" y="683"/>
			<point x="-175" y="668" type="curve" smooth="yes"/>
		</contour>
		<contour>
			<point x="84" y="580" type="line"/>
			<point x="108" y="605" type="line"/>
			<point x="24" y="741" type="line" smooth="yes"/>
			<point x="10" y="763"/>
			<point x="0" y="770"/>
			<point x="-14" y="770" type="curve" smooth="yes"/>
			<point x="-43" y="770"/>
			<point x="-57" y="751"/>
			<point x="-57" y="726" type="curve" smooth="yes"/>
			<point x="-57" y="707"/>
			<point x="-47" y="689"/>
			<point x="-26" y="672" type="curve" smooth="yes"/>
		</contour>
	</outline>
	<anchor name="_top" x="0" y="550"/>
</glyph>
<glyph name="breveinvertedcomb" format="2">
	<unicode hex="0311"/>
	<outline>
		<contour>
			<point x="4" y="758" type="curve" smooth="yes"/>
			<point x="-93" y="758"/>
			<point x="-142" y="667"/>
			<point x="-149" y="588" type="curve"/>
			<point x="-111" y="578" type="line"/>
			<point x="-96" y="635"/>
			<point x="-61" y="678"/>
			<point x="-1" y="678" type="curve" smooth="yes"/>
			<point x="58" y="678"/>
			<point x="91" y="643"/>
			<point x="110" y="577" type="curve"/>
			<point x="150" y="589" type="line"/>
			<point x="141" y="675"/>
			<point x="99" y="758"/>
		</contour>
	</outline>
	<anchor name="_top" x="0" y="550"/>
</glyph>
<glyph name="commaturnedabovecomb" format="2">
	<unicode hex="0312"/>
	<outline>
		<contour>
			<point x="2" y="578" type="curve" smooth="yes"/>
			<point x="35" y="578"/>
			<point x="59" y="603"/>
			<point x="59" y="636" type="curve" smooth="yes"/>
			<point x="59" y="662"/>
			<point x="42" y="678"/>
			<point x="8" y="678" type="curve" smooth="yes"/>
			<point x="0" y="678" type="line"/>
			<point x="0" y="703"/>
			<point x="8" y="727"/>
			<point x="48" y="761" type="curve"/>
			<point x="26" y="790" type="line"/>
			<point x="-34" y="761"/>
			<point x="-65" y="702"/>
			<point x="-65" y="650" type="curve" smooth="yes"/>
			<point x="-65" y="614"/>
			<point x="-43" y="578"/>
		</contour>
	</outline>
	<anchor name="_top" x="0" y="550"/>
</glyph>
<glyph name="dotbelowcomb" format="2">
	<unicode hex="0323"/>
	<outline>
		<contour>
			<point x="1" y="-207" type="curve" smooth="yes"/>
			<point x="41" y="-207"/>
			<point x="69" y="-179"/>
			<point x="69" y="-140" type="curve" smooth="yes"/>
			<point x="69" y="-101"/>
			<point x="41" y="-74"/>
			<point x="1" y="-74" type="curve" smooth="yes"/>
			<point x="-38" y="-74"/>
			<point x="-66" y="-102"/>
			<point x="-66" y="-141" type="curve" smooth="yes"/>
			<point x="-66" y="-180"/>
			<point x="-38" y="-207"/>
		</contour>
	</outline>
	<anchor name="_bottom" x="0" y="-30"/>
</glyph>
<glyph name="commaaccentcomb" format="2">
	<unicode hex="0326"/>
	<outline>
		<contour>
			<point x="-26" y="-268" type="line"/>
			<point x="34" y="-239"/>
			<point x="65" y="-180"/>
			<point x="65" y="-128" type="curve" smooth="yes"/>
			<point x="65" y="-92"/>
			<point x="46" y="-56"/>
			<point x="-2" y="-56" type="curve" smooth="yes"/>
			<point x="-40" y="-56"/>
			<point x="-63" y="-79"/>
			<point x="-63" y="-112" type="curve" smooth="yes"/>
			<point x="-63" y="-138"/>
			<point x="-50" y="-158"/>
			<point x="-12" y="-158" type="curve" smooth="yes"/>
			<point x="-2" y="-158" type="line"/>
			<point x="-2" y="-183"/>
			<point x="-10" y="-205"/>
			<point x="-50" y="-239" type="curve"/>
		</contour>
	</outline>
	<anchor name="_bottom" x="0" y="-30"/>
</glyph>
<glyph name="brevebelowcomb" format="2">
	<unicode hex="032E"/>
	<outline>
		<contour>
			<point x="-3" y="-224" type="curve" smooth="yes"/>
			<point x="94" y="-224"/>
			<point x="139" y="-140"/>
			<point x="146" y="-67" type="curve"/>
			<point x="107" y="-59" type="line"/>
			<point x="92" y="-110"/>
			<point x="60" y="-144"/>
			<point x="1" y="-144" type="curve" smooth="yes"/>
			<point x="-58" y="-144"/>
			<point x="-88" y="-118"/>
			<point x="-107" y="-58" type="curve"/>
			<point x="-146" y="-68" type="line"/>
			<point x="-137" y="-148"/>
			<point x="-98" y="-224"/>
		</contour>
	</outline>
	<anchor name="_bottom" x="0" y="-30"/>
</glyph>
<glyph name="ypogegrammeni" format="2">
	<unicode hex="037A"/>
	<advance width="234"/>
	<outline>
		<contour>
			<point x="153" y="-229" type="curve" smooth="yes"/>
			<point x="181" y="-229"/>
			<point x="210" y="-218"/>
			<point x="234" y="-199" type="curve"/>
			<point x="227" y="-163" type="line"/>
			<point x="206" y="-167"/>
			<point x="197" y="-168"/>
			<point x="190" y="-168" type="curve" smooth="yes"/>
			<point x="156" y="-168"/>
			<point x="141" y="-154"/>
			<point x="141" y="-123" type="curve" smooth="yes"/>
			<point x="141" y="-103"/>
			<point x="142" y="-85"/>
			<point x="146" y="-48" type="curve"/>
			<point x="137" y="-44" type="line"/>
			<point x="64" y="-51" type="line"/>
			<point x="64" y="-136" type="line" smooth="yes"/>
			<point x="64" y="-202"/>
			<point x="90" y="-229"/>
		</contour>
	</outline>
	<anchor name="_bottom" x="105" y="-30"/>
</glyph>
<glyph name="dieresistonos" format="2">
	<unicode hex="0385"/>
	<advance width="622"/>
	<outline>
		<contour>
			<point x="268" y="587" type="line"/>
			<point x="393" y="754" type="line"/>
			<point x="393" y="768" type="line"/>
			<point x="376" y="798"/>
			<point x="357" y="811"/>
			<point x="331" y="811" type="curve" smooth="yes"/>
			<point x="304" y="811"/>
			<point x="292" y="800"/>
			<point x="281" y="766" type="curve" smooth="yes"/>
			<point x="231" y="602" type="line"/>
		</contour>
		<contour>
			<point x="149" y="622" type="curve" smooth="yes"/>
			<point x="187" y="622"/>
			<point x="214" y="649"/>
			<point x="214" y="685" type="curve" smooth="yes"/>
			<point x="214" y="721"/>
			<point x="187" y="747"/>
			<point x="149" y="747" type="curve" smooth="yes"/>
			<point x="113" y="747"/>
			<point x="86" y="720"/>
			<point x="86" y="684" type="curve" smooth="yes"/>
			<point x="86" y="648"/>
			<point x="113" y="622"/>
		</contour>
		<contour>
			<point x="470" y="622" type="curve" smooth="yes"/>
			<point x="507" y="622"/>
			<point x="534" y="649"/>
			<point x="534" y="685" type="curve" smooth="yes"/>
			<point x="534" y="721"/>
			<point x="507" y="747"/>
			<point x="470" y="747" type="curve" smooth="yes"/>
			<point x="433" y="747"/>
			<point x="406" y="720"/>
			<point x="406" y="684" type="curve" smooth="yes"/>
			<point x="406" y="648"/>
			<point x="433" y="622"/>
		</contour>
	</outline>
	<anchor name="_top" x="267" y="550"/>
</glyph>
<glyph name="Lambda" format="2">
	<unicode hex="039B"/>
	<advance width="715"/>
	<outline>
		<contour>
			<point x="15" y="0" type="line"/>
			<point x="257" y="0" type="line"/>
			<point x="257" y="47" type="line"/>
			<point x="202" y="55" type="line" smooth="yes"/>
			<point x="172" y="60"/>
			<point x="165" y="73"/>
			<point x="176" y="105" type="curve" smooth="yes"/>
			<point x="343" y="617" type="line"/>
			<point x="347" y="617" type="line"/>
			<point x="514" y="93" type="line" smooth="yes"/>
			<point x="522" y="69"/>
			<point x="515" y="58"/>
			<point x="491" y="55" type="curve" smooth="yes"/>
			<point x="433" y="48" type="line"/>
			<point x="433" y="0" type="line"/>
			<point x="700" y="0" type="line"/>
			<point x="700" y="50" type="line"/>
			<point x="659" y="58" type="line" smooth="yes"/>
			<point x="634" y="64"/>
			<point x="629" y="70"/>
			<point x="615" y="109" type="curve" smooth="yes"/>
			<point x="416" y="700" type="line"/>
			<point x="310" y="700" type="line"/>
			<point x="113" y="121" type="line" smooth="yes"/>
			<point x="97" y="72"/>
			<point x="88" y="60"/>
			<point x="63" y="56" type="curve" smooth="yes"/>
			<point x="15" y="48" type="line"/>
		</contour>
	</outline>
</glyph>
<glyph name="Phi" format="2">
	<unicode hex="03A6"/>
	<advance width="838"/>
	<outline>
		<contour>
			<point x="287" y="-30" type="line"/>
			<point x="552" y="-30" type="line"/>
			<point x="552" y="18" type="line"/>
			<point x="501" y="27" type="line" smooth="yes"/>
			<point x="476" y="32"/>
			<point x="469" y="40"/>
			<point x="469" y="65" type="curve" smooth="yes"/>
			<point x="469" y="70" type="line"/>
			<point x="669" y="81"/>
			<point x="788" y="186"/>
			<point x="788" y="352" type="curve" smooth="yes"/>
			<point x="788" y="511"/>
			<point x="666" y="617"/>
			<point x="469" y="629" type="curve"/>
			<point x="469" y="633" type="line" smooth="yes"/>
			<point x="469" y="659"/>
			<point x="477" y="669"/>
			<point x="499" y="673" type="curve" smooth="yes"/>
			<point x="552" y="682" type="line"/>
			<point x="552" y="730" type="line"/>
			<point x="287" y="730" type="line"/>
			<point x="287" y="682" type="line"/>
			<point x="337" y="673" type="line" smooth="yes"/>
			<point x="363" y="668"/>
			<point x="370" y="660"/>
			<point x="370" y="633" type="curve" smooth="yes"/>
			<point x="370" y="630" type="line"/>
			<point x="168" y="619"/>
			<point x="50" y="515"/>
			<point x="50" y="348" type="curve" smooth="yes"/>
			<point x="50" y="187"/>
			<point x="172" y="81"/>
			<point x="370" y="70" type="curve"/>
			<point x="370" y="65" type="line" smooth="yes"/>
			<point x="370" y="41"/>
			<point x="362" y="31"/>
			<point x="339" y="27" type="curve" smooth="yes"/>
			<point x="287" y="18" type="line"/>
		</contour>
		<contour>
			<point x="370" y="133" type="line"/>
			<point x="235" y="145"/>
			<point x="156" y="227"/>
			<point x="156" y="355" type="curve" smooth="yes"/>
			<point x="156" y="487"/>
			<point x="234" y="564"/>
			<point x="370" y="568" type="curve"/>
		</contour>
		<contour>
			<point x="469" y="132" type="curve"/>
			<point x="469" y="566" type="line"/>
			<point x="603" y="553"/>
			<point x="681" y="471"/>
			<point x="681" y="345" type="curve" smooth="yes"/>
			<point x="681" y="213"/>
			<point x="604" y="136"/>
		</contour>
	</outline>
</glyph>
<glyph name="Psi" format="2">
	<unicode hex="03A8"/>
	<advance width="925"/>
	<outline>
		<contour>
			<point x="320" y="0" type="line"/>
			<point x="605" y="0" type="line"/>
			<point x="605" y="48" type="line"/>
			<point x="544" y="57" type="line" smooth="yes"/>
			<point x="518" y="61"/>
			<point x="512" y="70"/>
			<point x="512" y="104" type="curve" smooth="yes"/>
			<point x="512" y="189" type="line"/>
			<point x="700" y="198"/>
			<point x="798" y="292"/>
			<point x="798" y="464" type="curve" smooth="yes"/>
			<point x="798" y="592" type="line" smooth="yes"/>
			<point x="798" y="630"/>
			<point x="804" y="641"/>
			<point x="828" y="645" type="curve" smooth="yes"/>
			<point x="876" y="652" type="line"/>
			<point x="876" y="700" type="line"/>
			<point x="698" y="700" type="line"/>
			<point x="698" y="462" type="line" smooth="yes"/>
			<point x="698" y="320"/>
			<point x="642" y="257"/>
			<point x="512" y="253" type="curve"/>
			<point x="512" y="592" type="line" smooth="yes"/>
			<point x="512" y="629"/>
			<point x="519" y="640"/>
			<point x="542" y="643" type="curve" smooth="yes"/>
			<point x="605" y="652" type="line"/>
			<point x="605" y="700" type="line"/>
			<point x="320" y="700" type="line"/>
			<point x="320" y="652" type="line"/>
			<point x="380" y="643" type="line" smooth="yes"/>
			<point x="407" y="639"/>
			<point x="413" y="630"/>
			<point x="413" y="596" type="curve" smooth="yes"/>
			<point x="413" y="253" type="line"/>
			<point x="283" y="257"/>
			<point x="227" y="320"/>
			<point x="227" y="462" type="curve" smooth="yes"/>
			<point x="227" y="700" type="line"/>
			<point x="49" y="700" type="line"/>
			<point x="49" y="652" type="line"/>
			<point x="97" y="645" type="line" smooth="yes"/>
			<point x="121" y="641"/>
			<point x="127" y="630"/>
			<point x="127" y="592" type="curve" smooth="yes"/>
			<point x="127" y="458" type="line" smooth="yes"/>
			<point x="127" y="289"/>
			<point x="224" y="198"/>
			<point x="413" y="189" type="curve"/>
			<point x="413" y="108" type="line" smooth="yes"/>
			<point x="413" y="71"/>
			<point x="407" y="61"/>
			<point x="382" y="57" type="curve" smooth="yes"/>
			<point x="320" y="48" type="line"/>
		</contour>
	</outline>
</glyph>
<glyph name="gamma" format="2">
	<unicode hex="03B3"/>
	<advance width="573"/>
	<outline>
		<contour>
			<point x="220" y="-186" type="curve"/>
			<point x="236" y="-187"/>
			<point x="264" y="-184"/>
			<point x="293" y="-178" type="curve"/>
			<point x="293" y="-116"/>
			<point x="288" y="-38"/>
			<point x="281" y="7" type="curve"/>
			<point x="420" y="107"/>
			<point x="517" y="287"/>
			<point x="517" y="449" type="curve" smooth="yes"/>
			<point x="517" y="470"/>
			<point x="516" y="492"/>
			<point x="514" y="507" type="curve"/>
			<point x="502" y="514" type="line"/>
			<point x="410" y="507" type="line"/>
			<point x="413" y="488"/>
			<point x="415" y="467"/>
			<point x="415" y="442" type="curve" smooth="yes"/>
			<point x="415" y="312"/>
			<point x="357" y="168"/>
			<point x="272" y="87" type="curve"/>
			<point x="266" y="87" type="line"/>
			<point x="255" y="418"/>
			<point x="220" y="516"/>
			<point x="113" y="516" type="curve" smooth="yes"/>
			<point x="75" y="516"/>
			<point x="34" y="500"/>
			<point x="12" y="476" type="curve"/>
			<point x="22" y="438" type="line"/>
			<point x="45" y="444"/>
			<point x="55" y="446"/>
			<point x="64" y="446" type="curve" smooth="yes"/>
			<point x="148" y="446"/>
			<point x="178" y="354"/>
			<point x="203" y="17" type="curve"/>
			<point x="182" y="-75"/>
			<point x="187" y="-133"/>
		</contour>
	</outline>
</glyph>
<glyph name="epsilon" format="2">
	<unicode hex="03B5"/>
	<advance width="526"/>
	<outline>
		<contour>
			<point x="264" y="-14" type="curve" smooth="yes"/>
			<point x="355" y="-14"/>
			<point x="448" y="29"/>
			<point x="492" y="91" type="curve"/>
			<point x="458" y="126" type="line"/>
			<point x="416" y="83"/>
			<point x="355" y="60"/>
			<point x="281" y="60" type="curve" smooth="yes"/>
			<point x="194" y="60"/>
			<point x="143" y="93"/>
			<point x="143" y="149" type="curve" smooth="yes"/>
			<point x="143" y="190"/>
			<point x="172" y="221"/>
			<point x="223" y="235" type="curve"/>
			<point x="242" y="218"/>
			<point x="269" y="208"/>
			<point x="295" y="208" type="curve" smooth="yes"/>
			<point x="329" y="208"/>
			<point x="355" y="231"/>
			<point x="355" y="262" type="curve" smooth="yes"/>
			<point x="355" y="291"/>
			<point x="330" y="313"/>
			<point x="295" y="313" type="curve" smooth="yes"/>
			<point x="272" y="313"/>
			<point x="251" y="305"/>
			<point x="228" y="286" type="curve"/>
			<point x="179" y="300"/>
			<point x="149" y="333"/>
			<point x="149" y="373" type="curve" smooth="yes"/>
			<point x="149" y="428"/>
			<point x="196" y="460"/>
			<point x="278" y="460" type="curve" smooth="yes"/>
			<point x="324" y="460"/>
			<point x="364" y="452"/>
			<point x="390" y="438" type="curve"/>
			<point x="371" y="407"/>
			<point x="364" y="391"/>
			<point x="364" y="374" type="curve" smooth="yes"/>
			<point x="364" y="347"/>
			<point x="385" y="332"/>
			<point x="420" y="332" type="curve" smooth="yes"/>
			<point x="459" y="332"/>
			<point x="483" y="354"/>
			<point x="483" y="390" type="curve" smooth="yes"/>
			<point x="483" y="471"/>
			<point x="403" y="521"/>
			<point x="274" y="521" type="curve" smooth="yes"/>
			<point x="148" y="521"/>
			<point x="62" y="460"/>
			<point x="62" y="370" type="curve" smooth="yes"/>
			<point x="62" y="316"/>
			<point x="93" y="280"/>
			<point x="157" y="259" type="curve"/>
			<point x="157" y="258" type="line"/>
			<point x="86" y="232"/>
			<point x="51" y="189"/>
			<point x="51" y="130" type="curve" smooth="yes"/>
			<point x="51" y="42"/>
			<point x="134" y="-14"/>
		</contour>
	</outline>
	<anchor name="top" x="277" y="550"/>
</glyph>
<glyph name="theta" format="2">
	<unicode hex="03B8"/>
	<advance width="596"/>
	<outline>
		<contour>
			<point x="295" y="-14" type="curve" smooth="yes"/>
			<point x="452" y="-14"/>
			<point x="540" y="129"/>
			<point x="540" y="385" type="curve" smooth="yes"/>
			<point x="540" y="649"/>
			<point x="461" y="782"/>
			<point x="305" y="782" type="curve" smooth="yes"/>
			<point x="144" y="782"/>
			<point x="56" y="642"/>
			<point x="56" y="387" type="curve" smooth="yes"/>
			<point x="56" y="119"/>
			<point x="135" y="-14"/>
		</contour>
		<contour>
			<point x="302" y="48" type="curve" smooth="yes"/>
			<point x="209" y="48"/>
			<point x="159" y="145"/>
			<point x="152" y="338" type="curve"/>
			<point x="443" y="352" type="line"/>
			<point x="443" y="154"/>
			<point x="394" y="48"/>
		</contour>
		<contour>
			<point x="152" y="425" type="line"/>
			<point x="152" y="619"/>
			<point x="201" y="723"/>
			<point x="293" y="723" type="curve" smooth="yes"/>
			<point x="390" y="723"/>
			<point x="443" y="618"/>
			<point x="443" y="425" type="curve"/>
		</contour>
	</outline>
</glyph>
<glyph name="iota" format="2">
	<unicode hex="03B9"/>
	<advance width="295"/>
	<outline>
		<contour>
			<point x="178" y="-14" type="curve" smooth="yes"/>
			<point x="226" y="-14"/>
			<point x="270" y="1"/>
			<point x="295" y="26" type="curve"/>
			<point x="285" y="67" type="line"/>
			<point x="270" y="61"/>
			<point x="252" y="59"/>
			<point x="224" y="59" type="curve" smooth="yes"/>
			<point x="167" y="59"/>
			<point x="151" y="76"/>
			<point x="151" y="140" type="curve" smooth="yes"/>
			<point x="151" y="200"/>
			<point x="161" y="406"/>
			<point x="168" y="507" type="curve"/>
			<point x="156" y="514" type="line"/>
			<point x="64" y="507" type="line"/>
			<point x="66" y="433"/>
			<point x="69" y="235"/>
			<point x="69" y="143" type="curve" smooth="yes"/>
			<point x="69" y="32"/>
			<point x="101" y="-14"/>
		</contour>
	</outline>
	<anchor name="top" x="118" y="550"/>
</glyph>
<glyph name="kappa" format="2">
	<unicode hex="03BA"/>
	<advance width="578"/>
	<outline>
		<contour>
			<point x="448" y="-14" type="curve" smooth="yes"/>
			<point x="481" y="-14"/>
			<point x="518" y="2"/>
			<point x="543" y="26" type="curve"/>
			<point x="533" y="64" type="line"/>
			<point x="517" y="59"/>
			<point x="500" y="56"/>
			<point x="487" y="56" type="curve" smooth="yes"/>
			<point x="450" y="56"/>
			<point x="434" y="68"/>
			<point x="407" y="117" type="curve" smooth="yes"/>
			<point x="345" y="226"/>
			<point x="320" y="275"/>
			<point x="306" y="308" type="curve"/>
			<point x="360" y="375" type="line" smooth="yes"/>
			<point x="389" y="411"/>
			<point x="412" y="433"/>
			<point x="421" y="433" type="curve"/>
			<point x="421" y="405"/>
			<point x="437" y="389"/>
			<point x="466" y="389" type="curve" smooth="yes"/>
			<point x="507" y="389"/>
			<point x="530" y="413"/>
			<point x="530" y="454" type="curve" smooth="yes"/>
			<point x="530" y="494"/>
			<point x="503" y="521"/>
			<point x="463" y="521" type="curve" smooth="yes"/>
			<point x="417" y="521"/>
			<point x="387" y="501"/>
			<point x="331" y="432" type="curve" smooth="yes"/>
			<point x="159" y="218" type="line"/>
			<point x="162" y="327"/>
			<point x="167" y="408"/>
			<point x="173" y="507" type="curve"/>
			<point x="161" y="514" type="line"/>
			<point x="69" y="507" type="line"/>
			<point x="78" y="0" type="line"/>
			<point x="157" y="0" type="line"/>
			<point x="157" y="122" type="line"/>
			<point x="251" y="239" type="line"/>
			<point x="268" y="194"/>
			<point x="312" y="104"/>
			<point x="332" y="72" type="curve" smooth="yes"/>
			<point x="372" y="5"/>
			<point x="397" y="-14"/>
		</contour>
	</outline>
</glyph>
<glyph name="mu" format="2">
	<unicode hex="03BC"/>
	<advance width="615"/>
	<outline>
		<contour>
			<point x="102" y="-223" type="line"/>
			<point x="187" y="-215" type="line"/>
			<point x="173" y="-124"/>
			<point x="167" y="-56"/>
			<point x="167" y="23" type="curve"/>
			<point x="169" y="23" type="line"/>
			<point x="191" y="0"/>
			<point x="226" y="-14"/>
			<point x="261" y="-14" type="curve" smooth="yes"/>
			<point x="327" y="-14"/>
			<point x="383" y="26"/>
			<point x="410" y="93" type="curve"/>
			<point x="413" y="93" type="line"/>
			<point x="425" y="16"/>
			<point x="451" y="-14"/>
			<point x="506" y="-14" type="curve" smooth="yes"/>
			<point x="537" y="-14"/>
			<point x="577" y="3"/>
			<point x="600" y="26" type="curve"/>
			<point x="590" y="64" type="line"/>
			<point x="571" y="59"/>
			<point x="556" y="56"/>
			<point x="547" y="56" type="curve" smooth="yes"/>
			<point x="498" y="56"/>
			<point x="488" y="79"/>
			<point x="488" y="191" type="curve" smooth="yes"/>
			<point x="488" y="283"/>
			<point x="490" y="338"/>
			<point x="501" y="507" type="curve"/>
			<point x="489" y="514" type="line"/>
			<point x="397" y="507" type="line"/>
			<point x="397" y="488"/>
			<point x="401" y="228"/>
			<point x="401" y="197" type="curve" smooth="yes"/>
			<point x="401" y="112"/>
			<point x="346" y="58"/>
			<point x="258" y="58" type="curve" smooth="yes"/>
			<point x="225" y="58"/>
			<point x="185" y="72"/>
			<point x="167" y="90" type="curve"/>
			<point x="167" y="221"/>
			<point x="171" y="390"/>
			<point x="178" y="507" type="curve"/>
			<point x="166" y="514" type="line"/>
			<point x="74" y="507" type="line"/>
			<point x="74" y="491"/>
			<point x="79" y="117"/>
			<point x="79" y="51" type="curve" smooth="yes"/>
			<point x="79" y="-24"/>
			<point x="84" y="-144"/>
			<point x="90" y="-216" type="curve"/>
		</contour>
	</outline>
</glyph>
<glyph name="pi" format="2">
	<unicode hex="03C0"/>
	<advance width="641"/>
	<outline>
		<contour>
			<point x="501" y="-14" type="curve" smooth="yes"/>
			<point x="542" y="-14"/>
			<point x="579" y="0"/>
			<point x="606" y="26" type="curve"/>
			<point x="596" y="67" type="line"/>
			<point x="577" y="62"/>
			<point x="561" y="59"/>
			<point x="550" y="59" type="curve" smooth="yes"/>
			<point x="489" y="59"/>
			<point x="470" y="76"/>
			<point x="470" y="132" type="curve" smooth="yes"/>
			<point x="470" y="229"/>
			<point x="470" y="339"/>
			<point x="470" y="436" type="curve"/>
			<point x="580" y="436" type="line"/>
			<point x="592" y="443" type="line"/>
			<point x="592" y="521" type="line"/>
			<point x="144" y="515" type="line" smooth="yes"/>
			<point x="113" y="515"/>
			<point x="54" y="506"/>
			<point x="25" y="496" type="curve"/>
			<point x="15" y="436" type="line"/>
			<point x="149" y="436" type="line"/>
			<point x="68" y="7" type="line"/>
			<point x="81" y="0" type="line"/>
			<point x="164" y="0" type="line"/>
			<point x="211" y="436" type="line"/>
			<point x="397" y="436" type="line"/>
			<point x="388" y="343"/>
			<point x="379" y="186"/>
			<point x="379" y="132" type="curve" smooth="yes"/>
			<point x="379" y="32"/>
			<point x="418" y="-14"/>
		</contour>
	</outline>
</glyph>
<glyph name="rho" format="2">
	<unicode hex="03C1"/>
	<advance width="561"/>
	<outline>
		<contour>
			<point x="77" y="-223" type="line"/>
			<point x="163" y="-216" type="line"/>
			<point x="150" y="-154"/>
			<point x="142" y="-61"/>
			<point x="142" y="26" type="curve"/>
			<point x="144" y="26" type="line"/>
			<point x="177" y="4"/>
			<point x="238" y="-14"/>
			<point x="279" y="-14" type="curve" smooth="yes"/>
			<point x="423" y="-14"/>
			<point x="515" y="93"/>
			<point x="515" y="261" type="curve" smooth="yes"/>
			<point x="515" y="425"/>
			<point x="428" y="521"/>
			<point x="281" y="521" type="curve" smooth="yes"/>
			<point x="144" y="521"/>
			<point x="55" y="423"/>
			<point x="55" y="273" type="curve" smooth="yes"/>
			<point x="54" y="27" type="line" smooth="yes"/>
			<point x="54" y="-37"/>
			<point x="59" y="-142"/>
			<point x="65" y="-216" type="curve"/>
		</contour>
		<contour>
			<point x="270" y="48" type="curve" smooth="yes"/>
			<point x="224" y="48"/>
			<point x="165" y="69"/>
			<point x="142" y="93" type="curve"/>
			<point x="142" y="292" type="line" smooth="yes"/>
			<point x="142" y="397"/>
			<point x="193" y="462"/>
			<point x="276" y="462" type="curve" smooth="yes"/>
			<point x="370" y="462"/>
			<point x="414" y="397"/>
			<point x="414" y="260" type="curve" smooth="yes"/>
			<point x="414" y="132"/>
			<point x="357" y="48"/>
		</contour>
	</outline>
	<anchor name="top" x="289" y="550"/>
</glyph>
<glyph name="sigma" format="2">
	<unicode hex="03C3"/>
	<advance width="623"/>
	<outline>
		<contour>
			<point x="285" y="-14" type="curve" smooth="yes"/>
			<point x="428" y="-14"/>
			<point x="530" y="92"/>
			<point x="530" y="241" type="curve" smooth="yes"/>
			<point x="530" y="333"/>
			<point x="490" y="421"/>
			<point x="437" y="444" type="curve"/>
			<point x="437" y="446" type="line"/>
			<point x="571" y="436" type="line"/>
			<point x="583" y="443" type="line"/>
			<point x="583" y="521" type="line"/>
			<point x="335" y="517" type="line" smooth="yes"/>
			<point x="156" y="514"/>
			<point x="46" y="412"/>
			<point x="46" y="247" type="curve" smooth="yes"/>
			<point x="46" y="87"/>
			<point x="138" y="-14"/>
		</contour>
		<contour>
			<point x="289" y="48" type="curve" smooth="yes"/>
			<point x="197" y="48"/>
			<point x="147" y="118"/>
			<point x="147" y="247" type="curve" smooth="yes"/>
			<point x="147" y="375"/>
			<point x="212" y="446"/>
			<point x="331" y="446" type="curve" smooth="yes"/>
			<point x="354" y="446" type="line"/>
			<point x="405" y="404"/>
			<point x="433" y="331"/>
			<point x="433" y="238" type="curve" smooth="yes"/>
			<point x="433" y="115"/>
			<point x="382" y="48"/>
		</contour>
	</outline>
</glyph>
<glyph name="tau" format="2">
	<unicode hex="03C4"/>
	<advance width="504"/>
	<outline>
		<contour>
			<point x="300" y="-14" type="curve" smooth="yes"/>
			<point x="352" y="-14"/>
			<point x="408" y="12"/>
			<point x="449" y="55" type="curve"/>
			<point x="427" y="91" type="line"/>
			<point x="395" y="69"/>
			<point x="364" y="59"/>
			<point x="330" y="59" type="curve" smooth="yes"/>
			<point x="278" y="59"/>
			<point x="254" y="91"/>
			<point x="254" y="160" type="curve" smooth="yes"/>
			<point x="254" y="248"/>
			<point x="259" y="378"/>
			<point x="265" y="436" type="curve"/>
			<point x="462" y="436" type="line"/>
			<point x="474" y="443" type="line"/>
			<point x="474" y="521" type="line"/>
			<point x="144" y="516" type="line"/>
			<point x="115" y="515"/>
			<point x="56" y="505"/>
			<point x="25" y="495" type="curve"/>
			<point x="15" y="436" type="line"/>
			<point x="194" y="436" type="line"/>
			<point x="183" y="353"/>
			<point x="169" y="188"/>
			<point x="169" y="133" type="curve" smooth="yes"/>
			<point x="169" y="31"/>
			<point x="209" y="-14"/>
		</contour>
	</outline>
</glyph>
<glyph name="chi" format="2">
	<unicode hex="03C7"/>
	<advance width="543"/>
	<outline>
		<contour>
			<point x="476" y="-233" type="curve" smooth="yes"/>
			<point x="511" y="-233"/>
			<point x="535" y="-222"/>
			<point x="565" y="-193" type="curve"/>
			<point x="555" y="-152" type="line"/>
			<point x="531" y="-158"/>
			<point x="520" y="-160"/>
			<point x="510" y="-160" type="curve" smooth="yes"/>
			<point x="462" y="-160"/>
			<point x="441" y="-131"/>
			<point x="388" y="7" type="curve" smooth="yes"/>
			<point x="329" y="159" type="line"/>
			<point x="530" y="508" type="line"/>
			<point x="518" y="515" type="line"/>
			<point x="427" y="507" type="line"/>
			<point x="301" y="229" type="line"/>
			<point x="295" y="229" type="line"/>
			<point x="245" y="384" type="line" smooth="yes"/>
			<point x="212" y="487"/>
			<point x="181" y="516"/>
			<point x="107" y="516" type="curve" smooth="yes"/>
			<point x="68" y="516"/>
			<point x="31" y="501"/>
			<point x="7" y="476" type="curve"/>
			<point x="17" y="438" type="line"/>
			<point x="28" y="443"/>
			<point x="45" y="446"/>
			<point x="57" y="446" type="curve" smooth="yes"/>
			<point x="114" y="446"/>
			<point x="129" y="429"/>
			<point x="176" y="311" type="curve" smooth="yes"/>
			<point x="244" y="141" type="line"/>
			<point x="40" y="-220" type="line"/>
			<point x="52" y="-227" type="line"/>
			<point x="143" y="-219" type="line"/>
			<point x="274" y="70" type="line"/>
			<point x="280" y="70" type="line"/>
			<point x="322" y="-69" type="line" smooth="yes"/>
			<point x="362" y="-202"/>
			<point x="391" y="-233"/>
		</contour>
	</outline>
</glyph>
<glyph name="omega" format="2">
	<unicode hex="03C9"/>
	<advance width="790"/>
	<outline>
		<contour>
			<point x="234" y="-14" type="curve" smooth="yes"/>
			<point x="307" y="-14"/>
			<point x="379" y="34"/>
			<point x="397" y="95" type="curve"/>
			<point x="400" y="95" type="line"/>
			<point x="424" y="27"/>
			<point x="482" y="-14"/>
			<point x="553" y="-14" type="curve" smooth="yes"/>
			<point x="665" y="-14"/>
			<point x="739" y="85"/>
			<point x="739" y="236" type="curve" smooth="yes"/>
			<point x="739" y="331"/>
			<point x="697" y="447"/>
			<point x="641" y="507" type="curve"/>
			<point x="629" y="514" type="line"/>
			<point x="542" y="497" type="line"/>
			<point x="601" y="425"/>
			<point x="643" y="314"/>
			<point x="643" y="230" type="curve" smooth="yes"/>
			<point x="643" y="119"/>
			<point x="608" y="58"/>
			<point x="545" y="58" type="curve" smooth="yes"/>
			<point x="495" y="58"/>
			<point x="455" y="95"/>
			<point x="430" y="163" type="curve"/>
			<point x="454" y="205"/>
			<point x="468" y="242"/>
			<point x="468" y="268" type="curve" smooth="yes"/>
			<point x="468" y="321"/>
			<point x="436" y="363"/>
			<point x="396" y="363" type="curve" smooth="yes"/>
			<point x="358" y="363"/>
			<point x="328" y="322"/>
			<point x="328" y="268" type="curve" smooth="yes"/>
			<point x="328" y="237"/>
			<point x="338" y="209"/>
			<point x="366" y="163" type="curve"/>
			<point x="340" y="94"/>
			<point x="301" y="58"/>
			<point x="251" y="58" type="curve" smooth="yes"/>
			<point x="187" y="58"/>
			<point x="150" y="116"/>
			<point x="150" y="215" type="curve" smooth="yes"/>
			<point x="150" y="315"/>
			<point x="182" y="407"/>
			<point x="245" y="487" type="curve"/>
			<point x="205" y="514" type="line"/>
			<point x="113" y="455"/>
			<point x="51" y="338"/>
			<point x="51" y="223" type="curve" smooth="yes"/>
			<point x="51" y="80"/>
			<point x="124" y="-14"/>
		</contour>
	</outline>
	<anchor name="bottom" x="395" y="-45"/>
	<anchor name="top" x="398" y="550"/>
</glyph>
<glyph name="kaiSymbol" format="2">
	<unicode hex="03D7"/>
	<advance width="571"/>
	<outline>
		<contour>
			<point x="325" y="-229" type="curve" smooth="yes"/>
			<point x="459" y="-229"/>
			<point x="536" y="-164"/>
			<point x="536" y="-50" type="curve" smooth="yes"/>
			<point x="536" y="19"/>
			<point x="516" y="57"/>
			<point x="427" y="160" type="curve" smooth="yes"/>
			<point x="350" y="248"/>
			<point x="332" y="281"/>
			<point x="332" y="326" type="curve" smooth="yes"/>
			<point x="332" y="372"/>
			<point x="374" y="423"/>
			<point x="421" y="433" type="curve"/>
			<point x="421" y="405"/>
			<point x="437" y="389"/>
			<point x="465" y="389" type="curve" smooth="yes"/>
			<point x="504" y="389"/>
			<point x="530" y="413"/>
			<point x="530" y="451" type="curve" smooth="yes"/>
			<point x="530" y="497"/>
			<point x="506" y="521"/>
			<point x="459" y="521" type="curve" smooth="yes"/>
			<point x="372" y="521"/>
			<point x="271" y="419"/>
			<point x="159" y="218" type="curve"/>
			<point x="161" y="290"/>
			<point x="165" y="366"/>
			<point x="172" y="508" type="curve"/>
			<point x="161" y="514" type="line"/>
			<point x="69" y="507" type="line"/>
			<point x="78" y="0" type="line"/>
			<point x="157" y="0" type="line"/>
			<point x="157" y="122" type="line"/>
			<point x="195" y="188"/>
			<point x="237" y="255"/>
			<point x="277" y="308" type="curve"/>
			<point x="270" y="295"/>
			<point x="266" y="278"/>
			<point x="266" y="261" type="curve" smooth="yes"/>
			<point x="266" y="206"/>
			<point x="302" y="139"/>
			<point x="367" y="72" type="curve" smooth="yes"/>
			<point x="429" y="9"/>
			<point x="447" y="-19"/>
			<point x="447" y="-52" type="curve" smooth="yes"/>
			<point x="447" y="-133"/>
			<point x="392" y="-166"/>
			<point x="260" y="-166" type="curve" smooth="yes"/>
			<point x="251" y="-166" type="line"/>
			<point x="251" y="-219" type="line"/>
			<point x="267" y="-225"/>
			<point x="297" y="-229"/>
		</contour>
	</outline>
</glyph>
<glyph name="koppaArchaic" format="2">
	<unicode hex="03D9"/>
	<advance width="586"/>
	<outline>
		<contour>
			<point x="265" y="-161" type="line"/>
			<point x="338" y="-155" type="line"/>
			<point x="331" y="-103"/>
			<point x="331" y="-64"/>
			<point x="329" y="-11" type="curve"/>
			<point x="460" y="6"/>
			<point x="540" y="111"/>
			<point x="540" y="267" type="curve" smooth="yes"/>
			<point x="540" y="422"/>
			<point x="448" y="521"/>
			<point x="303" y="521" type="curve" smooth="yes"/>
			<point x="144" y="521"/>
			<point x="46" y="414"/>
			<point x="46" y="242" type="curve" smooth="yes"/>
			<point x="46" y="96"/>
			<point x="127" y="-1"/>
			<point x="259" y="-12" type="curve"/>
			<point x="258" y="-56"/>
			<point x="257" y="-85"/>
			<point x="255" y="-157" type="curve"/>
		</contour>
		<contour>
			<point x="329" y="50" type="curve"/>
			<point x="331" y="80"/>
			<point x="334" y="111"/>
			<point x="336" y="141" type="curve"/>
			<point x="325" y="146" type="line"/>
			<point x="255" y="137" type="line"/>
			<point x="258" y="113"/>
			<point x="257" y="88"/>
			<point x="258" y="55" type="curve"/>
			<point x="187" y="78"/>
			<point x="147" y="156"/>
			<point x="147" y="272" type="curve" smooth="yes"/>
			<point x="147" y="395"/>
			<point x="197" y="462"/>
			<point x="287" y="462" type="curve" smooth="yes"/>
			<point x="380" y="462"/>
			<point x="438" y="378"/>
			<point x="438" y="243" type="curve" smooth="yes"/>
			<point x="438" y="130"/>
			<point x="400" y="62"/>
		</contour>
	</outline>
</glyph>
<glyph name="Stigma" format="2">
	<unicode hex="03DA"/>
	<advance width="659"/>
	<outline>
		<contour>
			<point x="463" y="-210" type="line"/>
			<point x="526" y="-153"/>
			<point x="558" y="-95"/>
			<point x="558" y="-39" type="curve" smooth="yes"/>
			<point x="558" y="34"/>
			<point x="513" y="76"/>
			<point x="401" y="107" type="curve" smooth="yes"/>
			<point x="223" y="156"/>
			<point x="157" y="227"/>
			<point x="157" y="372" type="curve" smooth="yes"/>
			<point x="157" y="551"/>
			<point x="237" y="652"/>
			<point x="378" y="652" type="curve" smooth="yes"/>
			<point x="430" y="652"/>
			<point x="471" y="642"/>
			<point x="496" y="623" type="curve"/>
			<point x="472" y="583"/>
			<point x="464" y="564"/>
			<point x="464" y="546" type="curve" smooth="yes"/>
			<point x="464" y="512"/>
			<point x="489" y="492"/>
			<point x="531" y="492" type="curve" smooth="yes"/>
			<point x="576" y="492"/>
			<point x="605" y="521"/>
			<point x="605" y="565" type="curve" smooth="yes"/>
			<point x="605" y="650"/>
			<point x="510" y="714"/>
			<point x="382" y="714" type="curve" smooth="yes"/>
			<point x="180" y="714"/>
			<point x="50" y="575"/>
			<point x="50" y="359" type="curve" smooth="yes"/>
			<point x="50" y="168"/>
			<point x="130" y="81"/>
			<point x="374" y="9" type="curve" smooth="yes"/>
			<point x="435" y="-9"/>
			<point x="469" y="-41"/>
			<point x="469" y="-81" type="curve" smooth="yes"/>
			<point x="469" y="-108"/>
			<point x="459" y="-129"/>
			<point x="423" y="-179" type="curve"/>
		</contour>
	</outline>
</glyph>
<glyph name="koppa" format="2">
	<unicode hex="03DF"/>
	<advance width="465"/>
	<outline>
		<contour>
			<point x="260" y="-59" type="curve" smooth="yes"/>
			<point x="292" y="-59"/>
			<point x="328" y="-45"/>
			<point x="348" y="-25" type="curve"/>
			<point x="341" y="11" type="line"/>
			<point x="327" y="5"/>
			<point x="317" y="3"/>
			<point x="301" y="3" type="curve" smooth="yes"/>
			<point x="278" y="3"/>
			<point x="265" y="15"/>
			<point x="265" y="37" type="curve" smooth="yes"/>
			<point x="265" y="57"/>
			<point x="275" y="75"/>
			<point x="315" y="128" type="curve" smooth="yes"/>
			<point x="415" y="257" type="line"/>
			<point x="415" y="287" type="line"/>
			<point x="168" y="287" type="line"/>
			<point x="233" y="370" type="line" smooth="yes"/>
			<point x="274" y="422"/>
			<point x="289" y="452"/>
			<point x="289" y="484" type="curve" smooth="yes"/>
			<point x="289" y="528"/>
			<point x="256" y="556"/>
			<point x="204" y="556" type="curve" smooth="yes"/>
			<point x="172" y="556"/>
			<point x="138" y="543"/>
			<point x="117" y="522" type="curve"/>
			<point x="124" y="486" type="line"/>
			<point x="139" y="492"/>
			<point x="150" y="494"/>
			<point x="164" y="494" type="curve" smooth="yes"/>
			<point x="187" y="494"/>
			<point x="200" y="482"/>
			<point x="200" y="460" type="curve" smooth="yes"/>
			<point x="200" y="440"/>
			<point x="189" y="420"/>
			<point x="150" y="369" type="curve" smooth="yes"/>
			<point x="50" y="240" type="line"/>
			<point x="50" y="210" type="line"/>
			<point x="297" y="210" type="line"/>
			<point x="239" y="136" type="line" smooth="yes"/>
			<point x="189" y="71"/>
			<point x="176" y="46"/>
			<point x="176" y="13" type="curve" smooth="yes"/>
			<point x="176" y="-31"/>
			<point x="209" y="-59"/>
		</contour>
	</outline>
</glyph>
<glyph name="Sampi" format="2">
	<unicode hex="03E0"/>
	<advance width="744"/>
	<outline>
		<contour>
			<point x="262" y="-162" type="line"/>
			<point x="295" y="-140" type="line"/>
			<point x="278" y="-107" type="line" smooth="yes"/>
			<point x="271" y="-94"/>
			<point x="275" y="-85"/>
			<point x="291" y="-73" type="curve" smooth="yes"/>
			<point x="587" y="142" type="line"/>
			<point x="599" y="92"/>
			<point x="605" y="33"/>
			<point x="605" y="-37" type="curve" smooth="yes"/>
			<point x="605" y="-72"/>
			<point x="603" y="-126"/>
			<point x="600" y="-153" type="curve"/>
			<point x="687" y="-155" type="line"/>
			<point x="692" y="-123"/>
			<point x="694" y="-86"/>
			<point x="694" y="-35" type="curve" smooth="yes"/>
			<point x="694" y="328"/>
			<point x="516" y="508"/>
			<point x="152" y="512" type="curve"/>
			<point x="149" y="440" type="line"/>
			<point x="264" y="438"/>
			<point x="356" y="416"/>
			<point x="427" y="373" type="curve"/>
			<point x="134" y="156" type="line" smooth="yes"/>
			<point x="115" y="140"/>
			<point x="108" y="141"/>
			<point x="92" y="157" type="curve" smooth="yes"/>
			<point x="74" y="175" type="line"/>
			<point x="42" y="155" type="line"/>
			<point x="145" y="6" type="line"/>
			<point x="179" y="28" type="line"/>
			<point x="161" y="61" type="line" smooth="yes"/>
			<point x="155" y="73"/>
			<point x="159" y="83"/>
			<point x="175" y="95" type="curve" smooth="yes"/>
			<point x="489" y="325" type="line"/>
			<point x="521" y="293"/>
			<point x="545" y="257"/>
			<point x="562" y="218" type="curve"/>
			<point x="251" y="-12" type="line" smooth="yes"/>
			<point x="230" y="-28"/>
			<point x="225" y="-28"/>
			<point x="208" y="-11" type="curve" smooth="yes"/>
			<point x="190" y="7" type="line"/>
			<point x="158" y="-13" type="line"/>
		</contour>
	</outline>
</glyph>
<glyph name="Lje-cy" format="2">
	<unicode hex="0409"/>
	<advance width="1010"/>
	<outline>
		<contour>
			<point x="90" y="-13" type="curve" smooth="yes"/>
			<point x="195" y="-13"/>
			<point x="258" y="112"/>
			<point x="274" y="351" type="curve" smooth="yes"/>
			<point x="284" y="505"/>
			<point x="286" y="556"/>
			<point x="286" y="637" type="curve"/>
			<point x="504" y="637" type="line"/>
			<point x="504" y="108" type="line" smooth="yes"/>
			<point x="504" y="71"/>
			<point x="498" y="61"/>
			<point x="473" y="57" type="curve" smooth="yes"/>
			<point x="416" y="48" type="line"/>
			<point x="416" y="0" type="line"/>
			<point x="681" y="0" type="line" smooth="yes"/>
			<point x="869" y="0"/>
			<point x="965" y="72"/>
			<point x="965" y="214" type="curve" smooth="yes"/>
			<point x="965" y="330"/>
			<point x="861" y="406"/>
			<point x="702" y="406" type="curve" smooth="yes"/>
			<point x="673" y="406"/>
			<point x="616" y="403"/>
			<point x="603" y="401" type="curve"/>
			<point x="603" y="594" type="line" smooth="yes"/>
			<point x="603" y="627"/>
			<point x="610" y="639"/>
			<point x="634" y="643" type="curve" smooth="yes"/>
			<point x="691" y="652" type="line"/>
			<point x="691" y="700" type="line"/>
			<point x="131" y="700" type="line"/>
			<point x="131" y="652" type="line"/>
			<point x="177" y="642" type="line" smooth="yes"/>
			<point x="210" y="635"/>
			<point x="220" y="625"/>
			<point x="220" y="596" type="curve" smooth="yes"/>
			<point x="220" y="294"/>
			<point x="194" y="123"/>
			<point x="141" y="79" type="curve"/>
			<point x="110" y="119"/>
			<point x="95" y="130"/>
			<point x="72" y="130" type="curve" smooth="yes"/>
			<point x="37" y="130"/>
			<point x="15" y="102"/>
			<point x="15" y="59" type="curve" smooth="yes"/>
			<point x="15" y="17"/>
			<point x="46" y="-13"/>
		</contour>
		<contour>
			<point x="603" y="54" type="curve"/>
			<point x="603" y="345" type="line"/>
			<point x="614" y="347"/>
			<point x="658" y="350"/>
			<point x="681" y="350" type="curve" smooth="yes"/>
			<point x="799" y="350"/>
			<point x="858" y="300"/>
			<point x="858" y="201" type="curve" smooth="yes"/>
			<point x="858" y="103"/>
			<point x="797" y="54"/>
			<point x="674" y="54" type="curve" smooth="yes"/>
			<point x="650" y="54"/>
			<point x="627" y="54"/>
		</contour>
	</outline>
</glyph>
<glyph name="Zhe-cy" format="2">
	<unicode hex="0416"/>
	<advance width="1024"/>
	<outline>
		<contour>
			<point x="116" y="-14" type="curve" smooth="yes"/>
			<point x="195" y="-14"/>
			<point x="229" y="72"/>
			<point x="257" y="143" type="curve" smooth="yes"/>
			<point x="301" y="256"/>
			<point x="332" y="326"/>
			<point x="416" y="326" type="curve" smooth="yes"/>
			<point x="462" y="326" type="line"/>
			<point x="462" y="108" type="line" smooth="yes"/>
			<point x="462" y="78"/>
			<point x="460" y="62"/>
			<point x="431" y="57" type="curve" smooth="yes"/>
			<point x="369" y="48" type="line"/>
			<point x="369" y="0" type="line"/>
			<point x="654" y="0" type="line"/>
			<point x="654" y="48" type="line"/>
			<point x="593" y="57" type="line" smooth="yes"/>
			<point x="564" y="62"/>
			<point x="561" y="73"/>
			<point x="561" y="104" type="curve" smooth="yes"/>
			<point x="561" y="326" type="line"/>
			<point x="608" y="326" type="line" smooth="yes"/>
			<point x="692" y="326"/>
			<point x="725" y="256"/>
			<point x="767" y="143" type="curve" smooth="yes"/>
			<point x="809" y="30"/>
			<point x="849" y="-14"/>
			<point x="908" y="-14" type="curve" smooth="yes"/>
			<point x="952" y="-14"/>
			<point x="983" y="-3"/>
			<point x="1014" y="29" type="curve"/>
			<point x="1003" y="64" type="line"/>
			<point x="989" y="57"/>
			<point x="972" y="53"/>
			<point x="959" y="53" type="curve" smooth="yes"/>
			<point x="911" y="53"/>
			<point x="891" y="119"/>
			<point x="853" y="212" type="curve" smooth="yes"/>
			<point x="814" y="306"/>
			<point x="781" y="345"/>
			<point x="694" y="356" type="curve"/>
			<point x="694" y="359" type="line"/>
			<point x="764" y="387"/>
			<point x="783" y="435"/>
			<point x="804" y="506" type="curve" smooth="yes"/>
			<point x="828" y="587"/>
			<point x="836" y="603"/>
			<point x="855" y="625" type="curve"/>
			<point x="871" y="595"/>
			<point x="886" y="567"/>
			<point x="917" y="567" type="curve" smooth="yes"/>
			<point x="951" y="567"/>
			<point x="983" y="603"/>
			<point x="983" y="637" type="curve" smooth="yes"/>
			<point x="983" y="680"/>
			<point x="946" y="709"/>
			<point x="900" y="709" type="curve" smooth="yes"/>
			<point x="805" y="709"/>
			<point x="777" y="615"/>
			<point x="754" y="545" type="curve" smooth="yes"/>
			<point x="721" y="446"/>
			<point x="712" y="420"/>
			<point x="659" y="390" type="curve" smooth="yes"/>
			<point x="645" y="383"/>
			<point x="610" y="378"/>
			<point x="561" y="377" type="curve"/>
			<point x="561" y="592" type="line" smooth="yes"/>
			<point x="561" y="622"/>
			<point x="563" y="639"/>
			<point x="591" y="643" type="curve" smooth="yes"/>
			<point x="654" y="652" type="line"/>
			<point x="654" y="700" type="line"/>
			<point x="369" y="700" type="line"/>
			<point x="369" y="652" type="line"/>
			<point x="429" y="643" type="line" smooth="yes"/>
			<point x="459" y="638"/>
			<point x="462" y="627"/>
			<point x="462" y="596" type="curve" smooth="yes"/>
			<point x="462" y="377" type="line"/>
			<point x="414" y="378"/>
			<point x="379" y="382"/>
			<point x="365" y="390" type="curve" smooth="yes"/>
			<point x="312" y="419"/>
			<point x="301" y="448"/>
			<point x="271" y="545" type="curve" smooth="yes"/>
			<point x="233" y="669"/>
			<point x="198" y="709"/>
			<point x="128" y="709" type="curve" smooth="yes"/>
			<point x="82" y="709"/>
			<point x="45" y="680"/>
			<point x="45" y="637" type="curve" smooth="yes"/>
			<point x="45" y="603"/>
			<point x="77" y="567"/>
			<point x="111" y="567" type="curve" smooth="yes"/>
			<point x="135" y="567"/>
			<point x="150" y="581"/>
			<point x="173" y="625" type="curve"/>
			<point x="187" y="606"/>
			<point x="193" y="590"/>
			<point x="216" y="515" type="curve" smooth="yes"/>
			<point x="240" y="435"/>
			<point x="262" y="387"/>
			<point x="332" y="359" type="curve"/>
			<point x="332" y="356" type="line"/>
			<point x="239" y="340"/>
			<point x="205" y="291"/>
			<point x="173" y="209" type="curve" smooth="yes"/>
			<point x="127" y="89"/>
			<point x="102" y="53"/>
			<point x="65" y="53" type="curve" smooth="yes"/>
			<point x="52" y="53"/>
			<point x="35" y="57"/>
			<point x="21" y="64" type="curve"/>
			<point x="10" y="29" type="line"/>
			<point x="43" y="-4"/>
			<point x="74" y="-14"/>
		</contour>
	</outline>
</glyph>
<glyph name="Ii-cy" format="2">
	<unicode hex="0418"/>
	<advance width="840"/>
	<outline>
		<contour>
			<point x="62" y="0" type="line"/>
			<point x="338" y="0" type="line"/>
			<point x="338" y="48" type="line"/>
			<point x="282" y="57" type="line" smooth="yes"/>
			<point x="253" y="62"/>
			<point x="250" y="73"/>
			<point x="250" y="104" type="curve" smooth="yes"/>
			<point x="250" y="142" type="line"/>
			<point x="590" y="473" type="line"/>
			<point x="590" y="108" type="line" smooth="yes"/>
			<point x="590" y="78"/>
			<point x="588" y="62"/>
			<point x="559" y="57" type="curve" smooth="yes"/>
			<point x="502" y="48" type="line"/>
			<point x="502" y="0" type="line"/>
			<point x="777" y="0" type="line"/>
			<point x="777" y="48" type="line"/>
			<point x="722" y="57" type="line" smooth="yes"/>
			<point x="692" y="62"/>
			<point x="689" y="73"/>
			<point x="689" y="104" type="curve" smooth="yes"/>
			<point x="689" y="592" type="line" smooth="yes"/>
			<point x="689" y="622"/>
			<point x="691" y="638"/>
			<point x="720" y="643" type="curve" smooth="yes"/>
			<point x="777" y="652" type="line"/>
			<point x="777" y="700" type="line"/>
			<point x="502" y="700" type="line"/>
			<point x="502" y="652" type="line"/>
			<point x="557" y="643" type="line" smooth="yes"/>
			<point x="587" y="638"/>
			<point x="590" y="627"/>
			<point x="590" y="596" type="curve" smooth="yes"/>
			<point x="590" y="557" type="line"/>
			<point x="250" y="224" type="line"/>
			<point x="250" y="592" type="line" smooth="yes"/>
			<point x="250" y="622"/>
			<point x="252" y="638"/>
			<point x="280" y="643" type="curve" smooth="yes"/>
			<point x="338" y="652" type="line"/>
			<point x="338" y="700" type="line"/>
			<point x="62" y="700" type="line"/>
			<point x="62" y="652" type="line"/>
			<point x="118" y="643" type="line" smooth="yes"/>
			<point x="148" y="638"/>
			<point x="151" y="627"/>
			<point x="151" y="596" type="curve" smooth="yes"/>
			<point x="151" y="108" type="line" smooth="yes"/>
			<point x="151" y="78"/>
			<point x="149" y="62"/>
			<point x="120" y="57" type="curve" smooth="yes"/>
			<point x="62" y="48" type="line"/>
		</contour>
	</outline>
	<anchor name="top" x="421" y="730"/>
</glyph>
<glyph name="U-cy" format="2">
	<unicode hex="0423"/>
	<advance width="664"/>
	<outline>
		<contour>
			<point x="222" y="-14" type="curve" smooth="yes"/>
			<point x="323" y="-14"/>
			<point x="373" y="91"/>
			<point x="408" y="174" type="curve" smooth="yes"/>
			<point x="467" y="312"/>
			<point x="522" y="457"/>
			<point x="568" y="589" type="curve" smooth="yes"/>
			<point x="581" y="626"/>
			<point x="601" y="640"/>
			<point x="625" y="644" type="curve" smooth="yes"/>
			<point x="674" y="652" type="line"/>
			<point x="674" y="700" type="line"/>
			<point x="438" y="700" type="line"/>
			<point x="438" y="653" type="line"/>
			<point x="484" y="642" type="line" smooth="yes"/>
			<point x="512" y="636"/>
			<point x="512" y="625"/>
			<point x="501" y="591" type="curve" smooth="yes"/>
			<point x="451" y="442"/>
			<point x="417" y="347"/>
			<point x="384" y="263" type="curve"/>
			<point x="379" y="263" type="line"/>
			<point x="215" y="595" type="line" smooth="yes"/>
			<point x="198" y="629"/>
			<point x="207" y="642"/>
			<point x="234" y="645" type="curve" smooth="yes"/>
			<point x="289" y="652" type="line"/>
			<point x="289" y="700" type="line"/>
			<point x="15" y="700" type="line"/>
			<point x="15" y="649" type="line"/>
			<point x="52" y="642" type="line" smooth="yes"/>
			<point x="81" y="636"/>
			<point x="95" y="624"/>
			<point x="112" y="591" type="curve" smooth="yes"/>
			<point x="332" y="157" type="line"/>
			<point x="315" y="105"/>
			<point x="286" y="73"/>
			<point x="274" y="65" type="curve"/>
			<point x="242" y="108"/>
			<point x="226" y="120"/>
			<point x="203" y="120" type="curve" smooth="yes"/>
			<point x="171" y="120"/>
			<point x="141" y="90"/>
			<point x="141" y="48" type="curve" smooth="yes"/>
			<point x="141" y="4"/>
			<point x="186" y="-14"/>
		</contour>
	</outline>
	<anchor name="top" x="361" y="730"/>
</glyph>
<glyph name="Che-cy" format="2">
	<unicode hex="0427"/>
	<advance width="768"/>
	<outline>
		<contour>
			<point x="411" y="0" type="line"/>
			<point x="706" y="0" type="line"/>
			<point x="706" y="48" type="line"/>
			<point x="651" y="57" type="line" smooth="yes"/>
			<point x="621" y="62"/>
			<point x="618" y="73"/>
			<point x="618" y="104" type="curve" smooth="yes"/>
			<point x="618" y="592" type="line" smooth="yes"/>
			<point x="618" y="622"/>
			<point x="620" y="638"/>
			<point x="649" y="643" type="curve" smooth="yes"/>
			<point x="706" y="652" type="line"/>
			<point x="706" y="700" type="line"/>
			<point x="431" y="700" type="line"/>
			<point x="431" y="652" type="line"/>
			<point x="486" y="643" type="line" smooth="yes"/>
			<point x="516" y="638"/>
			<point x="519" y="627"/>
			<point x="519" y="596" type="curve" smooth="yes"/>
			<point x="519" y="382" type="line"/>
			<point x="441" y="330"/>
			<point x="407" y="316"/>
			<point x="350" y="316" type="curve" smooth="yes"/>
			<point x="241" y="316"/>
			<point x="208" y="389"/>
			<point x="208" y="465" type="curve" smooth="yes"/>
			<point x="208" y="592" type="line" smooth="yes"/>
			<point x="208" y="622"/>
			<point x="210" y="638"/>
			<point x="238" y="643" type="curve" smooth="yes"/>
			<point x="296" y="652" type="line"/>
			<point x="296" y="700" type="line"/>
			<point x="20" y="700" type="line"/>
			<point x="20" y="652" type="line"/>
			<point x="76" y="643" type="line" smooth="yes"/>
			<point x="106" y="638"/>
			<point x="109" y="627"/>
			<point x="109" y="596" type="curve" smooth="yes"/>
			<point x="109" y="454" type="line" smooth="yes"/>
			<point x="109" y="302"/>
			<point x="204" y="249"/>
			<point x="318" y="249" type="curve" smooth="yes"/>
			<point x="394" y="249"/>
			<point x="446" y="267"/>
			<point x="519" y="317" type="curve"/>
			<point x="519" y="109" type="line" smooth="yes"/>
			<point x="519" y="79"/>
			<point x="517" y="63"/>
			<point x="488" y="58" type="curve"/>
			<point x="411" y="48" type="line"/>
		</contour>
	</outline>
</glyph>
<glyph name="Shcha-cy" format="2">
	<unicode hex="0429"/>
	<advance width="1174"/>
	<outline>
		<contour>
			<point x="1069" y="-157" type="line"/>
			<point x="1124" y="-147" type="line"/>
			<point x="1124" y="64" type="line"/>
			<point x="1008" y="64" type="line"/>
			<point x="1008" y="596" type="line" smooth="yes"/>
			<point x="1008" y="627"/>
			<point x="1011" y="638"/>
			<point x="1041" y="643" type="curve" smooth="yes"/>
			<point x="1096" y="652" type="line"/>
			<point x="1096" y="700" type="line"/>
			<point x="821" y="700" type="line"/>
			<point x="821" y="652" type="line"/>
			<point x="878" y="643" type="line" smooth="yes"/>
			<point x="907" y="638"/>
			<point x="909" y="622"/>
			<point x="909" y="592" type="curve" smooth="yes"/>
			<point x="909" y="63" type="line"/>
			<point x="629" y="63" type="line"/>
			<point x="629" y="596" type="line" smooth="yes"/>
			<point x="629" y="627"/>
			<point x="632" y="638"/>
			<point x="661" y="643" type="curve" smooth="yes"/>
			<point x="717" y="652" type="line"/>
			<point x="717" y="700" type="line"/>
			<point x="441" y="700" type="line"/>
			<point x="441" y="652" type="line"/>
			<point x="499" y="643" type="line" smooth="yes"/>
			<point x="528" y="638"/>
			<point x="530" y="622"/>
			<point x="530" y="592" type="curve" smooth="yes"/>
			<point x="530" y="63" type="line"/>
			<point x="250" y="63" type="line"/>
			<point x="250" y="596" type="line" smooth="yes"/>
			<point x="250" y="627"/>
			<point x="253" y="638"/>
			<point x="282" y="643" type="curve" smooth="yes"/>
			<point x="338" y="652" type="line"/>
			<point x="338" y="700" type="line"/>
			<point x="62" y="700" type="line"/>
			<point x="62" y="652" type="line"/>
			<point x="120" y="643" type="line" smooth="yes"/>
			<point x="149" y="638"/>
			<point x="151" y="622"/>
			<point x="151" y="592" type="curve" smooth="yes"/>
			<point x="151" y="104" type="line" smooth="yes"/>
			<point x="151" y="73"/>
			<point x="148" y="62"/>
			<point x="118" y="57" type="curve" smooth="yes"/>
			<point x="62" y="48" type="line"/>
			<point x="62" y="0" type="line"/>
			<point x="976" y="0" type="line" smooth="yes"/>
			<point x="1033" y="0"/>
			<point x="1045" y="-29"/>
			<point x="1055" y="-77" type="curve"/>
		</contour>
	</outline>
</glyph>
<glyph name="Hardsign-cy" format="2">
	<unicode hex="042A"/>
	<advance width="764"/>
	<outline>
		<contour>
			<point x="169" y="0" type="line"/>
			<point x="435" y="0" type="line" smooth="yes"/>
			<point x="587" y="0"/>
			<point x="719" y="45"/>
			<point x="719" y="214" type="curve" smooth="yes"/>
			<point x="719" y="367"/>
			<point x="565" y="406"/>
			<point x="456" y="406" type="curve" smooth="yes"/>
			<point x="418" y="406"/>
			<point x="366" y="403"/>
			<point x="357" y="401" type="curve"/>
			<point x="357" y="594" type="line" smooth="yes"/>
			<point x="357" y="627"/>
			<point x="362" y="640"/>
			<point x="394" y="644" type="curve"/>
			<point x="446" y="652" type="line"/>
			<point x="446" y="700" type="line"/>
			<point x="54" y="700" type="line"/>
			<point x="15" y="500" type="line"/>
			<point x="69" y="487" type="line"/>
			<point x="113" y="629"/>
			<point x="128" y="645"/>
			<point x="218" y="645" type="curve" smooth="yes"/>
			<point x="258" y="645" type="line"/>
			<point x="258" y="104" type="line" smooth="yes"/>
			<point x="258" y="73"/>
			<point x="255" y="62"/>
			<point x="225" y="57" type="curve"/>
			<point x="169" y="48" type="line"/>
		</contour>
		<contour>
			<point x="357" y="54" type="curve"/>
			<point x="357" y="345" type="line"/>
			<point x="367" y="348"/>
			<point x="412" y="350"/>
			<point x="435" y="350" type="curve" smooth="yes"/>
			<point x="549" y="350"/>
			<point x="612" y="304"/>
			<point x="612" y="201" type="curve" smooth="yes"/>
			<point x="612" y="84"/>
			<point x="527" y="54"/>
			<point x="428" y="54" type="curve" smooth="yes"/>
			<point x="404" y="54"/>
			<point x="381" y="54"/>
		</contour>
	</outline>
	<anchor name="top" x="251" y="730"/>
</glyph>
<glyph name="Yeru-cy" format="2">
	<unicode hex="042B"/>
	<advance width="981"/>
	<outline>
		<contour>
			<point x="62" y="0" type="line"/>
			<point x="328" y="0" type="line" smooth="yes"/>
			<point x="480" y="0"/>
			<point x="602" y="45"/>
			<point x="602" y="214" type="curve" smooth="yes"/>
			<point x="602" y="367"/>
			<point x="458" y="406"/>
			<point x="349" y="406" type="curve" smooth="yes"/>
			<point x="311" y="406"/>
			<point x="259" y="403"/>
			<point x="250" y="401" type="curve"/>
			<point x="250" y="594" type="line" smooth="yes"/>
			<point x="250" y="627"/>
			<point x="255" y="640"/>
			<point x="287" y="644" type="curve" smooth="yes"/>
			<point x="339" y="652" type="line"/>
			<point x="339" y="700" type="line"/>
			<point x="62" y="700" type="line"/>
			<point x="62" y="652" type="line"/>
			<point x="120" y="643" type="line" smooth="yes"/>
			<point x="149" y="638"/>
			<point x="151" y="622"/>
			<point x="151" y="592" type="curve" smooth="yes"/>
			<point x="151" y="104" type="line" smooth="yes"/>
			<point x="151" y="73"/>
			<point x="148" y="62"/>
			<point x="118" y="57" type="curve" smooth="yes"/>
			<point x="62" y="48" type="line"/>
		</contour>
		<contour>
			<point x="250" y="54" type="curve"/>
			<point x="250" y="345" type="line"/>
			<point x="260" y="348"/>
			<point x="305" y="350"/>
			<point x="328" y="350" type="curve" smooth="yes"/>
			<point x="442" y="350"/>
			<point x="495" y="304"/>
			<point x="495" y="201" type="curve" smooth="yes"/>
			<point x="495" y="84"/>
			<point x="420" y="54"/>
			<point x="321" y="54" type="curve" smooth="yes"/>
			<point x="297" y="54"/>
			<point x="274" y="54"/>
		</contour>
		<contour>
			<point x="634" y="0" type="line"/>
			<point x="919" y="0" type="line"/>
			<point x="919" y="48" type="line"/>
			<point x="858" y="57" type="line" smooth="yes"/>
			<point x="829" y="62"/>
			<point x="826" y="73"/>
			<point x="826" y="104" type="curve" smooth="yes"/>
			<point x="826" y="592" type="line" smooth="yes"/>
			<point x="826" y="622"/>
			<point x="828" y="638"/>
			<point x="856" y="643" type="curve" smooth="yes"/>
			<point x="919" y="652" type="line"/>
			<point x="919" y="700" type="line"/>
			<point x="634" y="700" type="line"/>
			<point x="634" y="652" type="line"/>
			<point x="694" y="643" type="line" smooth="yes"/>
			<point x="724" y="638"/>
			<point x="727" y="627"/>
			<point x="727" y="596" type="curve" smooth="yes"/>
			<point x="727" y="108" type="line"/>
			<point x="727" y="78"/>
			<point x="725" y="62"/>
			<point x="696" y="57" type="curve" smooth="yes"/>
			<point x="634" y="48" type="line"/>
		</contour>
	</outline>
	<anchor name="top" x="489" y="730"/>
</glyph>
<glyph name="Softsign-cy" format="2">
	<unicode hex="042C"/>
	<advance width="657"/>
	<outline>
		<contour>
			<point x="62" y="0" type="line"/>
			<point x="328" y="0" type="line" smooth="yes"/>
			<point x="480" y="0"/>
			<point x="612" y="45"/>
			<point x="612" y="214" type="curve" smooth="yes"/>
			<point x="612" y="367"/>
			<point x="458" y="406"/>
			<point x="349" y="406" type="curve" smooth="yes"/>
			<point x="311" y="406"/>
			<point x="259" y="403"/>
			<point x="250" y="401" type="curve"/>
			<point x="250" y="594" type="line" smooth="yes"/>
			<point x="250" y="627"/>
			<point x="255" y="640"/>
			<point x="287" y="644" type="curve" smooth="yes"/>
			<point x="339" y="652" type="line"/>
			<point x="339" y="700" type="line"/>
			<point x="62" y="700" type="line"/>
			<point x="62" y="652" type="line"/>
			<point x="120" y="643" type="line" smooth="yes"/>
			<point x="149" y="638"/>
			<point x="151" y="622"/>
			<point x="151" y="592" type="curve" smooth="yes"/>
			<point x="151" y="104" type="line" smooth="yes"/>
			<point x="151" y="73"/>
			<point x="148" y="62"/>
			<point x="118" y="57" type="curve" smooth="yes"/>
			<point x="62" y="48" type="line"/>
		</contour>
		<contour>
			<point x="250" y="54" type="curve"/>
			<point x="250" y="345" type="line"/>
			<point x="260" y="348"/>
			<point x="305" y="350"/>
			<point x="328" y="350" type="curve" smooth="yes"/>
			<point x="442" y="350"/>
			<point x="505" y="304"/>
			<point x="505" y="201" type="curve" smooth="yes"/>
			<point x="505" y="84"/>
			<point x="420" y="54"/>
			<point x="321" y="54" type="curve" smooth="yes"/>
			<point x="297" y="54"/>
			<point x="274" y="54"/>
		</contour>
	</outline>
</glyph>
